<svg xmlns="http://www.w3.org/2000/svg" viewBox="0 0 1440 438" width="1080" height="328.5" font-family="sans-serif"><rect width="1440" height="438" fill="#121821"/><g transform="translate(0,0)"><rect width="288" height="288" fill="#19202a" stroke="#2c3542"/><line x1="24" y1="40" x2="24" y2="288" stroke="#222b37"/><line x1="48" y1="40" x2="48" y2="288" stroke="#222b37"/><line x1="72" y1="40" x2="72" y2="288" stroke="#222b37"/><line x1="96" y1="40" x2="96" y2="288" stroke="#222b37"/><line x1="120" y1="40" x2="120" y2="288" stroke="#222b37"/><line x1="144" y1="40" x2="144" y2="288" stroke="#222b37"/><line x1="168" y1="40" x2="168" y2="288" stroke="#222b37"/><line x1="192" y1="40" x2="192" y2="288" stroke="#222b37"/><line x1="216" y1="40" x2="216" y2="288" stroke="#222b37"/><line x1="240" y1="40" x2="240" y2="288" stroke="#222b37"/><line x1="264" y1="40" x2="264" y2="288" stroke="#222b37"/><line x1="0" y1="48" x2="288" y2="48" stroke="#222b37"/><line x1="0" y1="72" x2="288" y2="72" stroke="#222b37"/><line x1="0" y1="96" x2="288" y2="96" stroke="#222b37"/><line x1="0" y1="120" x2="288" y2="120" stroke="#222b37"/><line x1="0" y1="144" x2="288" y2="144" stroke="#222b37"/><line x1="0" y1="168" x2="288" y2="168" stroke="#222b37"/><line x1="0" y1="192" x2="288" y2="192" stroke="#222b37"/><line x1="0" y1="216" x2="288" y2="216" stroke="#222b37"/><line x1="0" y1="240" x2="288" y2="240" stroke="#222b37"/><line x1="0" y1="264" x2="288" y2="264" stroke="#222b37"/><polyline points="145.0,240.0 145.0,240.0 145.0,240.0 138.0,240.0 131.0,240.0" fill="none" stroke="#ff7a7a" stroke-width="1" stroke-dasharray="3 3" opacity=".6"/><circle cx="145.0" cy="240.0" r="3" fill="#ff7a7a"/><ellipse cx="144.0" cy="242" rx="30" ry="6" fill="#0a0f15"/><ellipse cx="78.1" cy="227.1" rx="4" ry="5" fill="#ee9d5a" stroke="#182230" stroke-width="1.5"/><line x1="93.1" y1="233.2" x2="78.1" y2="227.1" stroke="#182230" stroke-width="9" stroke-linecap="round"/><line x1="93.1" y1="233.2" x2="78.1" y2="227.1" stroke="#ee9d5a" stroke-width="6" stroke-linecap="round"/><line x1="103.1" y1="228.1" x2="93.1" y2="233.2" stroke="#182230" stroke-width="10" stroke-linecap="round"/><line x1="103.1" y1="228.1" x2="93.1" y2="233.2" stroke="#ee9d5a" stroke-width="7" stroke-linecap="round"/><ellipse cx="145.1" cy="220.3" rx="4" ry="4" fill="#e1e8ec" stroke="#182230" stroke-width="1.5"/><line x1="145.1" y1="220.3" x2="162.0" y2="229.8" stroke="#182230" stroke-width="10" stroke-linecap="round"/><line x1="145.1" y1="220.3" x2="162.0" y2="229.8" stroke="#ee9d5a" stroke-width="7" stroke-linecap="round"/><line x1="144.0" y1="231.5" x2="145.1" y2="220.3" stroke="#182230" stroke-width="12" stroke-linecap="round"/><line x1="144.0" y1="231.5" x2="145.1" y2="220.3" stroke="#ee9d5a" stroke-width="9" stroke-linecap="round"/><line x1="162.0" y1="231.8" x2="173.0" y2="237.8" stroke="#182230" stroke-width="10" stroke-linecap="round"/><line x1="162.0" y1="231.8" x2="173.0" y2="237.8" stroke="#ee9d5a" stroke-width="7" stroke-linecap="round"/><line x1="88.6" y1="229.1" x2="107.6" y2="230.5" stroke="#182230" stroke-width="10" stroke-linecap="round"/><line x1="88.6" y1="229.1" x2="107.6" y2="230.5" stroke="#b6c2cc" stroke-width="7" stroke-linecap="round"/><polygon points="98.2,221.8 97.1,237.7 143.6,239.0 144.4,227.0" fill="#b6c2cc" stroke="#182230" stroke-width="2" stroke-linejoin="round"/><ellipse cx="144.0" cy="233.0" rx="10" ry="7" fill="#637487" stroke="#182230" stroke-width="2"/><polygon points="103.1,226.2 108.1,230.7 106.1,236.7 99.1,235.2 98.1,230.7" fill="#246a9e" stroke="#182230" stroke-width="1.2"/><line x1="162.0" y1="236.2" x2="173.0" y2="242.2" stroke="#182230" stroke-width="10" stroke-linecap="round"/><line x1="162.0" y1="236.2" x2="173.0" y2="242.2" stroke="#5ab6f0" stroke-width="7" stroke-linecap="round"/><line x1="144.0" y1="234.5" x2="145.1" y2="232.4" stroke="#182230" stroke-width="12" stroke-linecap="round"/><line x1="144.0" y1="234.5" x2="145.1" y2="232.4" stroke="#5ab6f0" stroke-width="9" stroke-linecap="round"/><line x1="145.1" y1="232.4" x2="162.0" y2="234.2" stroke="#182230" stroke-width="10" stroke-linecap="round"/><line x1="145.1" y1="232.4" x2="162.0" y2="234.2" stroke="#5ab6f0" stroke-width="7" stroke-linecap="round"/><line x1="103.1" y1="232.2" x2="93.2" y2="243.7" stroke="#182230" stroke-width="10" stroke-linecap="round"/><line x1="103.1" y1="232.2" x2="93.2" y2="243.7" stroke="#5ab6f0" stroke-width="7" stroke-linecap="round"/><line x1="93.2" y1="243.7" x2="78.1" y2="240.3" stroke="#182230" stroke-width="9" stroke-linecap="round"/><line x1="93.2" y1="243.7" x2="78.1" y2="240.3" stroke="#5ab6f0" stroke-width="6" stroke-linecap="round"/><ellipse cx="78.1" cy="240.3" rx="4" ry="5" fill="#5ab6f0" stroke="#182230" stroke-width="1.5"/><ellipse cx="145.1" cy="232.4" rx="4" ry="4" fill="#e1e8ec" stroke="#182230" stroke-width="1.5"/><ellipse cx="70.2" cy="227.3" rx="21" ry="24" fill="#d2dbe1" stroke="#182230" stroke-width="2"/><ellipse cx="69.6" cy="212.3" rx="1.7" ry="2" fill="#182230"/><polygon points="70.8,208.3 75.0,202.3 77.3,208.4" fill="#d2dbe1" stroke="#182230" stroke-width="1"/></g><text x="8" y="310" font-size="16" font-weight="700" fill="#c4d2df">0. 余韻</text><foreignObject x="6" y="318" width="276" height="110"><div xmlns="http://www.w3.org/1999/xhtml" style="font:12px sans-serif;color:#8797a6;line-height:1.35">limp<br/>110ms</div></foreignObject><g transform="translate(288,0)"><rect width="288" height="288" fill="#19202a" stroke="#2c3542"/><line x1="24" y1="40" x2="24" y2="288" stroke="#222b37"/><line x1="48" y1="40" x2="48" y2="288" stroke="#222b37"/><line x1="72" y1="40" x2="72" y2="288" stroke="#222b37"/><line x1="96" y1="40" x2="96" y2="288" stroke="#222b37"/><line x1="120" y1="40" x2="120" y2="288" stroke="#222b37"/><line x1="144" y1="40" x2="144" y2="288" stroke="#222b37"/><line x1="168" y1="40" x2="168" y2="288" stroke="#222b37"/><line x1="192" y1="40" x2="192" y2="288" stroke="#222b37"/><line x1="216" y1="40" x2="216" y2="288" stroke="#222b37"/><line x1="240" y1="40" x2="240" y2="288" stroke="#222b37"/><line x1="264" y1="40" x2="264" y2="288" stroke="#222b37"/><line x1="0" y1="48" x2="288" y2="48" stroke="#222b37"/><line x1="0" y1="72" x2="288" y2="72" stroke="#222b37"/><line x1="0" y1="96" x2="288" y2="96" stroke="#222b37"/><line x1="0" y1="120" x2="288" y2="120" stroke="#222b37"/><line x1="0" y1="144" x2="288" y2="144" stroke="#222b37"/><line x1="0" y1="168" x2="288" y2="168" stroke="#222b37"/><line x1="0" y1="192" x2="288" y2="192" stroke="#222b37"/><line x1="0" y1="216" x2="288" y2="216" stroke="#222b37"/><line x1="0" y1="240" x2="288" y2="240" stroke="#222b37"/><line x1="0" y1="264" x2="288" y2="264" stroke="#222b37"/><polyline points="145.0,240.0 145.0,240.0 145.0,240.0 138.0,240.0 131.0,240.0" fill="none" stroke="#ff7a7a" stroke-width="1" stroke-dasharray="3 3" opacity=".6"/><circle cx="145.0" cy="240.0" r="3" fill="#ff7a7a"/><ellipse cx="144.0" cy="242" rx="30" ry="6" fill="#0a0f15"/><ellipse cx="78.1" cy="227.1" rx="4" ry="5" fill="#ee9d5a" stroke="#182230" stroke-width="1.5"/><line x1="93.1" y1="233.2" x2="78.1" y2="227.1" stroke="#182230" stroke-width="9" stroke-linecap="round"/><line x1="93.1" y1="233.2" x2="78.1" y2="227.1" stroke="#ee9d5a" stroke-width="6" stroke-linecap="round"/><line x1="103.1" y1="228.1" x2="93.1" y2="233.2" stroke="#182230" stroke-width="10" stroke-linecap="round"/><line x1="103.1" y1="228.1" x2="93.1" y2="233.2" stroke="#ee9d5a" stroke-width="7" stroke-linecap="round"/><ellipse cx="145.5" cy="212.7" rx="4" ry="4" fill="#e1e8ec" stroke="#182230" stroke-width="1.5"/><line x1="145.5" y1="212.7" x2="161.0" y2="230.0" stroke="#182230" stroke-width="10" stroke-linecap="round"/><line x1="145.5" y1="212.7" x2="161.0" y2="230.0" stroke="#ee9d5a" stroke-width="7" stroke-linecap="round"/><line x1="144.0" y1="231.5" x2="145.5" y2="212.7" stroke="#182230" stroke-width="12" stroke-linecap="round"/><line x1="144.0" y1="231.5" x2="145.5" y2="212.7" stroke="#ee9d5a" stroke-width="9" stroke-linecap="round"/><line x1="161.0" y1="232.0" x2="172.0" y2="238.0" stroke="#182230" stroke-width="10" stroke-linecap="round"/><line x1="161.0" y1="232.0" x2="172.0" y2="238.0" stroke="#ee9d5a" stroke-width="7" stroke-linecap="round"/><line x1="88.6" y1="229.1" x2="107.6" y2="230.5" stroke="#182230" stroke-width="10" stroke-linecap="round"/><line x1="88.6" y1="229.1" x2="107.6" y2="230.5" stroke="#b6c2cc" stroke-width="7" stroke-linecap="round"/><polygon points="98.2,221.8 97.1,237.7 143.6,239.0 144.4,227.0" fill="#b6c2cc" stroke="#182230" stroke-width="2" stroke-linejoin="round"/><ellipse cx="144.0" cy="233.0" rx="10" ry="7" fill="#637487" stroke="#182230" stroke-width="2"/><line x1="161.0" y1="236.0" x2="172.0" y2="242.0" stroke="#182230" stroke-width="10" stroke-linecap="round"/><line x1="161.0" y1="236.0" x2="172.0" y2="242.0" stroke="#5ab6f0" stroke-width="7" stroke-linecap="round"/><polygon points="103.1,226.2 108.1,230.7 106.1,236.7 99.1,235.2 98.1,230.7" fill="#246a9e" stroke="#182230" stroke-width="1.2"/><line x1="144.0" y1="234.5" x2="145.5" y2="223.4" stroke="#182230" stroke-width="12" stroke-linecap="round"/><line x1="144.0" y1="234.5" x2="145.5" y2="223.4" stroke="#5ab6f0" stroke-width="9" stroke-linecap="round"/><line x1="145.5" y1="223.4" x2="161.0" y2="234.0" stroke="#182230" stroke-width="10" stroke-linecap="round"/><line x1="145.5" y1="223.4" x2="161.0" y2="234.0" stroke="#5ab6f0" stroke-width="7" stroke-linecap="round"/><line x1="103.1" y1="232.2" x2="93.2" y2="243.7" stroke="#182230" stroke-width="10" stroke-linecap="round"/><line x1="103.1" y1="232.2" x2="93.2" y2="243.7" stroke="#5ab6f0" stroke-width="7" stroke-linecap="round"/><line x1="93.2" y1="243.7" x2="78.1" y2="240.3" stroke="#182230" stroke-width="9" stroke-linecap="round"/><line x1="93.2" y1="243.7" x2="78.1" y2="240.3" stroke="#5ab6f0" stroke-width="6" stroke-linecap="round"/><ellipse cx="145.5" cy="223.4" rx="4" ry="4" fill="#e1e8ec" stroke="#182230" stroke-width="1.5"/><ellipse cx="78.1" cy="240.3" rx="4" ry="5" fill="#5ab6f0" stroke="#182230" stroke-width="1.5"/><ellipse cx="70.3" cy="226.5" rx="21" ry="24" fill="#d2dbe1" stroke="#182230" stroke-width="2"/><ellipse cx="70.3" cy="211.3" rx="1.7" ry="2" fill="#182230"/><polygon points="71.8,207.4 76.4,201.8 78.6,208.1" fill="#d2dbe1" stroke="#182230" stroke-width="1"/></g><text x="296" y="310" font-size="16" font-weight="700" fill="#c4d2df">1. …</text><foreignObject x="294" y="318" width="276" height="110"><div xmlns="http://www.w3.org/1999/xhtml" style="font:12px sans-serif;color:#8797a6;line-height:1.35"><br/>110ms</div></foreignObject><g transform="translate(576,0)"><rect width="288" height="288" fill="#19202a" stroke="#2c3542"/><line x1="24" y1="40" x2="24" y2="288" stroke="#222b37"/><line x1="48" y1="40" x2="48" y2="288" stroke="#222b37"/><line x1="72" y1="40" x2="72" y2="288" stroke="#222b37"/><line x1="96" y1="40" x2="96" y2="288" stroke="#222b37"/><line x1="120" y1="40" x2="120" y2="288" stroke="#222b37"/><line x1="144" y1="40" x2="144" y2="288" stroke="#222b37"/><line x1="168" y1="40" x2="168" y2="288" stroke="#222b37"/><line x1="192" y1="40" x2="192" y2="288" stroke="#222b37"/><line x1="216" y1="40" x2="216" y2="288" stroke="#222b37"/><line x1="240" y1="40" x2="240" y2="288" stroke="#222b37"/><line x1="264" y1="40" x2="264" y2="288" stroke="#222b37"/><line x1="0" y1="48" x2="288" y2="48" stroke="#222b37"/><line x1="0" y1="72" x2="288" y2="72" stroke="#222b37"/><line x1="0" y1="96" x2="288" y2="96" stroke="#222b37"/><line x1="0" y1="120" x2="288" y2="120" stroke="#222b37"/><line x1="0" y1="144" x2="288" y2="144" stroke="#222b37"/><line x1="0" y1="168" x2="288" y2="168" stroke="#222b37"/><line x1="0" y1="192" x2="288" y2="192" stroke="#222b37"/><line x1="0" y1="216" x2="288" y2="216" stroke="#222b37"/><line x1="0" y1="240" x2="288" y2="240" stroke="#222b37"/><line x1="0" y1="264" x2="288" y2="264" stroke="#222b37"/><polyline points="145.0,240.0 145.0,240.0 145.0,240.0 138.0,240.0 131.0,240.0" fill="none" stroke="#ff7a7a" stroke-width="1" stroke-dasharray="3 3" opacity=".6"/><circle cx="145.0" cy="240.0" r="3" fill="#ff7a7a"/><ellipse cx="144.0" cy="242" rx="30" ry="6" fill="#0a0f15"/><ellipse cx="78.1" cy="227.1" rx="4" ry="5" fill="#ee9d5a" stroke="#182230" stroke-width="1.5"/><line x1="93.1" y1="233.2" x2="78.1" y2="227.1" stroke="#182230" stroke-width="9" stroke-linecap="round"/><line x1="93.1" y1="233.2" x2="78.1" y2="227.1" stroke="#ee9d5a" stroke-width="6" stroke-linecap="round"/><line x1="103.1" y1="228.1" x2="93.1" y2="233.2" stroke="#182230" stroke-width="10" stroke-linecap="round"/><line x1="103.1" y1="228.1" x2="93.1" y2="233.2" stroke="#ee9d5a" stroke-width="7" stroke-linecap="round"/><ellipse cx="146.1" cy="206.5" rx="4" ry="4" fill="#e1e8ec" stroke="#182230" stroke-width="1.5"/><line x1="146.1" y1="206.5" x2="160.0" y2="230.2" stroke="#182230" stroke-width="10" stroke-linecap="round"/><line x1="146.1" y1="206.5" x2="160.0" y2="230.2" stroke="#ee9d5a" stroke-width="7" stroke-linecap="round"/><line x1="144.0" y1="231.5" x2="146.1" y2="206.5" stroke="#182230" stroke-width="12" stroke-linecap="round"/><line x1="144.0" y1="231.5" x2="146.1" y2="206.5" stroke="#ee9d5a" stroke-width="9" stroke-linecap="round"/><line x1="160.0" y1="232.2" x2="171.0" y2="238.2" stroke="#182230" stroke-width="10" stroke-linecap="round"/><line x1="160.0" y1="232.2" x2="171.0" y2="238.2" stroke="#ee9d5a" stroke-width="7" stroke-linecap="round"/><line x1="88.6" y1="229.1" x2="107.6" y2="230.5" stroke="#182230" stroke-width="10" stroke-linecap="round"/><line x1="88.6" y1="229.1" x2="107.6" y2="230.5" stroke="#b6c2cc" stroke-width="7" stroke-linecap="round"/><polygon points="98.2,221.8 97.1,237.7 143.6,239.0 144.4,227.0" fill="#b6c2cc" stroke="#182230" stroke-width="2" stroke-linejoin="round"/><ellipse cx="144.0" cy="233.0" rx="10" ry="7" fill="#637487" stroke="#182230" stroke-width="2"/><line x1="160.0" y1="235.8" x2="171.0" y2="241.8" stroke="#182230" stroke-width="10" stroke-linecap="round"/><line x1="160.0" y1="235.8" x2="171.0" y2="241.8" stroke="#5ab6f0" stroke-width="7" stroke-linecap="round"/><polygon points="103.1,226.2 108.1,230.7 106.1,236.7 99.1,235.2 98.1,230.7" fill="#246a9e" stroke="#182230" stroke-width="1.2"/><line x1="144.0" y1="234.5" x2="146.1" y2="214.0" stroke="#182230" stroke-width="12" stroke-linecap="round"/><line x1="144.0" y1="234.5" x2="146.1" y2="214.0" stroke="#5ab6f0" stroke-width="9" stroke-linecap="round"/><line x1="146.1" y1="214.0" x2="160.0" y2="233.8" stroke="#182230" stroke-width="10" stroke-linecap="round"/><line x1="146.1" y1="214.0" x2="160.0" y2="233.8" stroke="#5ab6f0" stroke-width="7" stroke-linecap="round"/><ellipse cx="146.1" cy="214.0" rx="4" ry="4" fill="#e1e8ec" stroke="#182230" stroke-width="1.5"/><line x1="103.1" y1="232.2" x2="93.2" y2="243.7" stroke="#182230" stroke-width="10" stroke-linecap="round"/><line x1="103.1" y1="232.2" x2="93.2" y2="243.7" stroke="#5ab6f0" stroke-width="7" stroke-linecap="round"/><line x1="93.2" y1="243.7" x2="78.1" y2="240.3" stroke="#182230" stroke-width="9" stroke-linecap="round"/><line x1="93.2" y1="243.7" x2="78.1" y2="240.3" stroke="#5ab6f0" stroke-width="6" stroke-linecap="round"/><ellipse cx="78.1" cy="240.3" rx="4" ry="5" fill="#5ab6f0" stroke="#182230" stroke-width="1.5"/><ellipse cx="70.4" cy="225.6" rx="21" ry="24" fill="#d2dbe1" stroke="#182230" stroke-width="2"/><ellipse cx="71.1" cy="210.4" rx="1.7" ry="2" fill="#182230"/><polygon points="72.8,206.7 77.7,201.5 79.7,207.9" fill="#d2dbe1" stroke="#182230" stroke-width="1"/></g><text x="584" y="310" font-size="16" font-weight="700" fill="#c4d2df">2. 膝を閉じる</text><foreignObject x="582" y="318" width="276" height="110"><div xmlns="http://www.w3.org/1999/xhtml" style="font:12px sans-serif;color:#8797a6;line-height:1.35">draws her knees together<br/>110ms</div></foreignObject><g transform="translate(864,0)"><rect width="288" height="288" fill="#19202a" stroke="#2c3542"/><line x1="24" y1="40" x2="24" y2="288" stroke="#222b37"/><line x1="48" y1="40" x2="48" y2="288" stroke="#222b37"/><line x1="72" y1="40" x2="72" y2="288" stroke="#222b37"/><line x1="96" y1="40" x2="96" y2="288" stroke="#222b37"/><line x1="120" y1="40" x2="120" y2="288" stroke="#222b37"/><line x1="144" y1="40" x2="144" y2="288" stroke="#222b37"/><line x1="168" y1="40" x2="168" y2="288" stroke="#222b37"/><line x1="192" y1="40" x2="192" y2="288" stroke="#222b37"/><line x1="216" y1="40" x2="216" y2="288" stroke="#222b37"/><line x1="240" y1="40" x2="240" y2="288" stroke="#222b37"/><line x1="264" y1="40" x2="264" y2="288" stroke="#222b37"/><line x1="0" y1="48" x2="288" y2="48" stroke="#222b37"/><line x1="0" y1="72" x2="288" y2="72" stroke="#222b37"/><line x1="0" y1="96" x2="288" y2="96" stroke="#222b37"/><line x1="0" y1="120" x2="288" y2="120" stroke="#222b37"/><line x1="0" y1="144" x2="288" y2="144" stroke="#222b37"/><line x1="0" y1="168" x2="288" y2="168" stroke="#222b37"/><line x1="0" y1="192" x2="288" y2="192" stroke="#222b37"/><line x1="0" y1="216" x2="288" y2="216" stroke="#222b37"/><line x1="0" y1="240" x2="288" y2="240" stroke="#222b37"/><line x1="0" y1="264" x2="288" y2="264" stroke="#222b37"/><polyline points="145.0,240.0 145.0,240.0 145.0,240.0 138.0,240.0 131.0,240.0" fill="none" stroke="#ff7a7a" stroke-width="1" stroke-dasharray="3 3" opacity=".6"/><circle cx="138.0" cy="240.0" r="3" fill="#ff7a7a"/><ellipse cx="137.0" cy="242" rx="30" ry="6" fill="#0a0f15"/><ellipse cx="71.1" cy="227.1" rx="4" ry="5" fill="#ee9d5a" stroke="#182230" stroke-width="1.5"/><line x1="86.1" y1="233.2" x2="71.1" y2="227.1" stroke="#182230" stroke-width="9" stroke-linecap="round"/><line x1="86.1" y1="233.2" x2="71.1" y2="227.1" stroke="#ee9d5a" stroke-width="6" stroke-linecap="round"/><line x1="96.1" y1="228.1" x2="86.1" y2="233.2" stroke="#182230" stroke-width="10" stroke-linecap="round"/><line x1="96.1" y1="228.1" x2="86.1" y2="233.2" stroke="#ee9d5a" stroke-width="7" stroke-linecap="round"/><line x1="143.3" y1="206.1" x2="158.0" y2="230.2" stroke="#182230" stroke-width="10" stroke-linecap="round"/><line x1="143.3" y1="206.1" x2="158.0" y2="230.2" stroke="#ee9d5a" stroke-width="7" stroke-linecap="round"/><line x1="137.0" y1="231.5" x2="143.3" y2="206.1" stroke="#182230" stroke-width="12" stroke-linecap="round"/><line x1="137.0" y1="231.5" x2="143.3" y2="206.1" stroke="#ee9d5a" stroke-width="9" stroke-linecap="round"/><ellipse cx="143.3" cy="206.1" rx="4" ry="4" fill="#e1e8ec" stroke="#182230" stroke-width="1.5"/><line x1="158.0" y1="232.2" x2="169.0" y2="238.2" stroke="#182230" stroke-width="10" stroke-linecap="round"/><line x1="158.0" y1="232.2" x2="169.0" y2="238.2" stroke="#ee9d5a" stroke-width="7" stroke-linecap="round"/><line x1="81.6" y1="229.1" x2="100.6" y2="230.5" stroke="#182230" stroke-width="10" stroke-linecap="round"/><line x1="81.6" y1="229.1" x2="100.6" y2="230.5" stroke="#b6c2cc" stroke-width="7" stroke-linecap="round"/><polygon points="91.2,221.8 90.1,237.7 136.6,239.0 137.4,227.0" fill="#b6c2cc" stroke="#182230" stroke-width="2" stroke-linejoin="round"/><ellipse cx="137.0" cy="233.0" rx="10" ry="7" fill="#637487" stroke="#182230" stroke-width="2"/><line x1="158.0" y1="235.8" x2="169.0" y2="241.8" stroke="#182230" stroke-width="10" stroke-linecap="round"/><line x1="158.0" y1="235.8" x2="169.0" y2="241.8" stroke="#5ab6f0" stroke-width="7" stroke-linecap="round"/><polygon points="96.1,226.2 101.1,230.7 99.1,236.7 92.1,235.2 91.1,230.7" fill="#246a9e" stroke="#182230" stroke-width="1.2"/><line x1="137.0" y1="234.5" x2="143.3" y2="212.0" stroke="#182230" stroke-width="12" stroke-linecap="round"/><line x1="137.0" y1="234.5" x2="143.3" y2="212.0" stroke="#5ab6f0" stroke-width="9" stroke-linecap="round"/><line x1="143.3" y1="212.0" x2="158.0" y2="233.8" stroke="#182230" stroke-width="10" stroke-linecap="round"/><line x1="143.3" y1="212.0" x2="158.0" y2="233.8" stroke="#5ab6f0" stroke-width="7" stroke-linecap="round"/><ellipse cx="143.3" cy="212.0" rx="4" ry="4" fill="#e1e8ec" stroke="#182230" stroke-width="1.5"/><line x1="96.1" y1="232.2" x2="86.2" y2="243.7" stroke="#182230" stroke-width="10" stroke-linecap="round"/><line x1="96.1" y1="232.2" x2="86.2" y2="243.7" stroke="#5ab6f0" stroke-width="7" stroke-linecap="round"/><line x1="86.2" y1="243.7" x2="71.1" y2="240.3" stroke="#182230" stroke-width="9" stroke-linecap="round"/><line x1="86.2" y1="243.7" x2="71.1" y2="240.3" stroke="#5ab6f0" stroke-width="6" stroke-linecap="round"/><ellipse cx="71.1" cy="240.3" rx="4" ry="5" fill="#5ab6f0" stroke="#182230" stroke-width="1.5"/><ellipse cx="63.2" cy="227.0" rx="21" ry="24" fill="#d2dbe1" stroke="#182230" stroke-width="2"/><ellipse cx="62.8" cy="211.9" rx="1.7" ry="2" fill="#182230"/><polygon points="64.2,208.0 68.8,202.4 71.2,208.7" fill="#d2dbe1" stroke="#182230" stroke-width="1"/></g><text x="872" y="310" font-size="16" font-weight="700" fill="#c4d2df">3. …</text><foreignObject x="870" y="318" width="276" height="110"><div xmlns="http://www.w3.org/1999/xhtml" style="font:12px sans-serif;color:#8797a6;line-height:1.35"><br/>110ms</div></foreignObject><g transform="translate(1152,0)"><rect width="288" height="288" fill="#19202a" stroke="#2c3542"/><line x1="24" y1="40" x2="24" y2="288" stroke="#222b37"/><line x1="48" y1="40" x2="48" y2="288" stroke="#222b37"/><line x1="72" y1="40" x2="72" y2="288" stroke="#222b37"/><line x1="96" y1="40" x2="96" y2="288" stroke="#222b37"/><line x1="120" y1="40" x2="120" y2="288" stroke="#222b37"/><line x1="144" y1="40" x2="144" y2="288" stroke="#222b37"/><line x1="168" y1="40" x2="168" y2="288" stroke="#222b37"/><line x1="192" y1="40" x2="192" y2="288" stroke="#222b37"/><line x1="216" y1="40" x2="216" y2="288" stroke="#222b37"/><line x1="240" y1="40" x2="240" y2="288" stroke="#222b37"/><line x1="264" y1="40" x2="264" y2="288" stroke="#222b37"/><line x1="0" y1="48" x2="288" y2="48" stroke="#222b37"/><line x1="0" y1="72" x2="288" y2="72" stroke="#222b37"/><line x1="0" y1="96" x2="288" y2="96" stroke="#222b37"/><line x1="0" y1="120" x2="288" y2="120" stroke="#222b37"/><line x1="0" y1="144" x2="288" y2="144" stroke="#222b37"/><line x1="0" y1="168" x2="288" y2="168" stroke="#222b37"/><line x1="0" y1="192" x2="288" y2="192" stroke="#222b37"/><line x1="0" y1="216" x2="288" y2="216" stroke="#222b37"/><line x1="0" y1="240" x2="288" y2="240" stroke="#222b37"/><line x1="0" y1="264" x2="288" y2="264" stroke="#222b37"/><polyline points="145.0,240.0 145.0,240.0 145.0,240.0 138.0,240.0 131.0,240.0" fill="none" stroke="#ff7a7a" stroke-width="1" stroke-dasharray="3 3" opacity=".6"/><circle cx="131.0" cy="240.0" r="3" fill="#ff7a7a"/><ellipse cx="130.0" cy="242" rx="30" ry="6" fill="#0a0f15"/><ellipse cx="64.1" cy="227.1" rx="4" ry="5" fill="#ee9d5a" stroke="#182230" stroke-width="1.5"/><line x1="79.1" y1="233.2" x2="64.1" y2="227.1" stroke="#182230" stroke-width="9" stroke-linecap="round"/><line x1="79.1" y1="233.2" x2="64.1" y2="227.1" stroke="#ee9d5a" stroke-width="6" stroke-linecap="round"/><line x1="89.1" y1="228.1" x2="79.1" y2="233.2" stroke="#182230" stroke-width="10" stroke-linecap="round"/><line x1="89.1" y1="228.1" x2="79.1" y2="233.2" stroke="#ee9d5a" stroke-width="7" stroke-linecap="round"/><line x1="139.9" y1="207.0" x2="156.0" y2="230.2" stroke="#182230" stroke-width="10" stroke-linecap="round"/><line x1="139.9" y1="207.0" x2="156.0" y2="230.2" stroke="#ee9d5a" stroke-width="7" stroke-linecap="round"/><line x1="130.0" y1="231.5" x2="139.9" y2="207.0" stroke="#182230" stroke-width="12" stroke-linecap="round"/><line x1="130.0" y1="231.5" x2="139.9" y2="207.0" stroke="#ee9d5a" stroke-width="9" stroke-linecap="round"/><line x1="156.0" y1="232.2" x2="167.0" y2="238.2" stroke="#182230" stroke-width="10" stroke-linecap="round"/><line x1="156.0" y1="232.2" x2="167.0" y2="238.2" stroke="#ee9d5a" stroke-width="7" stroke-linecap="round"/><ellipse cx="139.9" cy="207.0" rx="4" ry="4" fill="#e1e8ec" stroke="#182230" stroke-width="1.5"/><line x1="74.6" y1="229.1" x2="93.6" y2="230.5" stroke="#182230" stroke-width="10" stroke-linecap="round"/><line x1="74.6" y1="229.1" x2="93.6" y2="230.5" stroke="#b6c2cc" stroke-width="7" stroke-linecap="round"/><polygon points="84.2,221.8 83.1,237.7 129.6,239.0 130.4,227.0" fill="#b6c2cc" stroke="#182230" stroke-width="2" stroke-linejoin="round"/><ellipse cx="130.0" cy="233.0" rx="10" ry="7" fill="#637487" stroke="#182230" stroke-width="2"/><line x1="156.0" y1="235.8" x2="167.0" y2="241.8" stroke="#182230" stroke-width="10" stroke-linecap="round"/><line x1="156.0" y1="235.8" x2="167.0" y2="241.8" stroke="#5ab6f0" stroke-width="7" stroke-linecap="round"/><line x1="130.0" y1="234.5" x2="139.9" y2="211.3" stroke="#182230" stroke-width="12" stroke-linecap="round"/><line x1="130.0" y1="234.5" x2="139.9" y2="211.3" stroke="#5ab6f0" stroke-width="9" stroke-linecap="round"/><line x1="139.9" y1="211.3" x2="156.0" y2="233.8" stroke="#182230" stroke-width="10" stroke-linecap="round"/><line x1="139.9" y1="211.3" x2="156.0" y2="233.8" stroke="#5ab6f0" stroke-width="7" stroke-linecap="round"/><polygon points="89.1,226.2 94.1,230.7 92.1,236.7 85.1,235.2 84.1,230.7" fill="#246a9e" stroke="#182230" stroke-width="1.2"/><ellipse cx="139.9" cy="211.3" rx="4" ry="4" fill="#e1e8ec" stroke="#182230" stroke-width="1.5"/><line x1="89.1" y1="232.2" x2="79.2" y2="243.7" stroke="#182230" stroke-width="10" stroke-linecap="round"/><line x1="89.1" y1="232.2" x2="79.2" y2="243.7" stroke="#5ab6f0" stroke-width="7" stroke-linecap="round"/><line x1="79.2" y1="243.7" x2="64.1" y2="240.3" stroke="#182230" stroke-width="9" stroke-linecap="round"/><line x1="79.2" y1="243.7" x2="64.1" y2="240.3" stroke="#5ab6f0" stroke-width="6" stroke-linecap="round"/><ellipse cx="64.1" cy="240.3" rx="4" ry="5" fill="#5ab6f0" stroke="#182230" stroke-width="1.5"/><ellipse cx="56.1" cy="228.4" rx="21" ry="24" fill="#d2dbe1" stroke="#182230" stroke-width="2"/><ellipse cx="54.7" cy="213.4" rx="1.7" ry="2" fill="#182230"/><polygon points="55.8,209.4 60.0,203.5 62.8,209.6" fill="#d2dbe1" stroke="#182230" stroke-width="1"/></g><text x="1160" y="310" font-size="16" font-weight="700" fill="#c4d2df">4. get_up</text><foreignObject x="1158" y="318" width="276" height="110"><div xmlns="http://www.w3.org/1999/xhtml" style="font:12px sans-serif;color:#8797a6;line-height:1.35">の最初へ ready to get up (get_up frame 0)<br/>110ms</div></foreignObject></svg>