<svg xmlns="http://www.w3.org/2000/svg" viewBox="0 0 2304 438" width="1728" height="328.5" font-family="sans-serif"><rect width="2304" height="438" fill="#121821"/><g transform="translate(0,0)"><rect width="288" height="288" fill="#19202a" stroke="#2c3542"/><line x1="24" y1="40" x2="24" y2="288" stroke="#222b37"/><line x1="48" y1="40" x2="48" y2="288" stroke="#222b37"/><line x1="72" y1="40" x2="72" y2="288" stroke="#222b37"/><line x1="96" y1="40" x2="96" y2="288" stroke="#222b37"/><line x1="120" y1="40" x2="120" y2="288" stroke="#222b37"/><line x1="144" y1="40" x2="144" y2="288" stroke="#222b37"/><line x1="168" y1="40" x2="168" y2="288" stroke="#222b37"/><line x1="192" y1="40" x2="192" y2="288" stroke="#222b37"/><line x1="216" y1="40" x2="216" y2="288" stroke="#222b37"/><line x1="240" y1="40" x2="240" y2="288" stroke="#222b37"/><line x1="264" y1="40" x2="264" y2="288" stroke="#222b37"/><line x1="0" y1="48" x2="288" y2="48" stroke="#222b37"/><line x1="0" y1="72" x2="288" y2="72" stroke="#222b37"/><line x1="0" y1="96" x2="288" y2="96" stroke="#222b37"/><line x1="0" y1="120" x2="288" y2="120" stroke="#222b37"/><line x1="0" y1="144" x2="288" y2="144" stroke="#222b37"/><line x1="0" y1="168" x2="288" y2="168" stroke="#222b37"/><line x1="0" y1="192" x2="288" y2="192" stroke="#222b37"/><line x1="0" y1="216" x2="288" y2="216" stroke="#222b37"/><line x1="0" y1="240" x2="288" y2="240" stroke="#222b37"/><line x1="0" y1="264" x2="288" y2="264" stroke="#222b37"/><polyline points="142.9,199.0 144.0,200.2 144.0,203.8 144.0,212.5 144.0,222.9 144.0,231.5 144.0,235.2 144.0,235.2" fill="none" stroke="#ff7a7a" stroke-width="1" stroke-dasharray="3 3" opacity=".6"/><circle cx="142.9" cy="199.0" r="3" fill="#ff7a7a"/><ellipse cx="142.9" cy="242" rx="30" ry="6" fill="#0a0f15"/><line x1="123.4" y1="233.4" x2="116.9" y2="241.9" stroke="#182230" stroke-width="10" stroke-linecap="round"/><line x1="123.4" y1="233.4" x2="116.9" y2="241.9" stroke="#5ab6f0" stroke-width="7" stroke-linecap="round"/><line x1="164.6" y1="233.4" x2="171.1" y2="241.9" stroke="#182230" stroke-width="10" stroke-linecap="round"/><line x1="164.6" y1="233.4" x2="171.1" y2="241.9" stroke="#ee9d5a" stroke-width="7" stroke-linecap="round"/><line x1="143.7" y1="135.6" x2="143.9" y2="154.8" stroke="#182230" stroke-width="10" stroke-linecap="round"/><line x1="143.7" y1="135.6" x2="143.9" y2="154.8" stroke="#b6c2cc" stroke-width="7" stroke-linecap="round"/><polygon points="157.1,145.2 131.2,144.5 133.9,191.6 151.9,192.0" fill="#b6c2cc" stroke="#182230" stroke-width="2" stroke-linejoin="round"/><ellipse cx="142.9" cy="191.8" rx="10" ry="7" fill="#637487" stroke="#182230" stroke-width="2"/><ellipse cx="142.7" cy="115.2" rx="21" ry="24" fill="#d2dbe1" stroke="#182230" stroke-width="2"/><path d="M133.2,113.2 Q135.7,114.7 138.1,113.0" fill="none" stroke="#182230" stroke-width="1.4"/><path d="M147.1,112.6 Q149.7,114.0 152.1,112.3" fill="none" stroke="#182230" stroke-width="1.4"/><ellipse cx="143.0" cy="120.7" rx="2.6" ry="3.2" fill="#7a3b4a" stroke="#182230" stroke-width="1"/><line x1="132.4" y1="149.2" x2="118.1" y2="166.3" stroke="#182230" stroke-width="10" stroke-linecap="round"/><line x1="132.4" y1="149.2" x2="118.1" y2="166.3" stroke="#5ab6f0" stroke-width="7" stroke-linecap="round"/><line x1="155.4" y1="149.2" x2="170.6" y2="165.9" stroke="#182230" stroke-width="10" stroke-linecap="round"/><line x1="155.4" y1="149.2" x2="170.6" y2="165.9" stroke="#ee9d5a" stroke-width="7" stroke-linecap="round"/><polygon points="132.4,143.2 137.4,147.7 135.4,153.7 128.4,152.2 127.4,147.7" fill="#246a9e" stroke="#182230" stroke-width="1.2"/><line x1="118.1" y1="166.3" x2="119.8" y2="183.0" stroke="#182230" stroke-width="9" stroke-linecap="round"/><line x1="118.1" y1="166.3" x2="119.8" y2="183.0" stroke="#5ab6f0" stroke-width="6" stroke-linecap="round"/><line x1="170.6" y1="165.9" x2="168.0" y2="183.0" stroke="#182230" stroke-width="9" stroke-linecap="round"/><line x1="170.6" y1="165.9" x2="168.0" y2="183.0" stroke="#ee9d5a" stroke-width="6" stroke-linecap="round"/><ellipse cx="119.8" cy="183.0" rx="4" ry="5" fill="#5ab6f0" stroke="#182230" stroke-width="1.5"/><ellipse cx="168.0" cy="183.0" rx="4" ry="5" fill="#ee9d5a" stroke="#182230" stroke-width="1.5"/><line x1="134.4" y1="191.8" x2="113.8" y2="206.7" stroke="#182230" stroke-width="12" stroke-linecap="round"/><line x1="134.4" y1="191.8" x2="113.8" y2="206.7" stroke="#5ab6f0" stroke-width="9" stroke-linecap="round"/><line x1="151.4" y1="191.8" x2="172.1" y2="206.3" stroke="#182230" stroke-width="12" stroke-linecap="round"/><line x1="151.4" y1="191.8" x2="172.1" y2="206.3" stroke="#ee9d5a" stroke-width="9" stroke-linecap="round"/><line x1="113.8" y1="206.7" x2="123.4" y2="231.4" stroke="#182230" stroke-width="10" stroke-linecap="round"/><line x1="113.8" y1="206.7" x2="123.4" y2="231.4" stroke="#5ab6f0" stroke-width="7" stroke-linecap="round"/><line x1="172.1" y1="206.3" x2="164.6" y2="231.4" stroke="#182230" stroke-width="10" stroke-linecap="round"/><line x1="172.1" y1="206.3" x2="164.6" y2="231.4" stroke="#ee9d5a" stroke-width="7" stroke-linecap="round"/><ellipse cx="113.8" cy="206.7" rx="4" ry="4" fill="#e1e8ec" stroke="#182230" stroke-width="1.5"/><ellipse cx="172.1" cy="206.3" rx="4" ry="4" fill="#e1e8ec" stroke="#182230" stroke-width="1.5"/></g><text x="8" y="310" font-size="16" font-weight="700" fill="#c4d2df">0. （前）chain_splay</text><foreignObject x="6" y="318" width="276" height="110"><div xmlns="http://www.w3.org/1999/xhtml" style="font:12px sans-serif;color:#8797a6;line-height:1.35"><br/>55ms</div></foreignObject><g transform="translate(288,0)"><rect width="288" height="288" fill="#19202a" stroke="#2c3542"/><line x1="24" y1="40" x2="24" y2="288" stroke="#222b37"/><line x1="48" y1="40" x2="48" y2="288" stroke="#222b37"/><line x1="72" y1="40" x2="72" y2="288" stroke="#222b37"/><line x1="96" y1="40" x2="96" y2="288" stroke="#222b37"/><line x1="120" y1="40" x2="120" y2="288" stroke="#222b37"/><line x1="144" y1="40" x2="144" y2="288" stroke="#222b37"/><line x1="168" y1="40" x2="168" y2="288" stroke="#222b37"/><line x1="192" y1="40" x2="192" y2="288" stroke="#222b37"/><line x1="216" y1="40" x2="216" y2="288" stroke="#222b37"/><line x1="240" y1="40" x2="240" y2="288" stroke="#222b37"/><line x1="264" y1="40" x2="264" y2="288" stroke="#222b37"/><line x1="0" y1="48" x2="288" y2="48" stroke="#222b37"/><line x1="0" y1="72" x2="288" y2="72" stroke="#222b37"/><line x1="0" y1="96" x2="288" y2="96" stroke="#222b37"/><line x1="0" y1="120" x2="288" y2="120" stroke="#222b37"/><line x1="0" y1="144" x2="288" y2="144" stroke="#222b37"/><line x1="0" y1="168" x2="288" y2="168" stroke="#222b37"/><line x1="0" y1="192" x2="288" y2="192" stroke="#222b37"/><line x1="0" y1="216" x2="288" y2="216" stroke="#222b37"/><line x1="0" y1="240" x2="288" y2="240" stroke="#222b37"/><line x1="0" y1="264" x2="288" y2="264" stroke="#222b37"/><polyline points="142.9,199.0 144.0,200.2 144.0,203.8 144.0,212.5 144.0,222.9 144.0,231.5 144.0,235.2 144.0,235.2" fill="none" stroke="#ff7a7a" stroke-width="1" stroke-dasharray="3 3" opacity=".6"/><circle cx="144.0" cy="200.2" r="3" fill="#ff7a7a"/><ellipse cx="144.0" cy="242" rx="30" ry="6" fill="#0a0f15"/><line x1="123.4" y1="233.4" x2="116.9" y2="241.9" stroke="#182230" stroke-width="10" stroke-linecap="round"/><line x1="123.4" y1="233.4" x2="116.9" y2="241.9" stroke="#5ab6f0" stroke-width="7" stroke-linecap="round"/><line x1="164.6" y1="233.4" x2="171.1" y2="241.9" stroke="#182230" stroke-width="10" stroke-linecap="round"/><line x1="164.6" y1="233.4" x2="171.1" y2="241.9" stroke="#ee9d5a" stroke-width="7" stroke-linecap="round"/><line x1="144.0" y1="136.8" x2="144.0" y2="156.0" stroke="#182230" stroke-width="10" stroke-linecap="round"/><line x1="144.0" y1="136.8" x2="144.0" y2="156.0" stroke="#b6c2cc" stroke-width="7" stroke-linecap="round"/><polygon points="157.0,146.0 131.0,146.0 135.0,193.0 153.0,193.0" fill="#b6c2cc" stroke="#182230" stroke-width="2" stroke-linejoin="round"/><ellipse cx="144.0" cy="193.0" rx="10" ry="7" fill="#637487" stroke="#182230" stroke-width="2"/><ellipse cx="144.0" cy="116.4" rx="21" ry="24" fill="#d2dbe1" stroke="#182230" stroke-width="2"/><path d="M134.5,113.9 Q137.0,115.6 139.5,113.9" fill="none" stroke="#182230" stroke-width="1.4"/><path d="M148.5,113.9 Q151.0,115.6 153.5,113.9" fill="none" stroke="#182230" stroke-width="1.4"/><ellipse cx="144.0" cy="121.9" rx="2.6" ry="3.2" fill="#7a3b4a" stroke="#182230" stroke-width="1"/><line x1="132.5" y1="151.5" x2="118.2" y2="168.6" stroke="#182230" stroke-width="10" stroke-linecap="round"/><line x1="132.5" y1="151.5" x2="118.2" y2="168.6" stroke="#5ab6f0" stroke-width="7" stroke-linecap="round"/><line x1="155.5" y1="151.5" x2="170.7" y2="168.2" stroke="#182230" stroke-width="10" stroke-linecap="round"/><line x1="155.5" y1="151.5" x2="170.7" y2="168.2" stroke="#ee9d5a" stroke-width="7" stroke-linecap="round"/><polygon points="132.5,145.5 137.5,150.0 135.5,156.0 128.5,154.5 127.5,150.0" fill="#246a9e" stroke="#182230" stroke-width="1.2"/><line x1="118.2" y1="168.6" x2="119.9" y2="185.2" stroke="#182230" stroke-width="9" stroke-linecap="round"/><line x1="118.2" y1="168.6" x2="119.9" y2="185.2" stroke="#5ab6f0" stroke-width="6" stroke-linecap="round"/><line x1="170.7" y1="168.2" x2="168.1" y2="185.2" stroke="#182230" stroke-width="9" stroke-linecap="round"/><line x1="170.7" y1="168.2" x2="168.1" y2="185.2" stroke="#ee9d5a" stroke-width="6" stroke-linecap="round"/><ellipse cx="119.9" cy="185.2" rx="4" ry="5" fill="#5ab6f0" stroke="#182230" stroke-width="1.5"/><ellipse cx="168.1" cy="185.2" rx="4" ry="5" fill="#ee9d5a" stroke="#182230" stroke-width="1.5"/><line x1="135.5" y1="193.0" x2="114.3" y2="206.8" stroke="#182230" stroke-width="12" stroke-linecap="round"/><line x1="135.5" y1="193.0" x2="114.3" y2="206.8" stroke="#5ab6f0" stroke-width="9" stroke-linecap="round"/><line x1="152.5" y1="193.0" x2="173.7" y2="206.8" stroke="#182230" stroke-width="12" stroke-linecap="round"/><line x1="152.5" y1="193.0" x2="173.7" y2="206.8" stroke="#ee9d5a" stroke-width="9" stroke-linecap="round"/><line x1="114.3" y1="206.8" x2="123.4" y2="231.4" stroke="#182230" stroke-width="10" stroke-linecap="round"/><line x1="114.3" y1="206.8" x2="123.4" y2="231.4" stroke="#5ab6f0" stroke-width="7" stroke-linecap="round"/><line x1="173.7" y1="206.8" x2="164.6" y2="231.4" stroke="#182230" stroke-width="10" stroke-linecap="round"/><line x1="173.7" y1="206.8" x2="164.6" y2="231.4" stroke="#ee9d5a" stroke-width="7" stroke-linecap="round"/><ellipse cx="114.3" cy="206.8" rx="4" ry="4" fill="#e1e8ec" stroke="#182230" stroke-width="1.5"/><ellipse cx="173.7" cy="206.8" rx="4" ry="4" fill="#e1e8ec" stroke="#182230" stroke-width="1.5"/></g><text x="296" y="310" font-size="16" font-weight="700" fill="#c4d2df">1. （前）chain_splay</text><foreignObject x="294" y="318" width="276" height="110"><div xmlns="http://www.w3.org/1999/xhtml" style="font:12px sans-serif;color:#8797a6;line-height:1.35"><br/>55ms</div></foreignObject><g transform="translate(576,0)"><rect width="288" height="288" fill="#19202a" stroke="#2c3542"/><line x1="24" y1="40" x2="24" y2="288" stroke="#222b37"/><line x1="48" y1="40" x2="48" y2="288" stroke="#222b37"/><line x1="72" y1="40" x2="72" y2="288" stroke="#222b37"/><line x1="96" y1="40" x2="96" y2="288" stroke="#222b37"/><line x1="120" y1="40" x2="120" y2="288" stroke="#222b37"/><line x1="144" y1="40" x2="144" y2="288" stroke="#222b37"/><line x1="168" y1="40" x2="168" y2="288" stroke="#222b37"/><line x1="192" y1="40" x2="192" y2="288" stroke="#222b37"/><line x1="216" y1="40" x2="216" y2="288" stroke="#222b37"/><line x1="240" y1="40" x2="240" y2="288" stroke="#222b37"/><line x1="264" y1="40" x2="264" y2="288" stroke="#222b37"/><line x1="0" y1="48" x2="288" y2="48" stroke="#222b37"/><line x1="0" y1="72" x2="288" y2="72" stroke="#222b37"/><line x1="0" y1="96" x2="288" y2="96" stroke="#222b37"/><line x1="0" y1="120" x2="288" y2="120" stroke="#222b37"/><line x1="0" y1="144" x2="288" y2="144" stroke="#222b37"/><line x1="0" y1="168" x2="288" y2="168" stroke="#222b37"/><line x1="0" y1="192" x2="288" y2="192" stroke="#222b37"/><line x1="0" y1="216" x2="288" y2="216" stroke="#222b37"/><line x1="0" y1="240" x2="288" y2="240" stroke="#222b37"/><line x1="0" y1="264" x2="288" y2="264" stroke="#222b37"/><polyline points="142.9,199.0 144.0,200.2 144.0,203.8 144.0,212.5 144.0,222.9 144.0,231.5 144.0,235.2 144.0,235.2" fill="none" stroke="#ff7a7a" stroke-width="1" stroke-dasharray="3 3" opacity=".6"/><circle cx="144.0" cy="203.8" r="3" fill="#ff7a7a"/><ellipse cx="144.0" cy="242" rx="30" ry="6" fill="#0a0f15"/><line x1="123.7" y1="234.0" x2="117.0" y2="243.3" stroke="#182230" stroke-width="10" stroke-linecap="round"/><line x1="123.7" y1="234.0" x2="117.0" y2="243.3" stroke="#5ab6f0" stroke-width="7" stroke-linecap="round"/><line x1="164.3" y1="234.0" x2="171.0" y2="243.3" stroke="#182230" stroke-width="10" stroke-linecap="round"/><line x1="164.3" y1="234.0" x2="171.0" y2="243.3" stroke="#ee9d5a" stroke-width="7" stroke-linecap="round"/><line x1="144.0" y1="140.5" x2="144.0" y2="159.7" stroke="#182230" stroke-width="10" stroke-linecap="round"/><line x1="144.0" y1="140.5" x2="144.0" y2="159.7" stroke="#b6c2cc" stroke-width="7" stroke-linecap="round"/><polygon points="157.0,149.7 131.0,149.7 135.0,196.6 153.0,196.6" fill="#b6c2cc" stroke="#182230" stroke-width="2" stroke-linejoin="round"/><ellipse cx="144.0" cy="196.6" rx="10" ry="7" fill="#637487" stroke="#182230" stroke-width="2"/><ellipse cx="144.2" cy="120.0" rx="21" ry="24" fill="#d2dbe1" stroke="#182230" stroke-width="2"/><path d="M134.7,118.2 Q137.2,119.8 139.7,118.2" fill="none" stroke="#182230" stroke-width="1.4"/><path d="M148.7,118.3 Q151.2,120.0 153.7,118.4" fill="none" stroke="#182230" stroke-width="1.4"/><ellipse cx="144.1" cy="126.3" rx="2.6" ry="3.2" fill="#7a3b4a" stroke="#182230" stroke-width="1"/><line x1="132.5" y1="155.2" x2="118.4" y2="172.6" stroke="#182230" stroke-width="10" stroke-linecap="round"/><line x1="132.5" y1="155.2" x2="118.4" y2="172.6" stroke="#5ab6f0" stroke-width="7" stroke-linecap="round"/><polygon points="132.5,149.2 137.5,153.7 135.5,159.7 128.5,158.2 127.5,153.7" fill="#246a9e" stroke="#182230" stroke-width="1.2"/><line x1="155.5" y1="155.2" x2="170.3" y2="172.2" stroke="#182230" stroke-width="10" stroke-linecap="round"/><line x1="155.5" y1="155.2" x2="170.3" y2="172.2" stroke="#ee9d5a" stroke-width="7" stroke-linecap="round"/><line x1="118.4" y1="172.6" x2="121.1" y2="188.9" stroke="#182230" stroke-width="9" stroke-linecap="round"/><line x1="118.4" y1="172.6" x2="121.1" y2="188.9" stroke="#5ab6f0" stroke-width="6" stroke-linecap="round"/><line x1="170.3" y1="172.2" x2="166.9" y2="188.9" stroke="#182230" stroke-width="9" stroke-linecap="round"/><line x1="170.3" y1="172.2" x2="166.9" y2="188.9" stroke="#ee9d5a" stroke-width="6" stroke-linecap="round"/><ellipse cx="166.9" cy="188.9" rx="4" ry="5" fill="#ee9d5a" stroke="#182230" stroke-width="1.5"/><ellipse cx="121.1" cy="188.9" rx="4" ry="5" fill="#5ab6f0" stroke="#182230" stroke-width="1.5"/><line x1="135.5" y1="196.6" x2="114.7" y2="209.1" stroke="#182230" stroke-width="12" stroke-linecap="round"/><line x1="135.5" y1="196.6" x2="114.7" y2="209.1" stroke="#5ab6f0" stroke-width="9" stroke-linecap="round"/><line x1="152.5" y1="196.6" x2="173.3" y2="209.1" stroke="#182230" stroke-width="12" stroke-linecap="round"/><line x1="152.5" y1="196.6" x2="173.3" y2="209.1" stroke="#ee9d5a" stroke-width="9" stroke-linecap="round"/><line x1="114.7" y1="209.1" x2="123.7" y2="232.0" stroke="#182230" stroke-width="10" stroke-linecap="round"/><line x1="114.7" y1="209.1" x2="123.7" y2="232.0" stroke="#5ab6f0" stroke-width="7" stroke-linecap="round"/><line x1="173.3" y1="209.1" x2="164.3" y2="232.0" stroke="#182230" stroke-width="10" stroke-linecap="round"/><line x1="173.3" y1="209.1" x2="164.3" y2="232.0" stroke="#ee9d5a" stroke-width="7" stroke-linecap="round"/><ellipse cx="114.7" cy="209.1" rx="4" ry="4" fill="#e1e8ec" stroke="#182230" stroke-width="1.5"/><ellipse cx="173.3" cy="209.1" rx="4" ry="4" fill="#e1e8ec" stroke="#182230" stroke-width="1.5"/></g><text x="584" y="310" font-size="16" font-weight="700" fill="#c4d2df">2. つなぎ</text><foreignObject x="582" y="318" width="276" height="110"><div xmlns="http://www.w3.org/1999/xhtml" style="font:12px sans-serif;color:#8797a6;line-height:1.35">chain_splay → sit_afterglow<br/>70ms</div></foreignObject><g transform="translate(864,0)"><rect width="288" height="288" fill="#19202a" stroke="#2c3542"/><line x1="24" y1="40" x2="24" y2="288" stroke="#222b37"/><line x1="48" y1="40" x2="48" y2="288" stroke="#222b37"/><line x1="72" y1="40" x2="72" y2="288" stroke="#222b37"/><line x1="96" y1="40" x2="96" y2="288" stroke="#222b37"/><line x1="120" y1="40" x2="120" y2="288" stroke="#222b37"/><line x1="144" y1="40" x2="144" y2="288" stroke="#222b37"/><line x1="168" y1="40" x2="168" y2="288" stroke="#222b37"/><line x1="192" y1="40" x2="192" y2="288" stroke="#222b37"/><line x1="216" y1="40" x2="216" y2="288" stroke="#222b37"/><line x1="240" y1="40" x2="240" y2="288" stroke="#222b37"/><line x1="264" y1="40" x2="264" y2="288" stroke="#222b37"/><line x1="0" y1="48" x2="288" y2="48" stroke="#222b37"/><line x1="0" y1="72" x2="288" y2="72" stroke="#222b37"/><line x1="0" y1="96" x2="288" y2="96" stroke="#222b37"/><line x1="0" y1="120" x2="288" y2="120" stroke="#222b37"/><line x1="0" y1="144" x2="288" y2="144" stroke="#222b37"/><line x1="0" y1="168" x2="288" y2="168" stroke="#222b37"/><line x1="0" y1="192" x2="288" y2="192" stroke="#222b37"/><line x1="0" y1="216" x2="288" y2="216" stroke="#222b37"/><line x1="0" y1="240" x2="288" y2="240" stroke="#222b37"/><line x1="0" y1="264" x2="288" y2="264" stroke="#222b37"/><polyline points="142.9,199.0 144.0,200.2 144.0,203.8 144.0,212.5 144.0,222.9 144.0,231.5 144.0,235.2 144.0,235.2" fill="none" stroke="#ff7a7a" stroke-width="1" stroke-dasharray="3 3" opacity=".6"/><circle cx="144.0" cy="212.5" r="3" fill="#ff7a7a"/><ellipse cx="144.0" cy="242" rx="30" ry="6" fill="#0a0f15"/><line x1="124.3" y1="235.5" x2="117.8" y2="245.5" stroke="#182230" stroke-width="10" stroke-linecap="round"/><line x1="124.3" y1="235.5" x2="117.8" y2="245.5" stroke="#5ab6f0" stroke-width="7" stroke-linecap="round"/><line x1="163.7" y1="235.5" x2="170.2" y2="245.5" stroke="#182230" stroke-width="10" stroke-linecap="round"/><line x1="163.7" y1="235.5" x2="170.2" y2="245.5" stroke="#ee9d5a" stroke-width="7" stroke-linecap="round"/><line x1="144.0" y1="149.4" x2="144.0" y2="168.6" stroke="#182230" stroke-width="10" stroke-linecap="round"/><line x1="144.0" y1="149.4" x2="144.0" y2="168.6" stroke="#b6c2cc" stroke-width="7" stroke-linecap="round"/><polygon points="157.0,158.6 131.0,158.6 135.0,205.3 153.0,205.3" fill="#b6c2cc" stroke="#182230" stroke-width="2" stroke-linejoin="round"/><ellipse cx="144.0" cy="205.3" rx="10" ry="7" fill="#637487" stroke="#182230" stroke-width="2"/><ellipse cx="144.8" cy="129.0" rx="21" ry="24" fill="#d2dbe1" stroke="#182230" stroke-width="2"/><path d="M135.3,128.5 Q137.7,130.2 140.3,128.7" fill="none" stroke="#182230" stroke-width="1.4"/><path d="M149.3,129.0 Q151.7,130.7 154.3,129.2" fill="none" stroke="#182230" stroke-width="1.4"/><ellipse cx="144.5" cy="137.0" rx="2.6" ry="3.2" fill="#7a3b4a" stroke="#182230" stroke-width="1"/><polygon points="132.5,158.0 137.5,162.5 135.5,168.5 128.5,167.0 127.5,162.5" fill="#246a9e" stroke="#182230" stroke-width="1.2"/><line x1="132.5" y1="164.0" x2="119.2" y2="182.3" stroke="#182230" stroke-width="10" stroke-linecap="round"/><line x1="132.5" y1="164.0" x2="119.2" y2="182.3" stroke="#5ab6f0" stroke-width="7" stroke-linecap="round"/><line x1="155.5" y1="164.0" x2="169.5" y2="181.8" stroke="#182230" stroke-width="10" stroke-linecap="round"/><line x1="155.5" y1="164.0" x2="169.5" y2="181.8" stroke="#ee9d5a" stroke-width="7" stroke-linecap="round"/><line x1="119.2" y1="182.3" x2="123.9" y2="197.2" stroke="#182230" stroke-width="9" stroke-linecap="round"/><line x1="119.2" y1="182.3" x2="123.9" y2="197.2" stroke="#5ab6f0" stroke-width="6" stroke-linecap="round"/><line x1="169.5" y1="181.8" x2="163.9" y2="197.2" stroke="#182230" stroke-width="9" stroke-linecap="round"/><line x1="169.5" y1="181.8" x2="163.9" y2="197.2" stroke="#ee9d5a" stroke-width="6" stroke-linecap="round"/><line x1="135.5" y1="205.3" x2="118.9" y2="216.2" stroke="#182230" stroke-width="12" stroke-linecap="round"/><line x1="135.5" y1="205.3" x2="118.9" y2="216.2" stroke="#5ab6f0" stroke-width="9" stroke-linecap="round"/><line x1="152.5" y1="205.3" x2="169.1" y2="216.2" stroke="#182230" stroke-width="12" stroke-linecap="round"/><line x1="152.5" y1="205.3" x2="169.1" y2="216.2" stroke="#ee9d5a" stroke-width="9" stroke-linecap="round"/><line x1="118.9" y1="216.2" x2="124.3" y2="233.5" stroke="#182230" stroke-width="10" stroke-linecap="round"/><line x1="118.9" y1="216.2" x2="124.3" y2="233.5" stroke="#5ab6f0" stroke-width="7" stroke-linecap="round"/><line x1="169.1" y1="216.2" x2="163.7" y2="233.5" stroke="#182230" stroke-width="10" stroke-linecap="round"/><line x1="169.1" y1="216.2" x2="163.7" y2="233.5" stroke="#ee9d5a" stroke-width="7" stroke-linecap="round"/><ellipse cx="163.9" cy="197.2" rx="4" ry="5" fill="#ee9d5a" stroke="#182230" stroke-width="1.5"/><ellipse cx="123.9" cy="197.2" rx="4" ry="5" fill="#5ab6f0" stroke="#182230" stroke-width="1.5"/><ellipse cx="118.9" cy="216.2" rx="4" ry="4" fill="#e1e8ec" stroke="#182230" stroke-width="1.5"/><ellipse cx="169.1" cy="216.2" rx="4" ry="4" fill="#e1e8ec" stroke="#182230" stroke-width="1.5"/></g><text x="872" y="310" font-size="16" font-weight="700" fill="#c4d2df">3. …</text><foreignObject x="870" y="318" width="276" height="110"><div xmlns="http://www.w3.org/1999/xhtml" style="font:12px sans-serif;color:#8797a6;line-height:1.35"><br/>70ms</div></foreignObject><g transform="translate(1152,0)"><rect width="288" height="288" fill="#19202a" stroke="#2c3542"/><line x1="24" y1="40" x2="24" y2="288" stroke="#222b37"/><line x1="48" y1="40" x2="48" y2="288" stroke="#222b37"/><line x1="72" y1="40" x2="72" y2="288" stroke="#222b37"/><line x1="96" y1="40" x2="96" y2="288" stroke="#222b37"/><line x1="120" y1="40" x2="120" y2="288" stroke="#222b37"/><line x1="144" y1="40" x2="144" y2="288" stroke="#222b37"/><line x1="168" y1="40" x2="168" y2="288" stroke="#222b37"/><line x1="192" y1="40" x2="192" y2="288" stroke="#222b37"/><line x1="216" y1="40" x2="216" y2="288" stroke="#222b37"/><line x1="240" y1="40" x2="240" y2="288" stroke="#222b37"/><line x1="264" y1="40" x2="264" y2="288" stroke="#222b37"/><line x1="0" y1="48" x2="288" y2="48" stroke="#222b37"/><line x1="0" y1="72" x2="288" y2="72" stroke="#222b37"/><line x1="0" y1="96" x2="288" y2="96" stroke="#222b37"/><line x1="0" y1="120" x2="288" y2="120" stroke="#222b37"/><line x1="0" y1="144" x2="288" y2="144" stroke="#222b37"/><line x1="0" y1="168" x2="288" y2="168" stroke="#222b37"/><line x1="0" y1="192" x2="288" y2="192" stroke="#222b37"/><line x1="0" y1="216" x2="288" y2="216" stroke="#222b37"/><line x1="0" y1="240" x2="288" y2="240" stroke="#222b37"/><line x1="0" y1="264" x2="288" y2="264" stroke="#222b37"/><polyline points="142.9,199.0 144.0,200.2 144.0,203.8 144.0,212.5 144.0,222.9 144.0,231.5 144.0,235.2 144.0,235.2" fill="none" stroke="#ff7a7a" stroke-width="1" stroke-dasharray="3 3" opacity=".6"/><circle cx="144.0" cy="222.9" r="3" fill="#ff7a7a"/><ellipse cx="144.0" cy="242" rx="30" ry="6" fill="#0a0f15"/><line x1="125.1" y1="237.2" x2="120.1" y2="245.8" stroke="#182230" stroke-width="10" stroke-linecap="round"/><line x1="125.1" y1="237.2" x2="120.1" y2="245.8" stroke="#5ab6f0" stroke-width="7" stroke-linecap="round"/><line x1="162.9" y1="237.2" x2="167.9" y2="245.8" stroke="#182230" stroke-width="10" stroke-linecap="round"/><line x1="162.9" y1="237.2" x2="167.9" y2="245.8" stroke="#ee9d5a" stroke-width="7" stroke-linecap="round"/><line x1="144.0" y1="160.3" x2="144.0" y2="179.2" stroke="#182230" stroke-width="10" stroke-linecap="round"/><line x1="144.0" y1="160.3" x2="144.0" y2="179.2" stroke="#b6c2cc" stroke-width="7" stroke-linecap="round"/><polygon points="157.0,169.2 131.0,169.2 135.0,215.7 153.0,215.7" fill="#b6c2cc" stroke="#182230" stroke-width="2" stroke-linejoin="round"/><ellipse cx="144.0" cy="215.7" rx="10" ry="7" fill="#637487" stroke="#182230" stroke-width="2"/><polygon points="132.5,168.7 137.5,173.2 135.5,179.2 128.5,177.7 127.5,173.2" fill="#246a9e" stroke="#182230" stroke-width="1.2"/><line x1="132.5" y1="174.7" x2="120.2" y2="193.7" stroke="#182230" stroke-width="10" stroke-linecap="round"/><line x1="132.5" y1="174.7" x2="120.2" y2="193.7" stroke="#5ab6f0" stroke-width="7" stroke-linecap="round"/><line x1="155.5" y1="174.7" x2="168.3" y2="193.3" stroke="#182230" stroke-width="10" stroke-linecap="round"/><line x1="155.5" y1="174.7" x2="168.3" y2="193.3" stroke="#ee9d5a" stroke-width="7" stroke-linecap="round"/><ellipse cx="145.4" cy="140.2" rx="21" ry="24" fill="#d2dbe1" stroke="#182230" stroke-width="2"/><ellipse cx="138.5" cy="141.5" rx="1.8" ry="2.2" fill="#182230"/><ellipse cx="152.4" cy="142.4" rx="1.8" ry="2.2" fill="#182230"/><ellipse cx="144.9" cy="150.1" rx="2.6" ry="3.2" fill="#7a3b4a" stroke="#182230" stroke-width="1"/><line x1="120.2" y1="193.7" x2="127.3" y2="206.3" stroke="#182230" stroke-width="9" stroke-linecap="round"/><line x1="120.2" y1="193.7" x2="127.3" y2="206.3" stroke="#5ab6f0" stroke-width="6" stroke-linecap="round"/><line x1="168.3" y1="193.3" x2="160.6" y2="206.4" stroke="#182230" stroke-width="9" stroke-linecap="round"/><line x1="168.3" y1="193.3" x2="160.6" y2="206.4" stroke="#ee9d5a" stroke-width="6" stroke-linecap="round"/><line x1="127.0" y1="227.4" x2="125.1" y2="235.2" stroke="#182230" stroke-width="10" stroke-linecap="round"/><line x1="127.0" y1="227.4" x2="125.1" y2="235.2" stroke="#5ab6f0" stroke-width="7" stroke-linecap="round"/><line x1="161.0" y1="227.4" x2="162.9" y2="235.2" stroke="#182230" stroke-width="10" stroke-linecap="round"/><line x1="161.0" y1="227.4" x2="162.9" y2="235.2" stroke="#ee9d5a" stroke-width="7" stroke-linecap="round"/><line x1="135.5" y1="215.7" x2="127.0" y2="227.4" stroke="#182230" stroke-width="12" stroke-linecap="round"/><line x1="135.5" y1="215.7" x2="127.0" y2="227.4" stroke="#5ab6f0" stroke-width="9" stroke-linecap="round"/><line x1="152.5" y1="215.7" x2="161.0" y2="227.4" stroke="#182230" stroke-width="12" stroke-linecap="round"/><line x1="152.5" y1="215.7" x2="161.0" y2="227.4" stroke="#ee9d5a" stroke-width="9" stroke-linecap="round"/><ellipse cx="160.6" cy="206.4" rx="4" ry="5" fill="#ee9d5a" stroke="#182230" stroke-width="1.5"/><ellipse cx="127.3" cy="206.3" rx="4" ry="5" fill="#5ab6f0" stroke="#182230" stroke-width="1.5"/><ellipse cx="127.0" cy="227.4" rx="4" ry="4" fill="#e1e8ec" stroke="#182230" stroke-width="1.5"/><ellipse cx="161.0" cy="227.4" rx="4" ry="4" fill="#e1e8ec" stroke="#182230" stroke-width="1.5"/></g><text x="1160" y="310" font-size="16" font-weight="700" fill="#c4d2df">4. …</text><foreignObject x="1158" y="318" width="276" height="110"><div xmlns="http://www.w3.org/1999/xhtml" style="font:12px sans-serif;color:#8797a6;line-height:1.35"><br/>70ms</div></foreignObject><g transform="translate(1440,0)"><rect width="288" height="288" fill="#19202a" stroke="#2c3542"/><line x1="24" y1="40" x2="24" y2="288" stroke="#222b37"/><line x1="48" y1="40" x2="48" y2="288" stroke="#222b37"/><line x1="72" y1="40" x2="72" y2="288" stroke="#222b37"/><line x1="96" y1="40" x2="96" y2="288" stroke="#222b37"/><line x1="120" y1="40" x2="120" y2="288" stroke="#222b37"/><line x1="144" y1="40" x2="144" y2="288" stroke="#222b37"/><line x1="168" y1="40" x2="168" y2="288" stroke="#222b37"/><line x1="192" y1="40" x2="192" y2="288" stroke="#222b37"/><line x1="216" y1="40" x2="216" y2="288" stroke="#222b37"/><line x1="240" y1="40" x2="240" y2="288" stroke="#222b37"/><line x1="264" y1="40" x2="264" y2="288" stroke="#222b37"/><line x1="0" y1="48" x2="288" y2="48" stroke="#222b37"/><line x1="0" y1="72" x2="288" y2="72" stroke="#222b37"/><line x1="0" y1="96" x2="288" y2="96" stroke="#222b37"/><line x1="0" y1="120" x2="288" y2="120" stroke="#222b37"/><line x1="0" y1="144" x2="288" y2="144" stroke="#222b37"/><line x1="0" y1="168" x2="288" y2="168" stroke="#222b37"/><line x1="0" y1="192" x2="288" y2="192" stroke="#222b37"/><line x1="0" y1="216" x2="288" y2="216" stroke="#222b37"/><line x1="0" y1="240" x2="288" y2="240" stroke="#222b37"/><line x1="0" y1="264" x2="288" y2="264" stroke="#222b37"/><polyline points="142.9,199.0 144.0,200.2 144.0,203.8 144.0,212.5 144.0,222.9 144.0,231.5 144.0,235.2 144.0,235.2" fill="none" stroke="#ff7a7a" stroke-width="1" stroke-dasharray="3 3" opacity=".6"/><circle cx="144.0" cy="231.5" r="3" fill="#ff7a7a"/><ellipse cx="144.0" cy="242" rx="30" ry="6" fill="#0a0f15"/><line x1="125.7" y1="238.7" x2="122.8" y2="244.3" stroke="#182230" stroke-width="10" stroke-linecap="round"/><line x1="125.7" y1="238.7" x2="122.8" y2="244.3" stroke="#5ab6f0" stroke-width="7" stroke-linecap="round"/><line x1="162.3" y1="238.7" x2="165.2" y2="244.3" stroke="#182230" stroke-width="10" stroke-linecap="round"/><line x1="162.3" y1="238.7" x2="165.2" y2="244.3" stroke="#ee9d5a" stroke-width="7" stroke-linecap="round"/><line x1="144.0" y1="169.4" x2="144.0" y2="188.2" stroke="#182230" stroke-width="10" stroke-linecap="round"/><line x1="144.0" y1="169.4" x2="144.0" y2="188.2" stroke="#b6c2cc" stroke-width="7" stroke-linecap="round"/><polygon points="157.0,178.2 131.0,178.2 135.0,224.4 153.0,224.4" fill="#b6c2cc" stroke="#182230" stroke-width="2" stroke-linejoin="round"/><ellipse cx="144.0" cy="224.4" rx="10" ry="7" fill="#637487" stroke="#182230" stroke-width="2"/><polygon points="132.5,177.8 137.5,182.3 135.5,188.3 128.5,186.8 127.5,182.3" fill="#246a9e" stroke="#182230" stroke-width="1.2"/><line x1="132.5" y1="183.8" x2="121.1" y2="203.3" stroke="#182230" stroke-width="10" stroke-linecap="round"/><line x1="132.5" y1="183.8" x2="121.1" y2="203.3" stroke="#5ab6f0" stroke-width="7" stroke-linecap="round"/><line x1="155.5" y1="183.8" x2="167.3" y2="202.9" stroke="#182230" stroke-width="10" stroke-linecap="round"/><line x1="155.5" y1="183.8" x2="167.3" y2="202.9" stroke="#ee9d5a" stroke-width="7" stroke-linecap="round"/><ellipse cx="145.9" cy="150.0" rx="21" ry="24" fill="#d2dbe1" stroke="#182230" stroke-width="2"/><ellipse cx="139.0" cy="152.7" rx="1.8" ry="2.2" fill="#182230"/><ellipse cx="153.0" cy="154.0" rx="1.8" ry="2.2" fill="#182230"/><ellipse cx="145.3" cy="161.4" rx="2.6" ry="3.2" fill="#7a3b4a" stroke="#182230" stroke-width="1"/><line x1="131.7" y1="238.3" x2="125.7" y2="236.7" stroke="#182230" stroke-width="10" stroke-linecap="round"/><line x1="131.7" y1="238.3" x2="125.7" y2="236.7" stroke="#5ab6f0" stroke-width="7" stroke-linecap="round"/><line x1="156.3" y1="238.3" x2="162.3" y2="236.7" stroke="#182230" stroke-width="10" stroke-linecap="round"/><line x1="156.3" y1="238.3" x2="162.3" y2="236.7" stroke="#ee9d5a" stroke-width="7" stroke-linecap="round"/><line x1="135.5" y1="224.4" x2="131.7" y2="238.3" stroke="#182230" stroke-width="12" stroke-linecap="round"/><line x1="135.5" y1="224.4" x2="131.7" y2="238.3" stroke="#5ab6f0" stroke-width="9" stroke-linecap="round"/><line x1="152.5" y1="224.4" x2="156.3" y2="238.3" stroke="#182230" stroke-width="12" stroke-linecap="round"/><line x1="152.5" y1="224.4" x2="156.3" y2="238.3" stroke="#ee9d5a" stroke-width="9" stroke-linecap="round"/><line x1="121.1" y1="203.3" x2="129.9" y2="213.4" stroke="#182230" stroke-width="9" stroke-linecap="round"/><line x1="121.1" y1="203.3" x2="129.9" y2="213.4" stroke="#5ab6f0" stroke-width="6" stroke-linecap="round"/><line x1="167.3" y1="202.9" x2="158.1" y2="213.5" stroke="#182230" stroke-width="9" stroke-linecap="round"/><line x1="167.3" y1="202.9" x2="158.1" y2="213.5" stroke="#ee9d5a" stroke-width="6" stroke-linecap="round"/><ellipse cx="129.9" cy="213.4" rx="4" ry="5" fill="#5ab6f0" stroke="#182230" stroke-width="1.5"/><ellipse cx="158.1" cy="213.5" rx="4" ry="5" fill="#ee9d5a" stroke="#182230" stroke-width="1.5"/><ellipse cx="131.7" cy="238.3" rx="4" ry="4" fill="#e1e8ec" stroke="#182230" stroke-width="1.5"/><ellipse cx="156.3" cy="238.3" rx="4" ry="4" fill="#e1e8ec" stroke="#182230" stroke-width="1.5"/></g><text x="1448" y="310" font-size="16" font-weight="700" fill="#c4d2df">5. …</text><foreignObject x="1446" y="318" width="276" height="110"><div xmlns="http://www.w3.org/1999/xhtml" style="font:12px sans-serif;color:#8797a6;line-height:1.35"><br/>70ms</div></foreignObject><g transform="translate(1728,0)"><rect width="288" height="288" fill="#19202a" stroke="#2c3542"/><line x1="24" y1="40" x2="24" y2="288" stroke="#222b37"/><line x1="48" y1="40" x2="48" y2="288" stroke="#222b37"/><line x1="72" y1="40" x2="72" y2="288" stroke="#222b37"/><line x1="96" y1="40" x2="96" y2="288" stroke="#222b37"/><line x1="120" y1="40" x2="120" y2="288" stroke="#222b37"/><line x1="144" y1="40" x2="144" y2="288" stroke="#222b37"/><line x1="168" y1="40" x2="168" y2="288" stroke="#222b37"/><line x1="192" y1="40" x2="192" y2="288" stroke="#222b37"/><line x1="216" y1="40" x2="216" y2="288" stroke="#222b37"/><line x1="240" y1="40" x2="240" y2="288" stroke="#222b37"/><line x1="264" y1="40" x2="264" y2="288" stroke="#222b37"/><line x1="0" y1="48" x2="288" y2="48" stroke="#222b37"/><line x1="0" y1="72" x2="288" y2="72" stroke="#222b37"/><line x1="0" y1="96" x2="288" y2="96" stroke="#222b37"/><line x1="0" y1="120" x2="288" y2="120" stroke="#222b37"/><line x1="0" y1="144" x2="288" y2="144" stroke="#222b37"/><line x1="0" y1="168" x2="288" y2="168" stroke="#222b37"/><line x1="0" y1="192" x2="288" y2="192" stroke="#222b37"/><line x1="0" y1="216" x2="288" y2="216" stroke="#222b37"/><line x1="0" y1="240" x2="288" y2="240" stroke="#222b37"/><line x1="0" y1="264" x2="288" y2="264" stroke="#222b37"/><polyline points="142.9,199.0 144.0,200.2 144.0,203.8 144.0,212.5 144.0,222.9 144.0,231.5 144.0,235.2 144.0,235.2" fill="none" stroke="#ff7a7a" stroke-width="1" stroke-dasharray="3 3" opacity=".6"/><circle cx="144.0" cy="235.2" r="3" fill="#ff7a7a"/><ellipse cx="144.0" cy="242" rx="30" ry="6" fill="#0a0f15"/><line x1="126.0" y1="239.3" x2="124.1" y2="243.3" stroke="#182230" stroke-width="10" stroke-linecap="round"/><line x1="126.0" y1="239.3" x2="124.1" y2="243.3" stroke="#5ab6f0" stroke-width="7" stroke-linecap="round"/><line x1="162.0" y1="239.3" x2="163.9" y2="243.3" stroke="#182230" stroke-width="10" stroke-linecap="round"/><line x1="162.0" y1="239.3" x2="163.9" y2="243.3" stroke="#ee9d5a" stroke-width="7" stroke-linecap="round"/><line x1="144.0" y1="173.3" x2="144.0" y2="192.0" stroke="#182230" stroke-width="10" stroke-linecap="round"/><line x1="144.0" y1="173.3" x2="144.0" y2="192.0" stroke="#b6c2cc" stroke-width="7" stroke-linecap="round"/><polygon points="157.0,182.0 131.0,182.0 135.0,228.0 153.0,228.0" fill="#b6c2cc" stroke="#182230" stroke-width="2" stroke-linejoin="round"/><ellipse cx="144.0" cy="228.0" rx="10" ry="7" fill="#637487" stroke="#182230" stroke-width="2"/><polygon points="132.5,181.6 137.5,186.1 135.5,192.1 128.5,190.6 127.5,186.1" fill="#246a9e" stroke="#182230" stroke-width="1.2"/><line x1="132.5" y1="187.6" x2="121.5" y2="207.2" stroke="#182230" stroke-width="10" stroke-linecap="round"/><line x1="132.5" y1="187.6" x2="121.5" y2="207.2" stroke="#5ab6f0" stroke-width="7" stroke-linecap="round"/><line x1="155.5" y1="187.6" x2="166.9" y2="206.9" stroke="#182230" stroke-width="10" stroke-linecap="round"/><line x1="155.5" y1="187.6" x2="166.9" y2="206.9" stroke="#ee9d5a" stroke-width="7" stroke-linecap="round"/><line x1="132.2" y1="243.2" x2="126.0" y2="237.3" stroke="#182230" stroke-width="10" stroke-linecap="round"/><line x1="132.2" y1="243.2" x2="126.0" y2="237.3" stroke="#5ab6f0" stroke-width="7" stroke-linecap="round"/><line x1="155.8" y1="243.2" x2="162.0" y2="237.3" stroke="#182230" stroke-width="10" stroke-linecap="round"/><line x1="155.8" y1="243.2" x2="162.0" y2="237.3" stroke="#ee9d5a" stroke-width="7" stroke-linecap="round"/><ellipse cx="146.1" cy="154.3" rx="21" ry="24" fill="#d2dbe1" stroke="#182230" stroke-width="2"/><ellipse cx="139.3" cy="157.5" rx="1.8" ry="2.2" fill="#182230"/><ellipse cx="153.2" cy="159.0" rx="1.8" ry="2.2" fill="#182230"/><ellipse cx="145.4" cy="166.2" rx="2.6" ry="3.2" fill="#7a3b4a" stroke="#182230" stroke-width="1"/><line x1="135.5" y1="228.0" x2="132.2" y2="243.2" stroke="#182230" stroke-width="12" stroke-linecap="round"/><line x1="135.5" y1="228.0" x2="132.2" y2="243.2" stroke="#5ab6f0" stroke-width="9" stroke-linecap="round"/><line x1="152.5" y1="228.0" x2="155.8" y2="243.2" stroke="#182230" stroke-width="12" stroke-linecap="round"/><line x1="152.5" y1="228.0" x2="155.8" y2="243.2" stroke="#ee9d5a" stroke-width="9" stroke-linecap="round"/><line x1="121.5" y1="207.2" x2="130.9" y2="216.3" stroke="#182230" stroke-width="9" stroke-linecap="round"/><line x1="121.5" y1="207.2" x2="130.9" y2="216.3" stroke="#5ab6f0" stroke-width="6" stroke-linecap="round"/><line x1="166.9" y1="206.9" x2="157.1" y2="216.3" stroke="#182230" stroke-width="9" stroke-linecap="round"/><line x1="166.9" y1="206.9" x2="157.1" y2="216.3" stroke="#ee9d5a" stroke-width="6" stroke-linecap="round"/><ellipse cx="130.9" cy="216.3" rx="4" ry="5" fill="#5ab6f0" stroke="#182230" stroke-width="1.5"/><ellipse cx="157.1" cy="216.3" rx="4" ry="5" fill="#ee9d5a" stroke="#182230" stroke-width="1.5"/><ellipse cx="132.2" cy="243.2" rx="4" ry="4" fill="#e1e8ec" stroke="#182230" stroke-width="1.5"/><ellipse cx="155.8" cy="243.2" rx="4" ry="4" fill="#e1e8ec" stroke="#182230" stroke-width="1.5"/></g><text x="1736" y="310" font-size="16" font-weight="700" fill="#c4d2df">6. （次）sit_afterglow</text><foreignObject x="1734" y="318" width="276" height="110"><div xmlns="http://www.w3.org/1999/xhtml" style="font:12px sans-serif;color:#8797a6;line-height:1.35"><br/>150ms</div></foreignObject><g transform="translate(2016,0)"><rect width="288" height="288" fill="#19202a" stroke="#2c3542"/><line x1="24" y1="40" x2="24" y2="288" stroke="#222b37"/><line x1="48" y1="40" x2="48" y2="288" stroke="#222b37"/><line x1="72" y1="40" x2="72" y2="288" stroke="#222b37"/><line x1="96" y1="40" x2="96" y2="288" stroke="#222b37"/><line x1="120" y1="40" x2="120" y2="288" stroke="#222b37"/><line x1="144" y1="40" x2="144" y2="288" stroke="#222b37"/><line x1="168" y1="40" x2="168" y2="288" stroke="#222b37"/><line x1="192" y1="40" x2="192" y2="288" stroke="#222b37"/><line x1="216" y1="40" x2="216" y2="288" stroke="#222b37"/><line x1="240" y1="40" x2="240" y2="288" stroke="#222b37"/><line x1="264" y1="40" x2="264" y2="288" stroke="#222b37"/><line x1="0" y1="48" x2="288" y2="48" stroke="#222b37"/><line x1="0" y1="72" x2="288" y2="72" stroke="#222b37"/><line x1="0" y1="96" x2="288" y2="96" stroke="#222b37"/><line x1="0" y1="120" x2="288" y2="120" stroke="#222b37"/><line x1="0" y1="144" x2="288" y2="144" stroke="#222b37"/><line x1="0" y1="168" x2="288" y2="168" stroke="#222b37"/><line x1="0" y1="192" x2="288" y2="192" stroke="#222b37"/><line x1="0" y1="216" x2="288" y2="216" stroke="#222b37"/><line x1="0" y1="240" x2="288" y2="240" stroke="#222b37"/><line x1="0" y1="264" x2="288" y2="264" stroke="#222b37"/><polyline points="142.9,199.0 144.0,200.2 144.0,203.8 144.0,212.5 144.0,222.9 144.0,231.5 144.0,235.2 144.0,235.2" fill="none" stroke="#ff7a7a" stroke-width="1" stroke-dasharray="3 3" opacity=".6"/><circle cx="144.0" cy="235.2" r="3" fill="#ff7a7a"/><ellipse cx="144.0" cy="242" rx="30" ry="6" fill="#0a0f15"/><line x1="126.0" y1="239.3" x2="124.1" y2="243.3" stroke="#182230" stroke-width="10" stroke-linecap="round"/><line x1="126.0" y1="239.3" x2="124.1" y2="243.3" stroke="#5ab6f0" stroke-width="7" stroke-linecap="round"/><line x1="162.0" y1="239.3" x2="163.9" y2="243.3" stroke="#182230" stroke-width="10" stroke-linecap="round"/><line x1="162.0" y1="239.3" x2="163.9" y2="243.3" stroke="#ee9d5a" stroke-width="7" stroke-linecap="round"/><line x1="144.0" y1="173.9" x2="144.0" y2="192.4" stroke="#182230" stroke-width="10" stroke-linecap="round"/><line x1="144.0" y1="173.9" x2="144.0" y2="192.4" stroke="#b6c2cc" stroke-width="7" stroke-linecap="round"/><polygon points="157.0,182.4 131.0,182.4 135.0,228.0 153.0,228.0" fill="#b6c2cc" stroke="#182230" stroke-width="2" stroke-linejoin="round"/><ellipse cx="144.0" cy="228.0" rx="10" ry="7" fill="#637487" stroke="#182230" stroke-width="2"/><polygon points="132.5,180.6 137.5,185.1 135.5,191.1 128.5,189.6 127.5,185.1" fill="#246a9e" stroke="#182230" stroke-width="1.2"/><line x1="132.5" y1="186.6" x2="121.5" y2="206.3" stroke="#182230" stroke-width="10" stroke-linecap="round"/><line x1="132.5" y1="186.6" x2="121.5" y2="206.3" stroke="#5ab6f0" stroke-width="7" stroke-linecap="round"/><line x1="155.5" y1="186.6" x2="166.9" y2="205.9" stroke="#182230" stroke-width="10" stroke-linecap="round"/><line x1="155.5" y1="186.6" x2="166.9" y2="205.9" stroke="#ee9d5a" stroke-width="7" stroke-linecap="round"/><line x1="132.2" y1="243.2" x2="126.0" y2="237.3" stroke="#182230" stroke-width="10" stroke-linecap="round"/><line x1="132.2" y1="243.2" x2="126.0" y2="237.3" stroke="#5ab6f0" stroke-width="7" stroke-linecap="round"/><line x1="155.8" y1="243.2" x2="162.0" y2="237.3" stroke="#182230" stroke-width="10" stroke-linecap="round"/><line x1="155.8" y1="243.2" x2="162.0" y2="237.3" stroke="#ee9d5a" stroke-width="7" stroke-linecap="round"/><line x1="135.5" y1="228.0" x2="132.2" y2="243.2" stroke="#182230" stroke-width="12" stroke-linecap="round"/><line x1="135.5" y1="228.0" x2="132.2" y2="243.2" stroke="#5ab6f0" stroke-width="9" stroke-linecap="round"/><line x1="152.5" y1="228.0" x2="155.8" y2="243.2" stroke="#182230" stroke-width="12" stroke-linecap="round"/><line x1="152.5" y1="228.0" x2="155.8" y2="243.2" stroke="#ee9d5a" stroke-width="9" stroke-linecap="round"/><ellipse cx="146.1" cy="154.6" rx="21" ry="24" fill="#d2dbe1" stroke="#182230" stroke-width="2"/><ellipse cx="139.3" cy="157.3" rx="1.8" ry="2.2" fill="#182230"/><ellipse cx="153.2" cy="158.7" rx="1.8" ry="2.2" fill="#182230"/><ellipse cx="145.4" cy="166.0" rx="2.6" ry="3.2" fill="#7a3b4a" stroke="#182230" stroke-width="1"/><line x1="121.5" y1="206.3" x2="130.9" y2="215.3" stroke="#182230" stroke-width="9" stroke-linecap="round"/><line x1="121.5" y1="206.3" x2="130.9" y2="215.3" stroke="#5ab6f0" stroke-width="6" stroke-linecap="round"/><line x1="166.9" y1="205.9" x2="157.1" y2="215.3" stroke="#182230" stroke-width="9" stroke-linecap="round"/><line x1="166.9" y1="205.9" x2="157.1" y2="215.3" stroke="#ee9d5a" stroke-width="6" stroke-linecap="round"/><ellipse cx="132.2" cy="243.2" rx="4" ry="4" fill="#e1e8ec" stroke="#182230" stroke-width="1.5"/><ellipse cx="155.8" cy="243.2" rx="4" ry="4" fill="#e1e8ec" stroke="#182230" stroke-width="1.5"/><ellipse cx="130.9" cy="215.3" rx="4" ry="5" fill="#5ab6f0" stroke="#182230" stroke-width="1.5"/><ellipse cx="157.1" cy="215.3" rx="4" ry="5" fill="#ee9d5a" stroke="#182230" stroke-width="1.5"/></g><text x="2024" y="310" font-size="16" font-weight="700" fill="#c4d2df">7. （次）sit_afterglow</text><foreignObject x="2022" y="318" width="276" height="110"><div xmlns="http://www.w3.org/1999/xhtml" style="font:12px sans-serif;color:#8797a6;line-height:1.35"><br/>150ms</div></foreignObject></svg>