<svg xmlns="http://www.w3.org/2000/svg" viewBox="0 0 576 298" width="576" height="298" font-family="sans-serif"><rect width="576" height="298" fill="#121821"/><g transform="translate(0,0)"><rect width="288" height="288" fill="#19202a" stroke="#2c3542"/><line x1="24" y1="40" x2="24" y2="288" stroke="#222b37"/><line x1="48" y1="40" x2="48" y2="288" stroke="#222b37"/><line x1="72" y1="40" x2="72" y2="288" stroke="#222b37"/><line x1="96" y1="40" x2="96" y2="288" stroke="#222b37"/><line x1="120" y1="40" x2="120" y2="288" stroke="#222b37"/><line x1="144" y1="40" x2="144" y2="288" stroke="#222b37"/><line x1="168" y1="40" x2="168" y2="288" stroke="#222b37"/><line x1="192" y1="40" x2="192" y2="288" stroke="#222b37"/><line x1="216" y1="40" x2="216" y2="288" stroke="#222b37"/><line x1="240" y1="40" x2="240" y2="288" stroke="#222b37"/><line x1="264" y1="40" x2="264" y2="288" stroke="#222b37"/><line x1="0" y1="48" x2="288" y2="48" stroke="#222b37"/><line x1="0" y1="72" x2="288" y2="72" stroke="#222b37"/><line x1="0" y1="96" x2="288" y2="96" stroke="#222b37"/><line x1="0" y1="120" x2="288" y2="120" stroke="#222b37"/><line x1="0" y1="144" x2="288" y2="144" stroke="#222b37"/><line x1="0" y1="168" x2="288" y2="168" stroke="#222b37"/><line x1="0" y1="192" x2="288" y2="192" stroke="#222b37"/><line x1="0" y1="216" x2="288" y2="216" stroke="#222b37"/><line x1="0" y1="240" x2="288" y2="240" stroke="#222b37"/><line x1="0" y1="264" x2="288" y2="264" stroke="#222b37"/><text x="8" y="18" font-size="13" fill="#c4d2df">右</text><g display="inline"><ellipse cx="144.0" cy="242" rx="30" ry="6" fill="#0a0f15"/><path d="M40.0,223.5 Q53.1,214.8 68.7,213.0" fill="none" stroke="#3a1650" stroke-width="6.5" stroke-linecap="round"/><path d="M40.0,223.5 Q53.1,214.8 68.7,213.0" fill="none" stroke="#b36be0" stroke-width="4" stroke-linecap="round"/><ellipse cx="68.7" cy="213.0" rx="4" ry="5" fill="#ee9d5a" stroke="#182230" stroke-width="1.5"/><ellipse cx="68.7" cy="213.0" rx="5.5" ry="3.2" fill="none" stroke="#3a1650" stroke-width="3.5"/><ellipse cx="68.7" cy="213.0" rx="5.5" ry="3.2" fill="none" stroke="#b36be0" stroke-width="2"/><line x1="83.5" y1="221.9" x2="68.7" y2="213.0" stroke="#182230" stroke-width="9" stroke-linecap="round"/><line x1="83.5" y1="221.9" x2="68.7" y2="213.0" stroke="#ee9d5a" stroke-width="6" stroke-linecap="round"/><line x1="103.1" y1="228.7" x2="83.5" y2="221.9" stroke="#182230" stroke-width="10" stroke-linecap="round"/><line x1="103.1" y1="228.7" x2="83.5" y2="221.9" stroke="#ee9d5a" stroke-width="7" stroke-linecap="round"/><line x1="172.0" y1="232.2" x2="183.0" y2="238.2" stroke="#182230" stroke-width="10" stroke-linecap="round"/><line x1="172.0" y1="232.2" x2="183.0" y2="238.2" stroke="#ee9d5a" stroke-width="7" stroke-linecap="round"/><line x1="154.2" y1="208.6" x2="172.0" y2="230.2" stroke="#182230" stroke-width="10" stroke-linecap="round"/><line x1="154.2" y1="208.6" x2="172.0" y2="230.2" stroke="#ee9d5a" stroke-width="7" stroke-linecap="round"/><ellipse cx="154.2" cy="208.6" rx="4" ry="4" fill="#e1e8ec" stroke="#182230" stroke-width="1.5"/><line x1="143.9" y1="232.8" x2="154.2" y2="208.6" stroke="#182230" stroke-width="12" stroke-linecap="round"/><line x1="143.9" y1="232.8" x2="154.2" y2="208.6" stroke="#ee9d5a" stroke-width="9" stroke-linecap="round"/><line x1="144.1" y1="233.7" x2="157.6" y2="212.4" stroke="#182230" stroke-width="12" stroke-linecap="round"/><line x1="144.1" y1="233.7" x2="157.6" y2="212.4" stroke="#5ab6f0" stroke-width="9" stroke-linecap="round"/><line x1="157.6" y1="212.4" x2="181.9" y2="225.3" stroke="#182230" stroke-width="10" stroke-linecap="round"/><line x1="157.6" y1="212.4" x2="181.9" y2="225.3" stroke="#5ab6f0" stroke-width="7" stroke-linecap="round"/><line x1="181.9" y1="227.3" x2="192.9" y2="230.3" stroke="#182230" stroke-width="10" stroke-linecap="round"/><line x1="181.9" y1="227.3" x2="192.9" y2="230.3" stroke="#5ab6f0" stroke-width="7" stroke-linecap="round"/><line x1="88.6" y1="229.3" x2="107.6" y2="230.5" stroke="#182230" stroke-width="10" stroke-linecap="round"/><line x1="88.6" y1="229.3" x2="107.6" y2="230.5" stroke="#b6c2cc" stroke-width="7" stroke-linecap="round"/><polygon points="98.2,221.8 97.0,237.8 143.6,239.2 144.4,227.3" fill="#b6c2cc" stroke="#182230" stroke-width="2" stroke-linejoin="round"/><ellipse cx="144.0" cy="233.3" rx="10" ry="7" fill="#637487" stroke="#182230" stroke-width="2"/><ellipse cx="70.2" cy="227.5" rx="21" ry="24" fill="#d2dbe1" stroke="#182230" stroke-width="2"/><ellipse cx="69.6" cy="212.3" rx="1.7" ry="2" fill="#182230"/><polygon points="70.8,208.5 75.0,203.2 77.3,209.6" fill="#d2dbe1" stroke="#182230" stroke-width="1"/><polygon points="103.1,225.7 108.1,230.2 106.1,236.2 99.1,234.7 98.1,230.2" fill="#246a9e" stroke="#182230" stroke-width="1.2"/><ellipse cx="157.6" cy="212.4" rx="4" ry="4" fill="#e1e8ec" stroke="#182230" stroke-width="1.5"/><line x1="103.1" y1="231.7" x2="84.7" y2="226.5" stroke="#182230" stroke-width="10" stroke-linecap="round"/><line x1="103.1" y1="231.7" x2="84.7" y2="226.5" stroke="#5ab6f0" stroke-width="7" stroke-linecap="round"/><line x1="84.7" y1="226.5" x2="68.8" y2="220.2" stroke="#182230" stroke-width="9" stroke-linecap="round"/><line x1="84.7" y1="226.5" x2="68.8" y2="220.2" stroke="#5ab6f0" stroke-width="6" stroke-linecap="round"/><path d="M40.0,228.5 Q53.4,220.9 68.8,220.2" fill="none" stroke="#3a1650" stroke-width="6.5" stroke-linecap="round"/><path d="M40.0,228.5 Q53.4,220.9 68.8,220.2" fill="none" stroke="#b36be0" stroke-width="4" stroke-linecap="round"/><ellipse cx="68.8" cy="220.2" rx="4" ry="5" fill="#5ab6f0" stroke="#182230" stroke-width="1.5"/><ellipse cx="68.8" cy="220.2" rx="5.5" ry="3.2" fill="none" stroke="#3a1650" stroke-width="3.5"/><ellipse cx="68.8" cy="220.2" rx="5.5" ry="3.2" fill="none" stroke="#b36be0" stroke-width="2"/><animate attributeName="display" values="inline;none;none;none;none" keyTimes="0.0000;0.2778;0.5556;0.7500;0.8750" calcMode="discrete" dur="360ms" repeatCount="indefinite"/></g><g display="none"><ellipse cx="144.0" cy="242" rx="30" ry="6" fill="#0a0f15"/><path d="M40.0,223.5 Q53.0,214.4 68.8,212.3" fill="none" stroke="#3a1650" stroke-width="6.5" stroke-linecap="round"/><path d="M40.0,223.5 Q53.0,214.4 68.8,212.3" fill="none" stroke="#b36be0" stroke-width="4" stroke-linecap="round"/><ellipse cx="68.8" cy="212.3" rx="4" ry="5" fill="#ee9d5a" stroke="#182230" stroke-width="1.5"/><ellipse cx="68.8" cy="212.3" rx="5.5" ry="3.2" fill="none" stroke="#3a1650" stroke-width="3.5"/><ellipse cx="68.8" cy="212.3" rx="5.5" ry="3.2" fill="none" stroke="#b36be0" stroke-width="2"/><line x1="83.6" y1="221.2" x2="68.8" y2="212.3" stroke="#182230" stroke-width="9" stroke-linecap="round"/><line x1="83.6" y1="221.2" x2="68.8" y2="212.3" stroke="#ee9d5a" stroke-width="6" stroke-linecap="round"/><line x1="103.1" y1="228.1" x2="83.6" y2="221.2" stroke="#182230" stroke-width="10" stroke-linecap="round"/><line x1="103.1" y1="228.1" x2="83.6" y2="221.2" stroke="#ee9d5a" stroke-width="7" stroke-linecap="round"/><ellipse cx="155.1" cy="207.6" rx="4" ry="4" fill="#e1e8ec" stroke="#182230" stroke-width="1.5"/><line x1="155.1" y1="207.6" x2="172.0" y2="230.2" stroke="#182230" stroke-width="10" stroke-linecap="round"/><line x1="155.1" y1="207.6" x2="172.0" y2="230.2" stroke="#ee9d5a" stroke-width="7" stroke-linecap="round"/><line x1="144.0" y1="231.5" x2="155.1" y2="207.6" stroke="#182230" stroke-width="12" stroke-linecap="round"/><line x1="144.0" y1="231.5" x2="155.1" y2="207.6" stroke="#ee9d5a" stroke-width="9" stroke-linecap="round"/><line x1="172.0" y1="232.2" x2="183.0" y2="238.2" stroke="#182230" stroke-width="10" stroke-linecap="round"/><line x1="172.0" y1="232.2" x2="183.0" y2="238.2" stroke="#ee9d5a" stroke-width="7" stroke-linecap="round"/><line x1="144.0" y1="234.5" x2="155.1" y2="211.8" stroke="#182230" stroke-width="12" stroke-linecap="round"/><line x1="144.0" y1="234.5" x2="155.1" y2="211.8" stroke="#5ab6f0" stroke-width="9" stroke-linecap="round"/><line x1="155.1" y1="211.8" x2="172.0" y2="233.8" stroke="#182230" stroke-width="10" stroke-linecap="round"/><line x1="155.1" y1="211.8" x2="172.0" y2="233.8" stroke="#5ab6f0" stroke-width="7" stroke-linecap="round"/><line x1="172.0" y1="235.8" x2="183.0" y2="241.8" stroke="#182230" stroke-width="10" stroke-linecap="round"/><line x1="172.0" y1="235.8" x2="183.0" y2="241.8" stroke="#5ab6f0" stroke-width="7" stroke-linecap="round"/><line x1="88.6" y1="229.1" x2="107.6" y2="230.5" stroke="#182230" stroke-width="10" stroke-linecap="round"/><line x1="88.6" y1="229.1" x2="107.6" y2="230.5" stroke="#b6c2cc" stroke-width="7" stroke-linecap="round"/><polygon points="98.2,221.8 97.1,237.7 143.6,239.0 144.4,227.0" fill="#b6c2cc" stroke="#182230" stroke-width="2" stroke-linejoin="round"/><ellipse cx="144.0" cy="233.0" rx="10" ry="7" fill="#637487" stroke="#182230" stroke-width="2"/><ellipse cx="70.2" cy="227.3" rx="21" ry="24" fill="#d2dbe1" stroke="#182230" stroke-width="2"/><ellipse cx="69.5" cy="212.2" rx="1.7" ry="2" fill="#182230"/><polygon points="70.9,208.3 75.4,202.7 77.8,208.9" fill="#d2dbe1" stroke="#182230" stroke-width="1"/><polygon points="103.1,226.2 108.1,230.7 106.1,236.7 99.1,235.2 98.1,230.7" fill="#246a9e" stroke="#182230" stroke-width="1.2"/><ellipse cx="155.1" cy="211.8" rx="4" ry="4" fill="#e1e8ec" stroke="#182230" stroke-width="1.5"/><line x1="103.1" y1="232.2" x2="84.6" y2="227.0" stroke="#182230" stroke-width="10" stroke-linecap="round"/><line x1="103.1" y1="232.2" x2="84.6" y2="227.0" stroke="#5ab6f0" stroke-width="7" stroke-linecap="round"/><line x1="84.6" y1="227.0" x2="68.8" y2="220.7" stroke="#182230" stroke-width="9" stroke-linecap="round"/><line x1="84.6" y1="227.0" x2="68.8" y2="220.7" stroke="#5ab6f0" stroke-width="6" stroke-linecap="round"/><path d="M40.0,228.5 Q53.4,221.1 68.8,220.7" fill="none" stroke="#3a1650" stroke-width="6.5" stroke-linecap="round"/><path d="M40.0,228.5 Q53.4,221.1 68.8,220.7" fill="none" stroke="#b36be0" stroke-width="4" stroke-linecap="round"/><ellipse cx="68.8" cy="220.7" rx="4" ry="5" fill="#5ab6f0" stroke="#182230" stroke-width="1.5"/><ellipse cx="68.8" cy="220.7" rx="5.5" ry="3.2" fill="none" stroke="#3a1650" stroke-width="3.5"/><ellipse cx="68.8" cy="220.7" rx="5.5" ry="3.2" fill="none" stroke="#b36be0" stroke-width="2"/><animate attributeName="display" values="none;inline;none;none;none" keyTimes="0.0000;0.2778;0.5556;0.7500;0.8750" calcMode="discrete" dur="360ms" repeatCount="indefinite"/></g><g display="none"><ellipse cx="137.0" cy="242" rx="30" ry="6" fill="#0a0f15"/><ellipse cx="66.4" cy="219.7" rx="4" ry="5" fill="#ee9d5a" stroke="#182230" stroke-width="1.5"/><line x1="81.1" y1="228.7" x2="66.4" y2="219.7" stroke="#182230" stroke-width="9" stroke-linecap="round"/><line x1="81.1" y1="228.7" x2="66.4" y2="219.7" stroke="#ee9d5a" stroke-width="6" stroke-linecap="round"/><line x1="96.1" y1="228.1" x2="81.1" y2="228.7" stroke="#182230" stroke-width="10" stroke-linecap="round"/><line x1="96.1" y1="228.1" x2="81.1" y2="228.7" stroke="#ee9d5a" stroke-width="7" stroke-linecap="round"/><ellipse cx="147.5" cy="207.3" rx="4" ry="4" fill="#e1e8ec" stroke="#182230" stroke-width="1.5"/><line x1="147.5" y1="207.3" x2="164.0" y2="230.2" stroke="#182230" stroke-width="10" stroke-linecap="round"/><line x1="147.5" y1="207.3" x2="164.0" y2="230.2" stroke="#ee9d5a" stroke-width="7" stroke-linecap="round"/><line x1="137.0" y1="231.5" x2="147.5" y2="207.3" stroke="#182230" stroke-width="12" stroke-linecap="round"/><line x1="137.0" y1="231.5" x2="147.5" y2="207.3" stroke="#ee9d5a" stroke-width="9" stroke-linecap="round"/><line x1="164.0" y1="232.2" x2="175.0" y2="238.2" stroke="#182230" stroke-width="10" stroke-linecap="round"/><line x1="164.0" y1="232.2" x2="175.0" y2="238.2" stroke="#ee9d5a" stroke-width="7" stroke-linecap="round"/><line x1="137.0" y1="234.5" x2="147.5" y2="211.6" stroke="#182230" stroke-width="12" stroke-linecap="round"/><line x1="137.0" y1="234.5" x2="147.5" y2="211.6" stroke="#5ab6f0" stroke-width="9" stroke-linecap="round"/><line x1="147.5" y1="211.6" x2="164.0" y2="233.8" stroke="#182230" stroke-width="10" stroke-linecap="round"/><line x1="147.5" y1="211.6" x2="164.0" y2="233.8" stroke="#5ab6f0" stroke-width="7" stroke-linecap="round"/><line x1="164.0" y1="235.8" x2="175.0" y2="241.8" stroke="#182230" stroke-width="10" stroke-linecap="round"/><line x1="164.0" y1="235.8" x2="175.0" y2="241.8" stroke="#5ab6f0" stroke-width="7" stroke-linecap="round"/><line x1="81.6" y1="229.1" x2="100.6" y2="230.5" stroke="#182230" stroke-width="10" stroke-linecap="round"/><line x1="81.6" y1="229.1" x2="100.6" y2="230.5" stroke="#b6c2cc" stroke-width="7" stroke-linecap="round"/><polygon points="91.2,221.8 90.1,237.7 136.6,239.0 137.4,227.0" fill="#b6c2cc" stroke="#182230" stroke-width="2" stroke-linejoin="round"/><ellipse cx="137.0" cy="233.0" rx="10" ry="7" fill="#637487" stroke="#182230" stroke-width="2"/><ellipse cx="63.2" cy="227.9" rx="21" ry="24" fill="#d2dbe1" stroke="#182230" stroke-width="2"/><ellipse cx="62.1" cy="212.8" rx="1.7" ry="2" fill="#182230"/><polygon points="63.3,208.9 67.7,203.1 70.3,209.3" fill="#d2dbe1" stroke="#182230" stroke-width="1"/><polygon points="96.1,226.2 101.1,230.7 99.1,236.7 92.1,235.2 91.1,230.7" fill="#246a9e" stroke="#182230" stroke-width="1.2"/><ellipse cx="147.5" cy="211.6" rx="4" ry="4" fill="#e1e8ec" stroke="#182230" stroke-width="1.5"/><line x1="96.1" y1="232.2" x2="82.4" y2="236.7" stroke="#182230" stroke-width="10" stroke-linecap="round"/><line x1="96.1" y1="232.2" x2="82.4" y2="236.7" stroke="#5ab6f0" stroke-width="7" stroke-linecap="round"/><line x1="82.4" y1="236.7" x2="66.4" y2="230.5" stroke="#182230" stroke-width="9" stroke-linecap="round"/><line x1="82.4" y1="236.7" x2="66.4" y2="230.5" stroke="#5ab6f0" stroke-width="6" stroke-linecap="round"/><ellipse cx="66.4" cy="230.5" rx="4" ry="5" fill="#5ab6f0" stroke="#182230" stroke-width="1.5"/><animate attributeName="display" values="none;none;inline;none;none" keyTimes="0.0000;0.2778;0.5556;0.7500;0.8750" calcMode="discrete" dur="360ms" repeatCount="indefinite"/></g><g display="none"><ellipse cx="130.0" cy="242" rx="30" ry="6" fill="#0a0f15"/><ellipse cx="64.1" cy="227.1" rx="4" ry="5" fill="#ee9d5a" stroke="#182230" stroke-width="1.5"/><line x1="79.1" y1="233.2" x2="64.1" y2="227.1" stroke="#182230" stroke-width="9" stroke-linecap="round"/><line x1="79.1" y1="233.2" x2="64.1" y2="227.1" stroke="#ee9d5a" stroke-width="6" stroke-linecap="round"/><line x1="89.1" y1="228.1" x2="79.1" y2="233.2" stroke="#182230" stroke-width="10" stroke-linecap="round"/><line x1="89.1" y1="228.1" x2="79.1" y2="233.2" stroke="#ee9d5a" stroke-width="7" stroke-linecap="round"/><ellipse cx="139.9" cy="207.0" rx="4" ry="4" fill="#e1e8ec" stroke="#182230" stroke-width="1.5"/><line x1="139.9" y1="207.0" x2="156.0" y2="230.2" stroke="#182230" stroke-width="10" stroke-linecap="round"/><line x1="139.9" y1="207.0" x2="156.0" y2="230.2" stroke="#ee9d5a" stroke-width="7" stroke-linecap="round"/><line x1="130.0" y1="231.5" x2="139.9" y2="207.0" stroke="#182230" stroke-width="12" stroke-linecap="round"/><line x1="130.0" y1="231.5" x2="139.9" y2="207.0" stroke="#ee9d5a" stroke-width="9" stroke-linecap="round"/><line x1="156.0" y1="232.2" x2="167.0" y2="238.2" stroke="#182230" stroke-width="10" stroke-linecap="round"/><line x1="156.0" y1="232.2" x2="167.0" y2="238.2" stroke="#ee9d5a" stroke-width="7" stroke-linecap="round"/><line x1="130.0" y1="234.5" x2="139.9" y2="211.3" stroke="#182230" stroke-width="12" stroke-linecap="round"/><line x1="130.0" y1="234.5" x2="139.9" y2="211.3" stroke="#5ab6f0" stroke-width="9" stroke-linecap="round"/><line x1="139.9" y1="211.3" x2="156.0" y2="233.8" stroke="#182230" stroke-width="10" stroke-linecap="round"/><line x1="139.9" y1="211.3" x2="156.0" y2="233.8" stroke="#5ab6f0" stroke-width="7" stroke-linecap="round"/><line x1="156.0" y1="235.8" x2="167.0" y2="241.8" stroke="#182230" stroke-width="10" stroke-linecap="round"/><line x1="156.0" y1="235.8" x2="167.0" y2="241.8" stroke="#5ab6f0" stroke-width="7" stroke-linecap="round"/><line x1="74.6" y1="229.1" x2="93.6" y2="230.5" stroke="#182230" stroke-width="10" stroke-linecap="round"/><line x1="74.6" y1="229.1" x2="93.6" y2="230.5" stroke="#b6c2cc" stroke-width="7" stroke-linecap="round"/><polygon points="84.2,221.8 83.1,237.7 129.6,239.0 130.4,227.0" fill="#b6c2cc" stroke="#182230" stroke-width="2" stroke-linejoin="round"/><ellipse cx="130.0" cy="233.0" rx="10" ry="7" fill="#637487" stroke="#182230" stroke-width="2"/><ellipse cx="56.1" cy="228.4" rx="21" ry="24" fill="#d2dbe1" stroke="#182230" stroke-width="2"/><ellipse cx="54.7" cy="213.4" rx="1.7" ry="2" fill="#182230"/><polygon points="55.8,209.4 60.0,203.5 62.8,209.6" fill="#d2dbe1" stroke="#182230" stroke-width="1"/><polygon points="89.1,226.2 94.1,230.7 92.1,236.7 85.1,235.2 84.1,230.7" fill="#246a9e" stroke="#182230" stroke-width="1.2"/><ellipse cx="139.9" cy="211.3" rx="4" ry="4" fill="#e1e8ec" stroke="#182230" stroke-width="1.5"/><line x1="89.1" y1="232.2" x2="79.2" y2="243.7" stroke="#182230" stroke-width="10" stroke-linecap="round"/><line x1="89.1" y1="232.2" x2="79.2" y2="243.7" stroke="#5ab6f0" stroke-width="7" stroke-linecap="round"/><line x1="79.2" y1="243.7" x2="64.1" y2="240.3" stroke="#182230" stroke-width="9" stroke-linecap="round"/><line x1="79.2" y1="243.7" x2="64.1" y2="240.3" stroke="#5ab6f0" stroke-width="6" stroke-linecap="round"/><ellipse cx="64.1" cy="240.3" rx="4" ry="5" fill="#5ab6f0" stroke="#182230" stroke-width="1.5"/><animate attributeName="display" values="none;none;none;inline;none" keyTimes="0.0000;0.2778;0.5556;0.7500;0.8750" calcMode="discrete" dur="360ms" repeatCount="indefinite"/></g><g display="none"><ellipse cx="130.0" cy="242" rx="30" ry="6" fill="#0a0f15"/><ellipse cx="66.4" cy="227.6" rx="4" ry="5" fill="#ee9d5a" stroke="#182230" stroke-width="1.5"/><line x1="82.3" y1="232.1" x2="66.4" y2="227.6" stroke="#182230" stroke-width="9" stroke-linecap="round"/><line x1="82.3" y1="232.1" x2="66.4" y2="227.6" stroke="#ee9d5a" stroke-width="6" stroke-linecap="round"/><line x1="89.5" y1="224.5" x2="82.3" y2="232.1" stroke="#182230" stroke-width="10" stroke-linecap="round"/><line x1="89.5" y1="224.5" x2="82.3" y2="232.1" stroke="#ee9d5a" stroke-width="7" stroke-linecap="round"/><ellipse cx="140.0" cy="206.9" rx="4" ry="4" fill="#e1e8ec" stroke="#182230" stroke-width="1.5"/><line x1="140.0" y1="206.9" x2="156.0" y2="230.2" stroke="#182230" stroke-width="10" stroke-linecap="round"/><line x1="140.0" y1="206.9" x2="156.0" y2="230.2" stroke="#ee9d5a" stroke-width="7" stroke-linecap="round"/><line x1="130.0" y1="231.3" x2="140.0" y2="206.9" stroke="#182230" stroke-width="12" stroke-linecap="round"/><line x1="130.0" y1="231.3" x2="140.0" y2="206.9" stroke="#ee9d5a" stroke-width="9" stroke-linecap="round"/><line x1="156.0" y1="232.2" x2="167.0" y2="238.2" stroke="#182230" stroke-width="10" stroke-linecap="round"/><line x1="156.0" y1="232.2" x2="167.0" y2="238.2" stroke="#ee9d5a" stroke-width="7" stroke-linecap="round"/><line x1="130.0" y1="234.4" x2="140.0" y2="211.2" stroke="#182230" stroke-width="12" stroke-linecap="round"/><line x1="130.0" y1="234.4" x2="140.0" y2="211.2" stroke="#5ab6f0" stroke-width="9" stroke-linecap="round"/><line x1="140.0" y1="211.2" x2="156.0" y2="233.8" stroke="#182230" stroke-width="10" stroke-linecap="round"/><line x1="140.0" y1="211.2" x2="156.0" y2="233.8" stroke="#5ab6f0" stroke-width="7" stroke-linecap="round"/><line x1="156.0" y1="235.8" x2="167.0" y2="241.8" stroke="#182230" stroke-width="10" stroke-linecap="round"/><line x1="156.0" y1="235.8" x2="167.0" y2="241.8" stroke="#5ab6f0" stroke-width="7" stroke-linecap="round"/><line x1="75.2" y1="224.3" x2="93.9" y2="227.2" stroke="#182230" stroke-width="10" stroke-linecap="round"/><line x1="75.2" y1="224.3" x2="93.9" y2="227.2" stroke="#b6c2cc" stroke-width="7" stroke-linecap="round"/><polygon points="85.3,217.8 82.8,233.6 129.1,238.8 130.9,226.9" fill="#b6c2cc" stroke="#182230" stroke-width="2" stroke-linejoin="round"/><ellipse cx="130.0" cy="232.8" rx="10" ry="7" fill="#637487" stroke="#182230" stroke-width="2"/><ellipse cx="57.1" cy="220.1" rx="21" ry="24" fill="#d2dbe1" stroke="#182230" stroke-width="2"/><ellipse cx="58.2" cy="205.0" rx="1.7" ry="2" fill="#182230"/><polygon points="60.0,201.3 65.2,196.3 66.9,202.7" fill="#d2dbe1" stroke="#182230" stroke-width="1"/><polygon points="89.5,222.6 94.5,227.1 92.5,233.1 85.5,231.6 84.5,227.1" fill="#246a9e" stroke="#182230" stroke-width="1.2"/><ellipse cx="140.0" cy="211.2" rx="4" ry="4" fill="#e1e8ec" stroke="#182230" stroke-width="1.5"/><line x1="89.5" y1="228.6" x2="82.6" y2="242.2" stroke="#182230" stroke-width="10" stroke-linecap="round"/><line x1="89.5" y1="228.6" x2="82.6" y2="242.2" stroke="#5ab6f0" stroke-width="7" stroke-linecap="round"/><line x1="82.6" y1="242.2" x2="66.4" y2="240.2" stroke="#182230" stroke-width="9" stroke-linecap="round"/><line x1="82.6" y1="242.2" x2="66.4" y2="240.2" stroke="#5ab6f0" stroke-width="6" stroke-linecap="round"/><ellipse cx="66.4" cy="240.2" rx="4" ry="5" fill="#5ab6f0" stroke="#182230" stroke-width="1.5"/><animate attributeName="display" values="none;none;none;none;inline" keyTimes="0.0000;0.2778;0.5556;0.7500;0.8750" calcMode="discrete" dur="360ms" repeatCount="indefinite"/></g></g><g transform="translate(288,0)"><rect width="288" height="288" fill="#19202a" stroke="#2c3542"/><line x1="24" y1="40" x2="24" y2="288" stroke="#222b37"/><line x1="48" y1="40" x2="48" y2="288" stroke="#222b37"/><line x1="72" y1="40" x2="72" y2="288" stroke="#222b37"/><line x1="96" y1="40" x2="96" y2="288" stroke="#222b37"/><line x1="120" y1="40" x2="120" y2="288" stroke="#222b37"/><line x1="144" y1="40" x2="144" y2="288" stroke="#222b37"/><line x1="168" y1="40" x2="168" y2="288" stroke="#222b37"/><line x1="192" y1="40" x2="192" y2="288" stroke="#222b37"/><line x1="216" y1="40" x2="216" y2="288" stroke="#222b37"/><line x1="240" y1="40" x2="240" y2="288" stroke="#222b37"/><line x1="264" y1="40" x2="264" y2="288" stroke="#222b37"/><line x1="0" y1="48" x2="288" y2="48" stroke="#222b37"/><line x1="0" y1="72" x2="288" y2="72" stroke="#222b37"/><line x1="0" y1="96" x2="288" y2="96" stroke="#222b37"/><line x1="0" y1="120" x2="288" y2="120" stroke="#222b37"/><line x1="0" y1="144" x2="288" y2="144" stroke="#222b37"/><line x1="0" y1="168" x2="288" y2="168" stroke="#222b37"/><line x1="0" y1="192" x2="288" y2="192" stroke="#222b37"/><line x1="0" y1="216" x2="288" y2="216" stroke="#222b37"/><line x1="0" y1="240" x2="288" y2="240" stroke="#222b37"/><line x1="0" y1="264" x2="288" y2="264" stroke="#222b37"/><text x="8" y="18" font-size="13" fill="#c4d2df">右斜め前</text><g display="inline"><ellipse cx="143.0" cy="242" rx="30" ry="6" fill="#0a0f15"/><path d="M80.4,211.0 Q93.0,204.6 107.1,204.6" fill="none" stroke="#3a1650" stroke-width="6.5" stroke-linecap="round"/><path d="M80.4,211.0 Q93.0,204.6 107.1,204.6" fill="none" stroke="#b36be0" stroke-width="4" stroke-linecap="round"/><ellipse cx="107.1" cy="204.6" rx="4" ry="5" fill="#ee9d5a" stroke="#182230" stroke-width="1.5"/><ellipse cx="107.1" cy="204.6" rx="5.5" ry="3.2" fill="none" stroke="#3a1650" stroke-width="3.5"/><ellipse cx="107.1" cy="204.6" rx="5.5" ry="3.2" fill="none" stroke="#b36be0" stroke-width="2"/><line x1="116.1" y1="215.3" x2="107.1" y2="204.6" stroke="#182230" stroke-width="9" stroke-linecap="round"/><line x1="116.1" y1="215.3" x2="107.1" y2="204.6" stroke="#ee9d5a" stroke-width="6" stroke-linecap="round"/><line x1="123.1" y1="224.1" x2="116.1" y2="215.3" stroke="#182230" stroke-width="10" stroke-linecap="round"/><line x1="123.1" y1="224.1" x2="116.1" y2="215.3" stroke="#ee9d5a" stroke-width="7" stroke-linecap="round"/><line x1="170.9" y1="236.3" x2="178.6" y2="243.7" stroke="#182230" stroke-width="10" stroke-linecap="round"/><line x1="170.9" y1="236.3" x2="178.6" y2="243.7" stroke="#ee9d5a" stroke-width="7" stroke-linecap="round"/><line x1="158.2" y1="210.4" x2="170.9" y2="234.3" stroke="#182230" stroke-width="10" stroke-linecap="round"/><line x1="158.2" y1="210.4" x2="170.9" y2="234.3" stroke="#ee9d5a" stroke-width="7" stroke-linecap="round"/><line x1="148.9" y1="233.1" x2="158.2" y2="210.4" stroke="#182230" stroke-width="12" stroke-linecap="round"/><line x1="148.9" y1="233.1" x2="158.2" y2="210.4" stroke="#ee9d5a" stroke-width="9" stroke-linecap="round"/><ellipse cx="158.2" cy="210.4" rx="4" ry="4" fill="#e1e8ec" stroke="#182230" stroke-width="1.5"/><line x1="137.1" y1="233.2" x2="144.2" y2="213.5" stroke="#182230" stroke-width="12" stroke-linecap="round"/><line x1="137.1" y1="233.2" x2="144.2" y2="213.5" stroke="#5ab6f0" stroke-width="9" stroke-linecap="round"/><line x1="144.2" y1="213.5" x2="163.7" y2="229.6" stroke="#182230" stroke-width="10" stroke-linecap="round"/><line x1="144.2" y1="213.5" x2="163.7" y2="229.6" stroke="#5ab6f0" stroke-width="7" stroke-linecap="round"/><line x1="163.7" y1="231.6" x2="171.5" y2="236.0" stroke="#182230" stroke-width="10" stroke-linecap="round"/><line x1="163.7" y1="231.6" x2="171.5" y2="236.0" stroke="#5ab6f0" stroke-width="7" stroke-linecap="round"/><ellipse cx="144.2" cy="213.5" rx="4" ry="4" fill="#e1e8ec" stroke="#182230" stroke-width="1.5"/><line x1="104.6" y1="222.2" x2="118.1" y2="225.9" stroke="#182230" stroke-width="10" stroke-linecap="round"/><line x1="104.6" y1="222.2" x2="118.1" y2="225.9" stroke="#b6c2cc" stroke-width="7" stroke-linecap="round"/><polygon points="111.3,213.8 105.8,232.3 141.3,238.9 144.7,227.4" fill="#b6c2cc" stroke="#182230" stroke-width="2" stroke-linejoin="round"/><ellipse cx="143.0" cy="233.2" rx="10" ry="7" fill="#637487" stroke="#182230" stroke-width="2"/><ellipse cx="91.5" cy="218.1" rx="21" ry="24" fill="#d2dbe1" stroke="#182230" stroke-width="2"/><ellipse cx="91.3" cy="202.8" rx="1.7" ry="2" fill="#182230"/><polygon points="91.8,199.1 93.6,194.3 94.6,200.9" fill="#d2dbe1" stroke="#182230" stroke-width="1"/><line x1="86.4" y1="217.8" x2="74.3" y2="209.4" stroke="#182230" stroke-width="9" stroke-linecap="round"/><line x1="86.4" y1="217.8" x2="74.3" y2="209.4" stroke="#5ab6f0" stroke-width="6" stroke-linecap="round"/><ellipse cx="74.3" cy="209.4" rx="4" ry="5" fill="#5ab6f0" stroke="#182230" stroke-width="1.5"/><path d="M60.6,214.5 Q66.8,210.3 74.3,209.4" fill="none" stroke="#3a1650" stroke-width="6.5" stroke-linecap="round"/><path d="M60.6,214.5 Q66.8,210.3 74.3,209.4" fill="none" stroke="#b36be0" stroke-width="4" stroke-linecap="round"/><ellipse cx="74.3" cy="209.4" rx="5.5" ry="3.2" fill="none" stroke="#3a1650" stroke-width="3.5"/><ellipse cx="74.3" cy="209.4" rx="5.5" ry="3.2" fill="none" stroke="#b36be0" stroke-width="2"/><line x1="106.9" y1="225.9" x2="86.4" y2="217.8" stroke="#182230" stroke-width="10" stroke-linecap="round"/><line x1="106.9" y1="225.9" x2="86.4" y2="217.8" stroke="#5ab6f0" stroke-width="7" stroke-linecap="round"/><polygon points="106.9,219.9 111.9,224.4 109.9,230.4 102.9,228.9 101.9,224.4" fill="#246a9e" stroke="#182230" stroke-width="1.2"/><animate attributeName="display" values="inline;none;none;none;none" keyTimes="0.0000;0.2778;0.5556;0.7500;0.8750" calcMode="discrete" dur="360ms" repeatCount="indefinite"/></g><g display="none"><ellipse cx="144.0" cy="242" rx="30" ry="6" fill="#0a0f15"/><path d="M80.4,211.0 Q92.9,204.2 107.2,204.0" fill="none" stroke="#3a1650" stroke-width="6.5" stroke-linecap="round"/><path d="M80.4,211.0 Q92.9,204.2 107.2,204.0" fill="none" stroke="#b36be0" stroke-width="4" stroke-linecap="round"/><ellipse cx="107.2" cy="204.0" rx="4" ry="5" fill="#ee9d5a" stroke="#182230" stroke-width="1.5"/><ellipse cx="107.2" cy="204.0" rx="5.5" ry="3.2" fill="none" stroke="#3a1650" stroke-width="3.5"/><ellipse cx="107.2" cy="204.0" rx="5.5" ry="3.2" fill="none" stroke="#b36be0" stroke-width="2"/><line x1="116.3" y1="214.6" x2="107.2" y2="204.0" stroke="#182230" stroke-width="9" stroke-linecap="round"/><line x1="116.3" y1="214.6" x2="107.2" y2="204.0" stroke="#ee9d5a" stroke-width="6" stroke-linecap="round"/><line x1="123.2" y1="223.5" x2="116.3" y2="214.6" stroke="#182230" stroke-width="10" stroke-linecap="round"/><line x1="123.2" y1="223.5" x2="116.3" y2="214.6" stroke="#ee9d5a" stroke-width="7" stroke-linecap="round"/><line x1="170.9" y1="236.3" x2="178.6" y2="243.7" stroke="#182230" stroke-width="10" stroke-linecap="round"/><line x1="170.9" y1="236.3" x2="178.6" y2="243.7" stroke="#ee9d5a" stroke-width="7" stroke-linecap="round"/><line x1="160.2" y1="209.6" x2="170.9" y2="234.3" stroke="#182230" stroke-width="10" stroke-linecap="round"/><line x1="160.2" y1="209.6" x2="170.9" y2="234.3" stroke="#ee9d5a" stroke-width="7" stroke-linecap="round"/><line x1="150.0" y1="231.9" x2="160.2" y2="209.6" stroke="#182230" stroke-width="12" stroke-linecap="round"/><line x1="150.0" y1="231.9" x2="160.2" y2="209.6" stroke="#ee9d5a" stroke-width="9" stroke-linecap="round"/><ellipse cx="160.2" cy="209.6" rx="4" ry="4" fill="#e1e8ec" stroke="#182230" stroke-width="1.5"/><line x1="138.0" y1="234.1" x2="143.6" y2="212.6" stroke="#182230" stroke-width="12" stroke-linecap="round"/><line x1="138.0" y1="234.1" x2="143.6" y2="212.6" stroke="#5ab6f0" stroke-width="9" stroke-linecap="round"/><line x1="143.6" y1="212.6" x2="156.7" y2="236.8" stroke="#182230" stroke-width="10" stroke-linecap="round"/><line x1="143.6" y1="212.6" x2="156.7" y2="236.8" stroke="#5ab6f0" stroke-width="7" stroke-linecap="round"/><line x1="156.7" y1="238.8" x2="164.5" y2="246.2" stroke="#182230" stroke-width="10" stroke-linecap="round"/><line x1="156.7" y1="238.8" x2="164.5" y2="246.2" stroke="#5ab6f0" stroke-width="7" stroke-linecap="round"/><ellipse cx="143.6" cy="212.6" rx="4" ry="4" fill="#e1e8ec" stroke="#182230" stroke-width="1.5"/><line x1="104.9" y1="222.1" x2="118.3" y2="225.8" stroke="#182230" stroke-width="10" stroke-linecap="round"/><line x1="104.9" y1="222.1" x2="118.3" y2="225.8" stroke="#b6c2cc" stroke-width="7" stroke-linecap="round"/><polygon points="111.2,213.7 106.0,232.5 142.4,238.8 145.6,227.2" fill="#b6c2cc" stroke="#182230" stroke-width="2" stroke-linejoin="round"/><ellipse cx="144.0" cy="233.0" rx="10" ry="7" fill="#637487" stroke="#182230" stroke-width="2"/><ellipse cx="91.8" cy="217.9" rx="21" ry="24" fill="#d2dbe1" stroke="#182230" stroke-width="2"/><ellipse cx="91.3" cy="202.7" rx="1.7" ry="2" fill="#182230"/><polygon points="92.3,199.0 95.5,194.0 97.2,200.5" fill="#d2dbe1" stroke="#182230" stroke-width="1"/><line x1="86.5" y1="218.3" x2="74.4" y2="209.9" stroke="#182230" stroke-width="9" stroke-linecap="round"/><line x1="86.5" y1="218.3" x2="74.4" y2="209.9" stroke="#5ab6f0" stroke-width="6" stroke-linecap="round"/><ellipse cx="74.4" cy="209.9" rx="4" ry="5" fill="#5ab6f0" stroke="#182230" stroke-width="1.5"/><path d="M60.6,214.5 Q66.9,210.5 74.4,209.9" fill="none" stroke="#3a1650" stroke-width="6.5" stroke-linecap="round"/><path d="M60.6,214.5 Q66.9,210.5 74.4,209.9" fill="none" stroke="#b36be0" stroke-width="4" stroke-linecap="round"/><ellipse cx="74.4" cy="209.9" rx="5.5" ry="3.2" fill="none" stroke="#3a1650" stroke-width="3.5"/><ellipse cx="74.4" cy="209.9" rx="5.5" ry="3.2" fill="none" stroke="#b36be0" stroke-width="2"/><line x1="106.9" y1="226.4" x2="86.5" y2="218.3" stroke="#182230" stroke-width="10" stroke-linecap="round"/><line x1="106.9" y1="226.4" x2="86.5" y2="218.3" stroke="#5ab6f0" stroke-width="7" stroke-linecap="round"/><polygon points="106.9,220.4 111.9,224.9 109.9,230.9 102.9,229.4 101.9,224.9" fill="#246a9e" stroke="#182230" stroke-width="1.2"/><animate attributeName="display" values="none;inline;none;none;none" keyTimes="0.0000;0.2778;0.5556;0.7500;0.8750" calcMode="discrete" dur="360ms" repeatCount="indefinite"/></g><g display="none"><ellipse cx="139.1" cy="242" rx="30" ry="6" fill="#0a0f15"/><ellipse cx="110.3" cy="211.4" rx="4" ry="5" fill="#ee9d5a" stroke="#182230" stroke-width="1.5"/><line x1="119.2" y1="222.2" x2="110.3" y2="211.4" stroke="#182230" stroke-width="9" stroke-linecap="round"/><line x1="119.2" y1="222.2" x2="110.3" y2="211.4" stroke="#ee9d5a" stroke-width="6" stroke-linecap="round"/><line x1="118.3" y1="222.6" x2="119.2" y2="222.2" stroke="#182230" stroke-width="10" stroke-linecap="round"/><line x1="118.3" y1="222.6" x2="119.2" y2="222.2" stroke="#ee9d5a" stroke-width="7" stroke-linecap="round"/><line x1="165.2" y1="235.3" x2="173.0" y2="242.7" stroke="#182230" stroke-width="10" stroke-linecap="round"/><line x1="165.2" y1="235.3" x2="173.0" y2="242.7" stroke="#ee9d5a" stroke-width="7" stroke-linecap="round"/><line x1="154.9" y1="208.4" x2="165.2" y2="233.3" stroke="#182230" stroke-width="10" stroke-linecap="round"/><line x1="154.9" y1="208.4" x2="165.2" y2="233.3" stroke="#ee9d5a" stroke-width="7" stroke-linecap="round"/><line x1="145.1" y1="231.0" x2="154.9" y2="208.4" stroke="#182230" stroke-width="12" stroke-linecap="round"/><line x1="145.1" y1="231.0" x2="154.9" y2="208.4" stroke="#ee9d5a" stroke-width="9" stroke-linecap="round"/><ellipse cx="154.9" cy="208.4" rx="4" ry="4" fill="#e1e8ec" stroke="#182230" stroke-width="1.5"/><line x1="133.0" y1="233.2" x2="138.1" y2="211.4" stroke="#182230" stroke-width="12" stroke-linecap="round"/><line x1="133.0" y1="233.2" x2="138.1" y2="211.4" stroke="#5ab6f0" stroke-width="9" stroke-linecap="round"/><line x1="138.1" y1="211.4" x2="151.1" y2="235.8" stroke="#182230" stroke-width="10" stroke-linecap="round"/><line x1="138.1" y1="211.4" x2="151.1" y2="235.8" stroke="#5ab6f0" stroke-width="7" stroke-linecap="round"/><line x1="151.1" y1="237.8" x2="158.8" y2="245.2" stroke="#182230" stroke-width="10" stroke-linecap="round"/><line x1="151.1" y1="237.8" x2="158.8" y2="245.2" stroke="#5ab6f0" stroke-width="7" stroke-linecap="round"/><ellipse cx="138.1" cy="211.4" rx="4" ry="4" fill="#e1e8ec" stroke="#182230" stroke-width="1.5"/><line x1="99.9" y1="221.2" x2="113.3" y2="224.9" stroke="#182230" stroke-width="10" stroke-linecap="round"/><line x1="99.9" y1="221.2" x2="113.3" y2="224.9" stroke="#b6c2cc" stroke-width="7" stroke-linecap="round"/><polygon points="106.3,212.8 101.0,231.6 137.4,237.9 140.7,226.3" fill="#b6c2cc" stroke="#182230" stroke-width="2" stroke-linejoin="round"/><ellipse cx="139.1" cy="232.1" rx="10" ry="7" fill="#637487" stroke="#182230" stroke-width="2"/><ellipse cx="86.8" cy="217.6" rx="21" ry="24" fill="#d2dbe1" stroke="#182230" stroke-width="2"/><ellipse cx="86.1" cy="202.4" rx="1.7" ry="2" fill="#182230"/><polygon points="87.0,198.6 90.0,193.4 91.9,199.9" fill="#d2dbe1" stroke="#182230" stroke-width="1"/><ellipse cx="68.0" cy="219.0" rx="4" ry="5" fill="#5ab6f0" stroke="#182230" stroke-width="1.5"/><line x1="79.8" y1="227.3" x2="68.0" y2="219.0" stroke="#182230" stroke-width="9" stroke-linecap="round"/><line x1="79.8" y1="227.3" x2="68.0" y2="219.0" stroke="#5ab6f0" stroke-width="6" stroke-linecap="round"/><polygon points="102.0,219.5 107.0,224.0 105.0,230.0 98.0,228.5 97.0,224.0" fill="#246a9e" stroke="#182230" stroke-width="1.2"/><line x1="102.0" y1="225.5" x2="79.8" y2="227.3" stroke="#182230" stroke-width="10" stroke-linecap="round"/><line x1="102.0" y1="225.5" x2="79.8" y2="227.3" stroke="#5ab6f0" stroke-width="7" stroke-linecap="round"/><animate attributeName="display" values="none;none;inline;none;none" keyTimes="0.0000;0.2778;0.5556;0.7500;0.8750" calcMode="discrete" dur="360ms" repeatCount="indefinite"/></g><g display="none"><ellipse cx="134.1" cy="242" rx="30" ry="6" fill="#0a0f15"/><ellipse cx="113.3" cy="218.9" rx="4" ry="5" fill="#ee9d5a" stroke="#182230" stroke-width="1.5"/><line x1="119.0" y1="226.5" x2="113.3" y2="218.9" stroke="#182230" stroke-width="9" stroke-linecap="round"/><line x1="119.0" y1="226.5" x2="113.3" y2="218.9" stroke="#ee9d5a" stroke-width="6" stroke-linecap="round"/><line x1="113.3" y1="221.7" x2="119.0" y2="226.5" stroke="#182230" stroke-width="10" stroke-linecap="round"/><line x1="113.3" y1="221.7" x2="119.0" y2="226.5" stroke="#ee9d5a" stroke-width="7" stroke-linecap="round"/><line x1="159.6" y1="234.3" x2="167.3" y2="241.7" stroke="#182230" stroke-width="10" stroke-linecap="round"/><line x1="159.6" y1="234.3" x2="167.3" y2="241.7" stroke="#ee9d5a" stroke-width="7" stroke-linecap="round"/><line x1="149.5" y1="207.1" x2="159.6" y2="232.3" stroke="#182230" stroke-width="10" stroke-linecap="round"/><line x1="149.5" y1="207.1" x2="159.6" y2="232.3" stroke="#ee9d5a" stroke-width="7" stroke-linecap="round"/><line x1="140.1" y1="230.1" x2="149.5" y2="207.1" stroke="#182230" stroke-width="12" stroke-linecap="round"/><line x1="140.1" y1="230.1" x2="149.5" y2="207.1" stroke="#ee9d5a" stroke-width="9" stroke-linecap="round"/><ellipse cx="149.5" cy="207.1" rx="4" ry="4" fill="#e1e8ec" stroke="#182230" stroke-width="1.5"/><line x1="128.1" y1="232.3" x2="132.6" y2="210.2" stroke="#182230" stroke-width="12" stroke-linecap="round"/><line x1="128.1" y1="232.3" x2="132.6" y2="210.2" stroke="#5ab6f0" stroke-width="9" stroke-linecap="round"/><line x1="132.6" y1="210.2" x2="145.4" y2="234.8" stroke="#182230" stroke-width="10" stroke-linecap="round"/><line x1="132.6" y1="210.2" x2="145.4" y2="234.8" stroke="#5ab6f0" stroke-width="7" stroke-linecap="round"/><line x1="145.4" y1="236.8" x2="153.2" y2="244.2" stroke="#182230" stroke-width="10" stroke-linecap="round"/><line x1="145.4" y1="236.8" x2="153.2" y2="244.2" stroke="#5ab6f0" stroke-width="7" stroke-linecap="round"/><ellipse cx="132.6" cy="210.2" rx="4" ry="4" fill="#e1e8ec" stroke="#182230" stroke-width="1.5"/><line x1="95.0" y1="220.3" x2="108.4" y2="224.0" stroke="#182230" stroke-width="10" stroke-linecap="round"/><line x1="95.0" y1="220.3" x2="108.4" y2="224.0" stroke="#b6c2cc" stroke-width="7" stroke-linecap="round"/><polygon points="101.3,211.9 96.1,230.8 132.5,237.0 135.7,225.4" fill="#b6c2cc" stroke="#182230" stroke-width="2" stroke-linejoin="round"/><ellipse cx="134.1" cy="231.2" rx="10" ry="7" fill="#637487" stroke="#182230" stroke-width="2"/><ellipse cx="81.9" cy="217.2" rx="21" ry="24" fill="#d2dbe1" stroke="#182230" stroke-width="2"/><ellipse cx="80.8" cy="202.0" rx="1.7" ry="2" fill="#182230"/><polygon points="81.6,198.2 84.6,192.8 86.6,199.3" fill="#d2dbe1" stroke="#182230" stroke-width="1"/><ellipse cx="61.6" cy="228.2" rx="4" ry="5" fill="#5ab6f0" stroke="#182230" stroke-width="1.5"/><polygon points="97.0,218.6 102.0,223.1 100.0,229.1 93.0,227.6 92.0,223.1" fill="#246a9e" stroke="#182230" stroke-width="1.2"/><line x1="97.0" y1="224.6" x2="77.1" y2="233.9" stroke="#182230" stroke-width="10" stroke-linecap="round"/><line x1="97.0" y1="224.6" x2="77.1" y2="233.9" stroke="#5ab6f0" stroke-width="7" stroke-linecap="round"/><line x1="77.1" y1="233.9" x2="61.6" y2="228.2" stroke="#182230" stroke-width="9" stroke-linecap="round"/><line x1="77.1" y1="233.9" x2="61.6" y2="228.2" stroke="#5ab6f0" stroke-width="6" stroke-linecap="round"/><animate attributeName="display" values="none;none;none;inline;none" keyTimes="0.0000;0.2778;0.5556;0.7500;0.8750" calcMode="discrete" dur="360ms" repeatCount="indefinite"/></g><g display="none"><ellipse cx="134.1" cy="242" rx="30" ry="6" fill="#0a0f15"/><ellipse cx="113.9" cy="219.6" rx="4" ry="5" fill="#ee9d5a" stroke="#182230" stroke-width="1.5"/><line x1="121.3" y1="225.9" x2="113.9" y2="219.6" stroke="#182230" stroke-width="9" stroke-linecap="round"/><line x1="121.3" y1="225.9" x2="113.9" y2="219.6" stroke="#ee9d5a" stroke-width="6" stroke-linecap="round"/><line x1="113.6" y1="218.1" x2="121.3" y2="225.9" stroke="#182230" stroke-width="10" stroke-linecap="round"/><line x1="113.6" y1="218.1" x2="121.3" y2="225.9" stroke="#ee9d5a" stroke-width="7" stroke-linecap="round"/><line x1="159.6" y1="234.3" x2="167.3" y2="241.7" stroke="#182230" stroke-width="10" stroke-linecap="round"/><line x1="159.6" y1="234.3" x2="167.3" y2="241.7" stroke="#ee9d5a" stroke-width="7" stroke-linecap="round"/><line x1="140.1" y1="230.0" x2="149.6" y2="207.1" stroke="#182230" stroke-width="12" stroke-linecap="round"/><line x1="140.1" y1="230.0" x2="149.6" y2="207.1" stroke="#ee9d5a" stroke-width="9" stroke-linecap="round"/><line x1="149.6" y1="207.1" x2="159.6" y2="232.3" stroke="#182230" stroke-width="10" stroke-linecap="round"/><line x1="149.6" y1="207.1" x2="159.6" y2="232.3" stroke="#ee9d5a" stroke-width="7" stroke-linecap="round"/><line x1="128.1" y1="232.1" x2="132.7" y2="210.1" stroke="#182230" stroke-width="12" stroke-linecap="round"/><line x1="128.1" y1="232.1" x2="132.7" y2="210.1" stroke="#5ab6f0" stroke-width="9" stroke-linecap="round"/><line x1="132.7" y1="210.1" x2="145.4" y2="234.8" stroke="#182230" stroke-width="10" stroke-linecap="round"/><line x1="132.7" y1="210.1" x2="145.4" y2="234.8" stroke="#5ab6f0" stroke-width="7" stroke-linecap="round"/><line x1="145.4" y1="236.8" x2="153.2" y2="244.2" stroke="#182230" stroke-width="10" stroke-linecap="round"/><line x1="145.4" y1="236.8" x2="153.2" y2="244.2" stroke="#5ab6f0" stroke-width="7" stroke-linecap="round"/><ellipse cx="149.6" cy="207.1" rx="4" ry="4" fill="#e1e8ec" stroke="#182230" stroke-width="1.5"/><ellipse cx="132.7" cy="210.1" rx="4" ry="4" fill="#e1e8ec" stroke="#182230" stroke-width="1.5"/><line x1="95.3" y1="215.5" x2="108.6" y2="220.9" stroke="#182230" stroke-width="10" stroke-linecap="round"/><line x1="95.3" y1="215.5" x2="108.6" y2="220.9" stroke="#b6c2cc" stroke-width="7" stroke-linecap="round"/><polygon points="102.9,208.1 95.7,226.2 131.9,236.6 136.3,225.5" fill="#b6c2cc" stroke="#182230" stroke-width="2" stroke-linejoin="round"/><ellipse cx="134.1" cy="231.1" rx="10" ry="7" fill="#637487" stroke="#182230" stroke-width="2"/><ellipse cx="82.5" cy="209.0" rx="21" ry="24" fill="#d2dbe1" stroke="#182230" stroke-width="2"/><ellipse cx="83.3" cy="194.1" rx="1.7" ry="2" fill="#182230"/><polygon points="84.6,190.6 88.3,186.2 89.5,192.9" fill="#d2dbe1" stroke="#182230" stroke-width="1"/><polygon points="97.3,215.1 102.3,219.6 100.3,225.6 93.3,224.1 92.3,219.6" fill="#246a9e" stroke="#182230" stroke-width="1.2"/><ellipse cx="64.3" cy="228.5" rx="4" ry="5" fill="#5ab6f0" stroke="#182230" stroke-width="1.5"/><line x1="97.3" y1="221.1" x2="79.2" y2="232.8" stroke="#182230" stroke-width="10" stroke-linecap="round"/><line x1="97.3" y1="221.1" x2="79.2" y2="232.8" stroke="#5ab6f0" stroke-width="7" stroke-linecap="round"/><line x1="79.2" y1="232.8" x2="64.3" y2="228.5" stroke="#182230" stroke-width="9" stroke-linecap="round"/><line x1="79.2" y1="232.8" x2="64.3" y2="228.5" stroke="#5ab6f0" stroke-width="6" stroke-linecap="round"/><animate attributeName="display" values="none;none;none;none;inline" keyTimes="0.0000;0.2778;0.5556;0.7500;0.8750" calcMode="discrete" dur="360ms" repeatCount="indefinite"/></g></g></svg>