<svg xmlns="http://www.w3.org/2000/svg" viewBox="0 0 576 298" width="576" height="298" font-family="sans-serif"><rect width="576" height="298" fill="#121821"/><g transform="translate(0,0)"><rect width="288" height="288" fill="#19202a" stroke="#2c3542"/><line x1="24" y1="40" x2="24" y2="288" stroke="#222b37"/><line x1="48" y1="40" x2="48" y2="288" stroke="#222b37"/><line x1="72" y1="40" x2="72" y2="288" stroke="#222b37"/><line x1="96" y1="40" x2="96" y2="288" stroke="#222b37"/><line x1="120" y1="40" x2="120" y2="288" stroke="#222b37"/><line x1="144" y1="40" x2="144" y2="288" stroke="#222b37"/><line x1="168" y1="40" x2="168" y2="288" stroke="#222b37"/><line x1="192" y1="40" x2="192" y2="288" stroke="#222b37"/><line x1="216" y1="40" x2="216" y2="288" stroke="#222b37"/><line x1="240" y1="40" x2="240" y2="288" stroke="#222b37"/><line x1="264" y1="40" x2="264" y2="288" stroke="#222b37"/><line x1="0" y1="48" x2="288" y2="48" stroke="#222b37"/><line x1="0" y1="72" x2="288" y2="72" stroke="#222b37"/><line x1="0" y1="96" x2="288" y2="96" stroke="#222b37"/><line x1="0" y1="120" x2="288" y2="120" stroke="#222b37"/><line x1="0" y1="144" x2="288" y2="144" stroke="#222b37"/><line x1="0" y1="168" x2="288" y2="168" stroke="#222b37"/><line x1="0" y1="192" x2="288" y2="192" stroke="#222b37"/><line x1="0" y1="216" x2="288" y2="216" stroke="#222b37"/><line x1="0" y1="240" x2="288" y2="240" stroke="#222b37"/><line x1="0" y1="264" x2="288" y2="264" stroke="#222b37"/><text x="8" y="18" font-size="13" fill="#c4d2df">右斜め前</text><g display="inline"><ellipse cx="144.0" cy="242" rx="30" ry="6" fill="#0a0f15"/><path d="M80.4,211.0 Q92.9,204.2 107.2,204.0" fill="none" stroke="#3a1650" stroke-width="6.5" stroke-linecap="round"/><path d="M80.4,211.0 Q92.9,204.2 107.2,204.0" fill="none" stroke="#b36be0" stroke-width="4" stroke-linecap="round"/><ellipse cx="107.2" cy="204.0" rx="4" ry="5" fill="#ee9d5a" stroke="#182230" stroke-width="1.5"/><ellipse cx="107.2" cy="204.0" rx="5.5" ry="3.2" fill="none" stroke="#3a1650" stroke-width="3.5"/><ellipse cx="107.2" cy="204.0" rx="5.5" ry="3.2" fill="none" stroke="#b36be0" stroke-width="2"/><line x1="116.3" y1="214.6" x2="107.2" y2="204.0" stroke="#182230" stroke-width="9" stroke-linecap="round"/><line x1="116.3" y1="214.6" x2="107.2" y2="204.0" stroke="#ee9d5a" stroke-width="6" stroke-linecap="round"/><line x1="123.2" y1="223.5" x2="116.3" y2="214.6" stroke="#182230" stroke-width="10" stroke-linecap="round"/><line x1="123.2" y1="223.5" x2="116.3" y2="214.6" stroke="#ee9d5a" stroke-width="7" stroke-linecap="round"/><ellipse cx="167.5" cy="219.7" rx="4" ry="4" fill="#e1e8ec" stroke="#182230" stroke-width="1.5"/><line x1="167.5" y1="219.7" x2="167.9" y2="231.8" stroke="#182230" stroke-width="10" stroke-linecap="round"/><line x1="167.5" y1="219.7" x2="167.9" y2="231.8" stroke="#ee9d5a" stroke-width="7" stroke-linecap="round"/><line x1="150.0" y1="231.9" x2="167.5" y2="219.7" stroke="#182230" stroke-width="12" stroke-linecap="round"/><line x1="150.0" y1="231.9" x2="167.5" y2="219.7" stroke="#ee9d5a" stroke-width="9" stroke-linecap="round"/><line x1="167.9" y1="233.8" x2="175.1" y2="242.1" stroke="#182230" stroke-width="10" stroke-linecap="round"/><line x1="167.9" y1="233.8" x2="175.1" y2="242.1" stroke="#ee9d5a" stroke-width="7" stroke-linecap="round"/><line x1="148.1" y1="237.4" x2="155.3" y2="245.6" stroke="#182230" stroke-width="10" stroke-linecap="round"/><line x1="148.1" y1="237.4" x2="155.3" y2="245.6" stroke="#5ab6f0" stroke-width="7" stroke-linecap="round"/><line x1="104.9" y1="222.1" x2="118.3" y2="225.8" stroke="#182230" stroke-width="10" stroke-linecap="round"/><line x1="104.9" y1="222.1" x2="118.3" y2="225.8" stroke="#b6c2cc" stroke-width="7" stroke-linecap="round"/><polygon points="111.2,213.7 106.0,232.5 142.4,238.8 145.6,227.2" fill="#b6c2cc" stroke="#182230" stroke-width="2" stroke-linejoin="round"/><ellipse cx="144.0" cy="233.0" rx="10" ry="7" fill="#637487" stroke="#182230" stroke-width="2"/><ellipse cx="91.8" cy="217.9" rx="21" ry="24" fill="#d2dbe1" stroke="#182230" stroke-width="2"/><ellipse cx="91.2" cy="202.8" rx="1.7" ry="2" fill="#182230"/><polygon points="92.4,199.0 96.5,193.7 98.8,200.1" fill="#d2dbe1" stroke="#182230" stroke-width="1"/><line x1="86.5" y1="218.3" x2="74.4" y2="209.9" stroke="#182230" stroke-width="9" stroke-linecap="round"/><line x1="86.5" y1="218.3" x2="74.4" y2="209.9" stroke="#5ab6f0" stroke-width="6" stroke-linecap="round"/><ellipse cx="74.4" cy="209.9" rx="4" ry="5" fill="#5ab6f0" stroke="#182230" stroke-width="1.5"/><path d="M60.6,214.5 Q66.9,210.5 74.4,209.9" fill="none" stroke="#3a1650" stroke-width="6.5" stroke-linecap="round"/><path d="M60.6,214.5 Q66.9,210.5 74.4,209.9" fill="none" stroke="#b36be0" stroke-width="4" stroke-linecap="round"/><ellipse cx="74.4" cy="209.9" rx="5.5" ry="3.2" fill="none" stroke="#3a1650" stroke-width="3.5"/><ellipse cx="74.4" cy="209.9" rx="5.5" ry="3.2" fill="none" stroke="#b36be0" stroke-width="2"/><line x1="106.9" y1="226.4" x2="86.5" y2="218.3" stroke="#182230" stroke-width="10" stroke-linecap="round"/><line x1="106.9" y1="226.4" x2="86.5" y2="218.3" stroke="#5ab6f0" stroke-width="7" stroke-linecap="round"/><polygon points="106.9,220.4 111.9,224.9 109.9,230.9 102.9,229.4 101.9,224.9" fill="#246a9e" stroke="#182230" stroke-width="1.2"/><line x1="138.0" y1="234.1" x2="121.1" y2="228.1" stroke="#182230" stroke-width="12" stroke-linecap="round"/><line x1="138.0" y1="234.1" x2="121.1" y2="228.1" stroke="#5ab6f0" stroke-width="9" stroke-linecap="round"/><ellipse cx="121.1" cy="228.1" rx="4" ry="4" fill="#e1e8ec" stroke="#182230" stroke-width="1.5"/><line x1="121.1" y1="228.1" x2="148.1" y2="235.4" stroke="#182230" stroke-width="10" stroke-linecap="round"/><line x1="121.1" y1="228.1" x2="148.1" y2="235.4" stroke="#5ab6f0" stroke-width="7" stroke-linecap="round"/><animate attributeName="display" values="inline;none;none;none;none" keyTimes="0.0000;0.1525;0.3051;0.4237;0.7119" calcMode="discrete" dur="590ms" repeatCount="indefinite"/></g><g display="none"><ellipse cx="144.0" cy="242" rx="30" ry="6" fill="#0a0f15"/><path d="M80.4,211.0 Q92.9,204.2 107.2,204.0" fill="none" stroke="#3a1650" stroke-width="6.5" stroke-linecap="round"/><path d="M80.4,211.0 Q92.9,204.2 107.2,204.0" fill="none" stroke="#b36be0" stroke-width="4" stroke-linecap="round"/><ellipse cx="107.2" cy="204.0" rx="4" ry="5" fill="#ee9d5a" stroke="#182230" stroke-width="1.5"/><ellipse cx="107.2" cy="204.0" rx="5.5" ry="3.2" fill="none" stroke="#3a1650" stroke-width="3.5"/><ellipse cx="107.2" cy="204.0" rx="5.5" ry="3.2" fill="none" stroke="#b36be0" stroke-width="2"/><line x1="116.3" y1="214.6" x2="107.2" y2="204.0" stroke="#182230" stroke-width="9" stroke-linecap="round"/><line x1="116.3" y1="214.6" x2="107.2" y2="204.0" stroke="#ee9d5a" stroke-width="6" stroke-linecap="round"/><line x1="123.2" y1="223.5" x2="116.3" y2="214.6" stroke="#182230" stroke-width="10" stroke-linecap="round"/><line x1="123.2" y1="223.5" x2="116.3" y2="214.6" stroke="#ee9d5a" stroke-width="7" stroke-linecap="round"/><ellipse cx="168.6" cy="222.2" rx="4" ry="4" fill="#e1e8ec" stroke="#182230" stroke-width="1.5"/><line x1="168.6" y1="222.2" x2="165.2" y2="232.8" stroke="#182230" stroke-width="10" stroke-linecap="round"/><line x1="168.6" y1="222.2" x2="165.2" y2="232.8" stroke="#ee9d5a" stroke-width="7" stroke-linecap="round"/><line x1="150.0" y1="231.9" x2="168.6" y2="222.2" stroke="#182230" stroke-width="12" stroke-linecap="round"/><line x1="150.0" y1="231.9" x2="168.6" y2="222.2" stroke="#ee9d5a" stroke-width="9" stroke-linecap="round"/><line x1="165.2" y1="234.8" x2="173.0" y2="242.2" stroke="#182230" stroke-width="10" stroke-linecap="round"/><line x1="165.2" y1="234.8" x2="173.0" y2="242.2" stroke="#ee9d5a" stroke-width="7" stroke-linecap="round"/><line x1="148.2" y1="237.8" x2="156.0" y2="245.2" stroke="#182230" stroke-width="10" stroke-linecap="round"/><line x1="148.2" y1="237.8" x2="156.0" y2="245.2" stroke="#5ab6f0" stroke-width="7" stroke-linecap="round"/><line x1="104.9" y1="222.1" x2="118.3" y2="225.8" stroke="#182230" stroke-width="10" stroke-linecap="round"/><line x1="104.9" y1="222.1" x2="118.3" y2="225.8" stroke="#b6c2cc" stroke-width="7" stroke-linecap="round"/><polygon points="111.2,213.7 106.0,232.5 142.4,238.8 145.6,227.2" fill="#b6c2cc" stroke="#182230" stroke-width="2" stroke-linejoin="round"/><ellipse cx="144.0" cy="233.0" rx="10" ry="7" fill="#637487" stroke="#182230" stroke-width="2"/><ellipse cx="91.8" cy="217.9" rx="21" ry="24" fill="#d2dbe1" stroke="#182230" stroke-width="2"/><ellipse cx="91.2" cy="202.8" rx="1.7" ry="2" fill="#182230"/><polygon points="92.4,199.0 96.6,193.7 98.9,200.1" fill="#d2dbe1" stroke="#182230" stroke-width="1"/><line x1="86.5" y1="218.3" x2="74.4" y2="209.9" stroke="#182230" stroke-width="9" stroke-linecap="round"/><line x1="86.5" y1="218.3" x2="74.4" y2="209.9" stroke="#5ab6f0" stroke-width="6" stroke-linecap="round"/><ellipse cx="74.4" cy="209.9" rx="4" ry="5" fill="#5ab6f0" stroke="#182230" stroke-width="1.5"/><path d="M60.6,214.5 Q66.9,210.5 74.4,209.9" fill="none" stroke="#3a1650" stroke-width="6.5" stroke-linecap="round"/><path d="M60.6,214.5 Q66.9,210.5 74.4,209.9" fill="none" stroke="#b36be0" stroke-width="4" stroke-linecap="round"/><ellipse cx="74.4" cy="209.9" rx="5.5" ry="3.2" fill="none" stroke="#3a1650" stroke-width="3.5"/><ellipse cx="74.4" cy="209.9" rx="5.5" ry="3.2" fill="none" stroke="#b36be0" stroke-width="2"/><line x1="106.9" y1="226.4" x2="86.5" y2="218.3" stroke="#182230" stroke-width="10" stroke-linecap="round"/><line x1="106.9" y1="226.4" x2="86.5" y2="218.3" stroke="#5ab6f0" stroke-width="7" stroke-linecap="round"/><polygon points="106.9,220.4 111.9,224.9 109.9,230.9 102.9,229.4 101.9,224.9" fill="#246a9e" stroke="#182230" stroke-width="1.2"/><line x1="138.0" y1="234.1" x2="121.0" y2="230.8" stroke="#182230" stroke-width="12" stroke-linecap="round"/><line x1="138.0" y1="234.1" x2="121.0" y2="230.8" stroke="#5ab6f0" stroke-width="9" stroke-linecap="round"/><line x1="121.0" y1="230.8" x2="148.2" y2="235.8" stroke="#182230" stroke-width="10" stroke-linecap="round"/><line x1="121.0" y1="230.8" x2="148.2" y2="235.8" stroke="#5ab6f0" stroke-width="7" stroke-linecap="round"/><ellipse cx="121.0" cy="230.8" rx="4" ry="4" fill="#e1e8ec" stroke="#182230" stroke-width="1.5"/><animate attributeName="display" values="none;inline;none;none;none" keyTimes="0.0000;0.1525;0.3051;0.4237;0.7119" calcMode="discrete" dur="590ms" repeatCount="indefinite"/></g><g display="none"><ellipse cx="144.0" cy="242" rx="30" ry="6" fill="#0a0f15"/><ellipse cx="115.2" cy="212.3" rx="4" ry="5" fill="#ee9d5a" stroke="#182230" stroke-width="1.5"/><line x1="124.2" y1="223.1" x2="115.2" y2="212.3" stroke="#182230" stroke-width="9" stroke-linecap="round"/><line x1="124.2" y1="223.1" x2="115.2" y2="212.3" stroke="#ee9d5a" stroke-width="6" stroke-linecap="round"/><line x1="123.2" y1="223.5" x2="124.2" y2="223.1" stroke="#182230" stroke-width="10" stroke-linecap="round"/><line x1="123.2" y1="223.5" x2="124.2" y2="223.1" stroke="#ee9d5a" stroke-width="7" stroke-linecap="round"/><ellipse cx="168.6" cy="222.2" rx="4" ry="4" fill="#e1e8ec" stroke="#182230" stroke-width="1.5"/><line x1="168.6" y1="222.2" x2="165.2" y2="232.8" stroke="#182230" stroke-width="10" stroke-linecap="round"/><line x1="168.6" y1="222.2" x2="165.2" y2="232.8" stroke="#ee9d5a" stroke-width="7" stroke-linecap="round"/><line x1="150.0" y1="231.9" x2="168.6" y2="222.2" stroke="#182230" stroke-width="12" stroke-linecap="round"/><line x1="150.0" y1="231.9" x2="168.6" y2="222.2" stroke="#ee9d5a" stroke-width="9" stroke-linecap="round"/><line x1="165.2" y1="234.8" x2="173.0" y2="242.2" stroke="#182230" stroke-width="10" stroke-linecap="round"/><line x1="165.2" y1="234.8" x2="173.0" y2="242.2" stroke="#ee9d5a" stroke-width="7" stroke-linecap="round"/><line x1="148.2" y1="237.8" x2="156.0" y2="245.2" stroke="#182230" stroke-width="10" stroke-linecap="round"/><line x1="148.2" y1="237.8" x2="156.0" y2="245.2" stroke="#5ab6f0" stroke-width="7" stroke-linecap="round"/><line x1="104.9" y1="222.1" x2="118.3" y2="225.8" stroke="#182230" stroke-width="10" stroke-linecap="round"/><line x1="104.9" y1="222.1" x2="118.3" y2="225.8" stroke="#b6c2cc" stroke-width="7" stroke-linecap="round"/><polygon points="111.2,213.7 106.0,232.5 142.4,238.8 145.6,227.2" fill="#b6c2cc" stroke="#182230" stroke-width="2" stroke-linejoin="round"/><ellipse cx="144.0" cy="233.0" rx="10" ry="7" fill="#637487" stroke="#182230" stroke-width="2"/><ellipse cx="91.8" cy="217.9" rx="21" ry="24" fill="#d2dbe1" stroke="#182230" stroke-width="2"/><ellipse cx="91.2" cy="202.8" rx="1.7" ry="2" fill="#182230"/><polygon points="92.4,199.0 96.6,193.7 98.9,200.1" fill="#d2dbe1" stroke="#182230" stroke-width="1"/><ellipse cx="73.0" cy="219.9" rx="4" ry="5" fill="#5ab6f0" stroke="#182230" stroke-width="1.5"/><line x1="84.8" y1="228.2" x2="73.0" y2="219.9" stroke="#182230" stroke-width="9" stroke-linecap="round"/><line x1="84.8" y1="228.2" x2="73.0" y2="219.9" stroke="#5ab6f0" stroke-width="6" stroke-linecap="round"/><polygon points="106.9,220.4 111.9,224.9 109.9,230.9 102.9,229.4 101.9,224.9" fill="#246a9e" stroke="#182230" stroke-width="1.2"/><line x1="106.9" y1="226.4" x2="84.8" y2="228.2" stroke="#182230" stroke-width="10" stroke-linecap="round"/><line x1="106.9" y1="226.4" x2="84.8" y2="228.2" stroke="#5ab6f0" stroke-width="7" stroke-linecap="round"/><line x1="138.0" y1="234.1" x2="121.0" y2="230.8" stroke="#182230" stroke-width="12" stroke-linecap="round"/><line x1="138.0" y1="234.1" x2="121.0" y2="230.8" stroke="#5ab6f0" stroke-width="9" stroke-linecap="round"/><line x1="121.0" y1="230.8" x2="148.2" y2="235.8" stroke="#182230" stroke-width="10" stroke-linecap="round"/><line x1="121.0" y1="230.8" x2="148.2" y2="235.8" stroke="#5ab6f0" stroke-width="7" stroke-linecap="round"/><ellipse cx="121.0" cy="230.8" rx="4" ry="4" fill="#e1e8ec" stroke="#182230" stroke-width="1.5"/><animate attributeName="display" values="none;none;inline;none;none" keyTimes="0.0000;0.1525;0.3051;0.4237;0.7119" calcMode="discrete" dur="590ms" repeatCount="indefinite"/></g><g display="none"><ellipse cx="144.0" cy="242" rx="30" ry="6" fill="#0a0f15"/><ellipse cx="123.2" cy="220.7" rx="4" ry="5" fill="#ee9d5a" stroke="#182230" stroke-width="1.5"/><line x1="128.9" y1="228.3" x2="123.2" y2="220.7" stroke="#182230" stroke-width="9" stroke-linecap="round"/><line x1="128.9" y1="228.3" x2="123.2" y2="220.7" stroke="#ee9d5a" stroke-width="6" stroke-linecap="round"/><line x1="123.2" y1="223.5" x2="128.9" y2="228.3" stroke="#182230" stroke-width="10" stroke-linecap="round"/><line x1="123.2" y1="223.5" x2="128.9" y2="228.3" stroke="#ee9d5a" stroke-width="7" stroke-linecap="round"/><ellipse cx="168.6" cy="222.2" rx="4" ry="4" fill="#e1e8ec" stroke="#182230" stroke-width="1.5"/><line x1="168.6" y1="222.2" x2="165.2" y2="232.8" stroke="#182230" stroke-width="10" stroke-linecap="round"/><line x1="168.6" y1="222.2" x2="165.2" y2="232.8" stroke="#ee9d5a" stroke-width="7" stroke-linecap="round"/><line x1="150.0" y1="231.9" x2="168.6" y2="222.2" stroke="#182230" stroke-width="12" stroke-linecap="round"/><line x1="150.0" y1="231.9" x2="168.6" y2="222.2" stroke="#ee9d5a" stroke-width="9" stroke-linecap="round"/><line x1="165.2" y1="234.8" x2="173.0" y2="242.2" stroke="#182230" stroke-width="10" stroke-linecap="round"/><line x1="165.2" y1="234.8" x2="173.0" y2="242.2" stroke="#ee9d5a" stroke-width="7" stroke-linecap="round"/><line x1="148.2" y1="237.8" x2="156.0" y2="245.2" stroke="#182230" stroke-width="10" stroke-linecap="round"/><line x1="148.2" y1="237.8" x2="156.0" y2="245.2" stroke="#5ab6f0" stroke-width="7" stroke-linecap="round"/><line x1="104.9" y1="222.1" x2="118.3" y2="225.8" stroke="#182230" stroke-width="10" stroke-linecap="round"/><line x1="104.9" y1="222.1" x2="118.3" y2="225.8" stroke="#b6c2cc" stroke-width="7" stroke-linecap="round"/><polygon points="111.2,213.7 106.0,232.5 142.4,238.8 145.6,227.2" fill="#b6c2cc" stroke="#182230" stroke-width="2" stroke-linejoin="round"/><ellipse cx="144.0" cy="233.0" rx="10" ry="7" fill="#637487" stroke="#182230" stroke-width="2"/><ellipse cx="91.8" cy="217.9" rx="21" ry="24" fill="#d2dbe1" stroke="#182230" stroke-width="2"/><ellipse cx="91.2" cy="202.8" rx="1.7" ry="2" fill="#182230"/><polygon points="92.4,199.0 96.6,193.7 98.9,200.1" fill="#d2dbe1" stroke="#182230" stroke-width="1"/><ellipse cx="71.5" cy="230.0" rx="4" ry="5" fill="#5ab6f0" stroke="#182230" stroke-width="1.5"/><polygon points="106.9,220.4 111.9,224.9 109.9,230.9 102.9,229.4 101.9,224.9" fill="#246a9e" stroke="#182230" stroke-width="1.2"/><line x1="106.9" y1="226.4" x2="87.0" y2="235.7" stroke="#182230" stroke-width="10" stroke-linecap="round"/><line x1="106.9" y1="226.4" x2="87.0" y2="235.7" stroke="#5ab6f0" stroke-width="7" stroke-linecap="round"/><line x1="87.0" y1="235.7" x2="71.5" y2="230.0" stroke="#182230" stroke-width="9" stroke-linecap="round"/><line x1="87.0" y1="235.7" x2="71.5" y2="230.0" stroke="#5ab6f0" stroke-width="6" stroke-linecap="round"/><line x1="138.0" y1="234.1" x2="121.0" y2="230.8" stroke="#182230" stroke-width="12" stroke-linecap="round"/><line x1="138.0" y1="234.1" x2="121.0" y2="230.8" stroke="#5ab6f0" stroke-width="9" stroke-linecap="round"/><line x1="121.0" y1="230.8" x2="148.2" y2="235.8" stroke="#182230" stroke-width="10" stroke-linecap="round"/><line x1="121.0" y1="230.8" x2="148.2" y2="235.8" stroke="#5ab6f0" stroke-width="7" stroke-linecap="round"/><ellipse cx="121.0" cy="230.8" rx="4" ry="4" fill="#e1e8ec" stroke="#182230" stroke-width="1.5"/><animate attributeName="display" values="none;none;none;inline;none" keyTimes="0.0000;0.1525;0.3051;0.4237;0.7119" calcMode="discrete" dur="590ms" repeatCount="indefinite"/></g><g display="none"><ellipse cx="144.0" cy="242" rx="30" ry="6" fill="#0a0f15"/><ellipse cx="122.3" cy="220.4" rx="4" ry="5" fill="#ee9d5a" stroke="#182230" stroke-width="1.5"/><line x1="128.1" y1="228.1" x2="122.3" y2="220.4" stroke="#182230" stroke-width="9" stroke-linecap="round"/><line x1="128.1" y1="228.1" x2="122.3" y2="220.4" stroke="#ee9d5a" stroke-width="6" stroke-linecap="round"/><line x1="122.3" y1="223.2" x2="128.1" y2="228.1" stroke="#182230" stroke-width="10" stroke-linecap="round"/><line x1="122.3" y1="223.2" x2="128.1" y2="228.1" stroke="#ee9d5a" stroke-width="7" stroke-linecap="round"/><ellipse cx="168.6" cy="222.2" rx="4" ry="4" fill="#e1e8ec" stroke="#182230" stroke-width="1.5"/><line x1="168.6" y1="222.2" x2="165.2" y2="232.8" stroke="#182230" stroke-width="10" stroke-linecap="round"/><line x1="168.6" y1="222.2" x2="165.2" y2="232.8" stroke="#ee9d5a" stroke-width="7" stroke-linecap="round"/><line x1="150.0" y1="231.9" x2="168.6" y2="222.2" stroke="#182230" stroke-width="12" stroke-linecap="round"/><line x1="150.0" y1="231.9" x2="168.6" y2="222.2" stroke="#ee9d5a" stroke-width="9" stroke-linecap="round"/><line x1="165.2" y1="234.8" x2="173.0" y2="242.2" stroke="#182230" stroke-width="10" stroke-linecap="round"/><line x1="165.2" y1="234.8" x2="173.0" y2="242.2" stroke="#ee9d5a" stroke-width="7" stroke-linecap="round"/><line x1="148.2" y1="237.8" x2="156.0" y2="245.2" stroke="#182230" stroke-width="10" stroke-linecap="round"/><line x1="148.2" y1="237.8" x2="156.0" y2="245.2" stroke="#5ab6f0" stroke-width="7" stroke-linecap="round"/><line x1="104.9" y1="222.1" x2="118.3" y2="225.8" stroke="#182230" stroke-width="10" stroke-linecap="round"/><line x1="104.9" y1="222.1" x2="118.3" y2="225.8" stroke="#b6c2cc" stroke-width="7" stroke-linecap="round"/><polygon points="111.2,213.7 106.0,232.5 142.4,238.8 145.6,227.2" fill="#b6c2cc" stroke="#182230" stroke-width="2" stroke-linejoin="round"/><ellipse cx="144.0" cy="233.0" rx="10" ry="7" fill="#637487" stroke="#182230" stroke-width="2"/><ellipse cx="91.8" cy="217.9" rx="21" ry="24" fill="#d2dbe1" stroke="#182230" stroke-width="2"/><ellipse cx="91.2" cy="202.8" rx="1.7" ry="2" fill="#182230"/><polygon points="92.4,199.0 96.6,193.7 98.9,200.1" fill="#d2dbe1" stroke="#182230" stroke-width="1"/><ellipse cx="70.6" cy="229.7" rx="4" ry="5" fill="#5ab6f0" stroke="#182230" stroke-width="1.5"/><polygon points="106.0,220.1 111.0,224.6 109.0,230.6 102.0,229.1 101.0,224.6" fill="#246a9e" stroke="#182230" stroke-width="1.2"/><line x1="106.0" y1="226.1" x2="86.1" y2="235.4" stroke="#182230" stroke-width="10" stroke-linecap="round"/><line x1="106.0" y1="226.1" x2="86.1" y2="235.4" stroke="#5ab6f0" stroke-width="7" stroke-linecap="round"/><line x1="86.1" y1="235.4" x2="70.6" y2="229.7" stroke="#182230" stroke-width="9" stroke-linecap="round"/><line x1="86.1" y1="235.4" x2="70.6" y2="229.7" stroke="#5ab6f0" stroke-width="6" stroke-linecap="round"/><line x1="138.0" y1="234.1" x2="121.0" y2="230.8" stroke="#182230" stroke-width="12" stroke-linecap="round"/><line x1="138.0" y1="234.1" x2="121.0" y2="230.8" stroke="#5ab6f0" stroke-width="9" stroke-linecap="round"/><line x1="121.0" y1="230.8" x2="148.2" y2="235.8" stroke="#182230" stroke-width="10" stroke-linecap="round"/><line x1="121.0" y1="230.8" x2="148.2" y2="235.8" stroke="#5ab6f0" stroke-width="7" stroke-linecap="round"/><ellipse cx="121.0" cy="230.8" rx="4" ry="4" fill="#e1e8ec" stroke="#182230" stroke-width="1.5"/><animate attributeName="display" values="none;none;none;none;inline" keyTimes="0.0000;0.1525;0.3051;0.4237;0.7119" calcMode="discrete" dur="590ms" repeatCount="indefinite"/></g></g><g transform="translate(288,0)"><rect width="288" height="288" fill="#19202a" stroke="#2c3542"/><line x1="24" y1="40" x2="24" y2="288" stroke="#222b37"/><line x1="48" y1="40" x2="48" y2="288" stroke="#222b37"/><line x1="72" y1="40" x2="72" y2="288" stroke="#222b37"/><line x1="96" y1="40" x2="96" y2="288" stroke="#222b37"/><line x1="120" y1="40" x2="120" y2="288" stroke="#222b37"/><line x1="144" y1="40" x2="144" y2="288" stroke="#222b37"/><line x1="168" y1="40" x2="168" y2="288" stroke="#222b37"/><line x1="192" y1="40" x2="192" y2="288" stroke="#222b37"/><line x1="216" y1="40" x2="216" y2="288" stroke="#222b37"/><line x1="240" y1="40" x2="240" y2="288" stroke="#222b37"/><line x1="264" y1="40" x2="264" y2="288" stroke="#222b37"/><line x1="0" y1="48" x2="288" y2="48" stroke="#222b37"/><line x1="0" y1="72" x2="288" y2="72" stroke="#222b37"/><line x1="0" y1="96" x2="288" y2="96" stroke="#222b37"/><line x1="0" y1="120" x2="288" y2="120" stroke="#222b37"/><line x1="0" y1="144" x2="288" y2="144" stroke="#222b37"/><line x1="0" y1="168" x2="288" y2="168" stroke="#222b37"/><line x1="0" y1="192" x2="288" y2="192" stroke="#222b37"/><line x1="0" y1="216" x2="288" y2="216" stroke="#222b37"/><line x1="0" y1="240" x2="288" y2="240" stroke="#222b37"/><line x1="0" y1="264" x2="288" y2="264" stroke="#222b37"/><text x="8" y="18" font-size="13" fill="#c4d2df">右</text><g display="inline"><ellipse cx="144.0" cy="242" rx="30" ry="6" fill="#0a0f15"/><ellipse cx="144.4" cy="217.9" rx="4" ry="4" fill="#e1e8ec" stroke="#182230" stroke-width="1.5"/><line x1="144.4" y1="217.9" x2="163.8" y2="228.6" stroke="#182230" stroke-width="10" stroke-linecap="round"/><line x1="144.4" y1="217.9" x2="163.8" y2="228.6" stroke="#ee9d5a" stroke-width="7" stroke-linecap="round"/><path d="M40.0,223.5 Q53.0,214.4 68.8,212.3" fill="none" stroke="#3a1650" stroke-width="6.5" stroke-linecap="round"/><path d="M40.0,223.5 Q53.0,214.4 68.8,212.3" fill="none" stroke="#b36be0" stroke-width="4" stroke-linecap="round"/><ellipse cx="68.8" cy="212.3" rx="4" ry="5" fill="#ee9d5a" stroke="#182230" stroke-width="1.5"/><ellipse cx="68.8" cy="212.3" rx="5.5" ry="3.2" fill="none" stroke="#3a1650" stroke-width="3.5"/><ellipse cx="68.8" cy="212.3" rx="5.5" ry="3.2" fill="none" stroke="#b36be0" stroke-width="2"/><line x1="83.6" y1="221.2" x2="68.8" y2="212.3" stroke="#182230" stroke-width="9" stroke-linecap="round"/><line x1="83.6" y1="221.2" x2="68.8" y2="212.3" stroke="#ee9d5a" stroke-width="6" stroke-linecap="round"/><line x1="144.0" y1="231.5" x2="144.4" y2="217.9" stroke="#182230" stroke-width="12" stroke-linecap="round"/><line x1="144.0" y1="231.5" x2="144.4" y2="217.9" stroke="#ee9d5a" stroke-width="9" stroke-linecap="round"/><line x1="103.1" y1="228.1" x2="83.6" y2="221.2" stroke="#182230" stroke-width="10" stroke-linecap="round"/><line x1="103.1" y1="228.1" x2="83.6" y2="221.2" stroke="#ee9d5a" stroke-width="7" stroke-linecap="round"/><line x1="163.8" y1="230.6" x2="174.0" y2="237.5" stroke="#182230" stroke-width="10" stroke-linecap="round"/><line x1="163.8" y1="230.6" x2="174.0" y2="237.5" stroke="#ee9d5a" stroke-width="7" stroke-linecap="round"/><line x1="88.6" y1="229.1" x2="107.6" y2="230.5" stroke="#182230" stroke-width="10" stroke-linecap="round"/><line x1="88.6" y1="229.1" x2="107.6" y2="230.5" stroke="#b6c2cc" stroke-width="7" stroke-linecap="round"/><polygon points="98.2,221.8 97.1,237.7 143.6,239.0 144.4,227.0" fill="#b6c2cc" stroke="#182230" stroke-width="2" stroke-linejoin="round"/><ellipse cx="144.0" cy="233.0" rx="10" ry="7" fill="#637487" stroke="#182230" stroke-width="2"/><ellipse cx="70.2" cy="227.3" rx="21" ry="24" fill="#d2dbe1" stroke="#182230" stroke-width="2"/><ellipse cx="69.6" cy="212.3" rx="1.7" ry="2" fill="#182230"/><polygon points="70.8,208.3 75.0,202.4 77.3,208.4" fill="#d2dbe1" stroke="#182230" stroke-width="1"/><polygon points="103.1,226.2 108.1,230.7 106.1,236.7 99.1,235.2 98.1,230.7" fill="#246a9e" stroke="#182230" stroke-width="1.2"/><line x1="163.8" y1="235.6" x2="174.0" y2="242.6" stroke="#182230" stroke-width="10" stroke-linecap="round"/><line x1="163.8" y1="235.6" x2="174.0" y2="242.6" stroke="#5ab6f0" stroke-width="7" stroke-linecap="round"/><line x1="103.1" y1="232.2" x2="84.6" y2="227.0" stroke="#182230" stroke-width="10" stroke-linecap="round"/><line x1="103.1" y1="232.2" x2="84.6" y2="227.0" stroke="#5ab6f0" stroke-width="7" stroke-linecap="round"/><line x1="144.0" y1="234.5" x2="144.4" y2="229.7" stroke="#182230" stroke-width="12" stroke-linecap="round"/><line x1="144.0" y1="234.5" x2="144.4" y2="229.7" stroke="#5ab6f0" stroke-width="9" stroke-linecap="round"/><line x1="84.6" y1="227.0" x2="68.8" y2="220.7" stroke="#182230" stroke-width="9" stroke-linecap="round"/><line x1="84.6" y1="227.0" x2="68.8" y2="220.7" stroke="#5ab6f0" stroke-width="6" stroke-linecap="round"/><path d="M40.0,228.5 Q53.4,221.1 68.8,220.7" fill="none" stroke="#3a1650" stroke-width="6.5" stroke-linecap="round"/><path d="M40.0,228.5 Q53.4,221.1 68.8,220.7" fill="none" stroke="#b36be0" stroke-width="4" stroke-linecap="round"/><ellipse cx="68.8" cy="220.7" rx="4" ry="5" fill="#5ab6f0" stroke="#182230" stroke-width="1.5"/><line x1="144.4" y1="229.7" x2="163.8" y2="233.6" stroke="#182230" stroke-width="10" stroke-linecap="round"/><line x1="144.4" y1="229.7" x2="163.8" y2="233.6" stroke="#5ab6f0" stroke-width="7" stroke-linecap="round"/><ellipse cx="68.8" cy="220.7" rx="5.5" ry="3.2" fill="none" stroke="#3a1650" stroke-width="3.5"/><ellipse cx="68.8" cy="220.7" rx="5.5" ry="3.2" fill="none" stroke="#b36be0" stroke-width="2"/><ellipse cx="144.4" cy="229.7" rx="4" ry="4" fill="#e1e8ec" stroke="#182230" stroke-width="1.5"/><animate attributeName="display" values="inline;none;none;none;none" keyTimes="0.0000;0.1525;0.3051;0.4237;0.7119" calcMode="discrete" dur="590ms" repeatCount="indefinite"/></g><g display="none"><ellipse cx="144.0" cy="242" rx="30" ry="6" fill="#0a0f15"/><ellipse cx="145.1" cy="220.3" rx="4" ry="4" fill="#e1e8ec" stroke="#182230" stroke-width="1.5"/><path d="M40.0,223.5 Q53.0,214.4 68.8,212.3" fill="none" stroke="#3a1650" stroke-width="6.5" stroke-linecap="round"/><path d="M40.0,223.5 Q53.0,214.4 68.8,212.3" fill="none" stroke="#b36be0" stroke-width="4" stroke-linecap="round"/><ellipse cx="68.8" cy="212.3" rx="4" ry="5" fill="#ee9d5a" stroke="#182230" stroke-width="1.5"/><line x1="145.1" y1="220.3" x2="162.0" y2="229.8" stroke="#182230" stroke-width="10" stroke-linecap="round"/><line x1="145.1" y1="220.3" x2="162.0" y2="229.8" stroke="#ee9d5a" stroke-width="7" stroke-linecap="round"/><ellipse cx="68.8" cy="212.3" rx="5.5" ry="3.2" fill="none" stroke="#3a1650" stroke-width="3.5"/><ellipse cx="68.8" cy="212.3" rx="5.5" ry="3.2" fill="none" stroke="#b36be0" stroke-width="2"/><line x1="83.6" y1="221.2" x2="68.8" y2="212.3" stroke="#182230" stroke-width="9" stroke-linecap="round"/><line x1="83.6" y1="221.2" x2="68.8" y2="212.3" stroke="#ee9d5a" stroke-width="6" stroke-linecap="round"/><line x1="144.0" y1="231.5" x2="145.1" y2="220.3" stroke="#182230" stroke-width="12" stroke-linecap="round"/><line x1="144.0" y1="231.5" x2="145.1" y2="220.3" stroke="#ee9d5a" stroke-width="9" stroke-linecap="round"/><line x1="103.1" y1="228.1" x2="83.6" y2="221.2" stroke="#182230" stroke-width="10" stroke-linecap="round"/><line x1="103.1" y1="228.1" x2="83.6" y2="221.2" stroke="#ee9d5a" stroke-width="7" stroke-linecap="round"/><line x1="162.0" y1="231.8" x2="173.0" y2="237.8" stroke="#182230" stroke-width="10" stroke-linecap="round"/><line x1="162.0" y1="231.8" x2="173.0" y2="237.8" stroke="#ee9d5a" stroke-width="7" stroke-linecap="round"/><line x1="88.6" y1="229.1" x2="107.6" y2="230.5" stroke="#182230" stroke-width="10" stroke-linecap="round"/><line x1="88.6" y1="229.1" x2="107.6" y2="230.5" stroke="#b6c2cc" stroke-width="7" stroke-linecap="round"/><polygon points="98.2,221.8 97.1,237.7 143.6,239.0 144.4,227.0" fill="#b6c2cc" stroke="#182230" stroke-width="2" stroke-linejoin="round"/><ellipse cx="144.0" cy="233.0" rx="10" ry="7" fill="#637487" stroke="#182230" stroke-width="2"/><ellipse cx="70.2" cy="227.3" rx="21" ry="24" fill="#d2dbe1" stroke="#182230" stroke-width="2"/><ellipse cx="69.6" cy="212.3" rx="1.7" ry="2" fill="#182230"/><polygon points="70.8,208.3 75.0,202.3 77.3,208.4" fill="#d2dbe1" stroke="#182230" stroke-width="1"/><polygon points="103.1,226.2 108.1,230.7 106.1,236.7 99.1,235.2 98.1,230.7" fill="#246a9e" stroke="#182230" stroke-width="1.2"/><line x1="162.0" y1="236.2" x2="173.0" y2="242.2" stroke="#182230" stroke-width="10" stroke-linecap="round"/><line x1="162.0" y1="236.2" x2="173.0" y2="242.2" stroke="#5ab6f0" stroke-width="7" stroke-linecap="round"/><line x1="103.1" y1="232.2" x2="84.6" y2="227.0" stroke="#182230" stroke-width="10" stroke-linecap="round"/><line x1="103.1" y1="232.2" x2="84.6" y2="227.0" stroke="#5ab6f0" stroke-width="7" stroke-linecap="round"/><line x1="144.0" y1="234.5" x2="145.1" y2="232.4" stroke="#182230" stroke-width="12" stroke-linecap="round"/><line x1="144.0" y1="234.5" x2="145.1" y2="232.4" stroke="#5ab6f0" stroke-width="9" stroke-linecap="round"/><line x1="84.6" y1="227.0" x2="68.8" y2="220.7" stroke="#182230" stroke-width="9" stroke-linecap="round"/><line x1="84.6" y1="227.0" x2="68.8" y2="220.7" stroke="#5ab6f0" stroke-width="6" stroke-linecap="round"/><line x1="145.1" y1="232.4" x2="162.0" y2="234.2" stroke="#182230" stroke-width="10" stroke-linecap="round"/><line x1="145.1" y1="232.4" x2="162.0" y2="234.2" stroke="#5ab6f0" stroke-width="7" stroke-linecap="round"/><path d="M40.0,228.5 Q53.4,221.1 68.8,220.7" fill="none" stroke="#3a1650" stroke-width="6.5" stroke-linecap="round"/><path d="M40.0,228.5 Q53.4,221.1 68.8,220.7" fill="none" stroke="#b36be0" stroke-width="4" stroke-linecap="round"/><ellipse cx="68.8" cy="220.7" rx="4" ry="5" fill="#5ab6f0" stroke="#182230" stroke-width="1.5"/><ellipse cx="68.8" cy="220.7" rx="5.5" ry="3.2" fill="none" stroke="#3a1650" stroke-width="3.5"/><ellipse cx="68.8" cy="220.7" rx="5.5" ry="3.2" fill="none" stroke="#b36be0" stroke-width="2"/><ellipse cx="145.1" cy="232.4" rx="4" ry="4" fill="#e1e8ec" stroke="#182230" stroke-width="1.5"/><animate attributeName="display" values="none;inline;none;none;none" keyTimes="0.0000;0.1525;0.3051;0.4237;0.7119" calcMode="discrete" dur="590ms" repeatCount="indefinite"/></g><g display="none"><ellipse cx="144.0" cy="242" rx="30" ry="6" fill="#0a0f15"/><ellipse cx="145.1" cy="220.3" rx="4" ry="4" fill="#e1e8ec" stroke="#182230" stroke-width="1.5"/><ellipse cx="73.4" cy="219.7" rx="4" ry="5" fill="#ee9d5a" stroke="#182230" stroke-width="1.5"/><line x1="88.1" y1="228.7" x2="73.4" y2="219.7" stroke="#182230" stroke-width="9" stroke-linecap="round"/><line x1="88.1" y1="228.7" x2="73.4" y2="219.7" stroke="#ee9d5a" stroke-width="6" stroke-linecap="round"/><line x1="145.1" y1="220.3" x2="162.0" y2="229.8" stroke="#182230" stroke-width="10" stroke-linecap="round"/><line x1="145.1" y1="220.3" x2="162.0" y2="229.8" stroke="#ee9d5a" stroke-width="7" stroke-linecap="round"/><line x1="144.0" y1="231.5" x2="145.1" y2="220.3" stroke="#182230" stroke-width="12" stroke-linecap="round"/><line x1="144.0" y1="231.5" x2="145.1" y2="220.3" stroke="#ee9d5a" stroke-width="9" stroke-linecap="round"/><line x1="103.1" y1="228.1" x2="88.1" y2="228.7" stroke="#182230" stroke-width="10" stroke-linecap="round"/><line x1="103.1" y1="228.1" x2="88.1" y2="228.7" stroke="#ee9d5a" stroke-width="7" stroke-linecap="round"/><line x1="162.0" y1="231.8" x2="173.0" y2="237.8" stroke="#182230" stroke-width="10" stroke-linecap="round"/><line x1="162.0" y1="231.8" x2="173.0" y2="237.8" stroke="#ee9d5a" stroke-width="7" stroke-linecap="round"/><line x1="88.6" y1="229.1" x2="107.6" y2="230.5" stroke="#182230" stroke-width="10" stroke-linecap="round"/><line x1="88.6" y1="229.1" x2="107.6" y2="230.5" stroke="#b6c2cc" stroke-width="7" stroke-linecap="round"/><polygon points="98.2,221.8 97.1,237.7 143.6,239.0 144.4,227.0" fill="#b6c2cc" stroke="#182230" stroke-width="2" stroke-linejoin="round"/><ellipse cx="144.0" cy="233.0" rx="10" ry="7" fill="#637487" stroke="#182230" stroke-width="2"/><ellipse cx="70.2" cy="227.3" rx="21" ry="24" fill="#d2dbe1" stroke="#182230" stroke-width="2"/><ellipse cx="69.6" cy="212.3" rx="1.7" ry="2" fill="#182230"/><polygon points="70.8,208.3 75.0,202.3 77.3,208.4" fill="#d2dbe1" stroke="#182230" stroke-width="1"/><polygon points="103.1,226.2 108.1,230.7 106.1,236.7 99.1,235.2 98.1,230.7" fill="#246a9e" stroke="#182230" stroke-width="1.2"/><line x1="162.0" y1="236.2" x2="173.0" y2="242.2" stroke="#182230" stroke-width="10" stroke-linecap="round"/><line x1="162.0" y1="236.2" x2="173.0" y2="242.2" stroke="#5ab6f0" stroke-width="7" stroke-linecap="round"/><line x1="103.1" y1="232.2" x2="89.4" y2="236.7" stroke="#182230" stroke-width="10" stroke-linecap="round"/><line x1="103.1" y1="232.2" x2="89.4" y2="236.7" stroke="#5ab6f0" stroke-width="7" stroke-linecap="round"/><line x1="144.0" y1="234.5" x2="145.1" y2="232.4" stroke="#182230" stroke-width="12" stroke-linecap="round"/><line x1="144.0" y1="234.5" x2="145.1" y2="232.4" stroke="#5ab6f0" stroke-width="9" stroke-linecap="round"/><line x1="145.1" y1="232.4" x2="162.0" y2="234.2" stroke="#182230" stroke-width="10" stroke-linecap="round"/><line x1="145.1" y1="232.4" x2="162.0" y2="234.2" stroke="#5ab6f0" stroke-width="7" stroke-linecap="round"/><line x1="89.4" y1="236.7" x2="73.4" y2="230.5" stroke="#182230" stroke-width="9" stroke-linecap="round"/><line x1="89.4" y1="236.7" x2="73.4" y2="230.5" stroke="#5ab6f0" stroke-width="6" stroke-linecap="round"/><ellipse cx="73.4" cy="230.5" rx="4" ry="5" fill="#5ab6f0" stroke="#182230" stroke-width="1.5"/><ellipse cx="145.1" cy="232.4" rx="4" ry="4" fill="#e1e8ec" stroke="#182230" stroke-width="1.5"/><animate attributeName="display" values="none;none;inline;none;none" keyTimes="0.0000;0.1525;0.3051;0.4237;0.7119" calcMode="discrete" dur="590ms" repeatCount="indefinite"/></g><g display="none"><ellipse cx="144.0" cy="242" rx="30" ry="6" fill="#0a0f15"/><ellipse cx="78.1" cy="227.1" rx="4" ry="5" fill="#ee9d5a" stroke="#182230" stroke-width="1.5"/><ellipse cx="145.1" cy="220.3" rx="4" ry="4" fill="#e1e8ec" stroke="#182230" stroke-width="1.5"/><line x1="93.1" y1="233.2" x2="78.1" y2="227.1" stroke="#182230" stroke-width="9" stroke-linecap="round"/><line x1="93.1" y1="233.2" x2="78.1" y2="227.1" stroke="#ee9d5a" stroke-width="6" stroke-linecap="round"/><line x1="145.1" y1="220.3" x2="162.0" y2="229.8" stroke="#182230" stroke-width="10" stroke-linecap="round"/><line x1="145.1" y1="220.3" x2="162.0" y2="229.8" stroke="#ee9d5a" stroke-width="7" stroke-linecap="round"/><line x1="144.0" y1="231.5" x2="145.1" y2="220.3" stroke="#182230" stroke-width="12" stroke-linecap="round"/><line x1="144.0" y1="231.5" x2="145.1" y2="220.3" stroke="#ee9d5a" stroke-width="9" stroke-linecap="round"/><line x1="103.1" y1="228.1" x2="93.1" y2="233.2" stroke="#182230" stroke-width="10" stroke-linecap="round"/><line x1="103.1" y1="228.1" x2="93.1" y2="233.2" stroke="#ee9d5a" stroke-width="7" stroke-linecap="round"/><line x1="162.0" y1="231.8" x2="173.0" y2="237.8" stroke="#182230" stroke-width="10" stroke-linecap="round"/><line x1="162.0" y1="231.8" x2="173.0" y2="237.8" stroke="#ee9d5a" stroke-width="7" stroke-linecap="round"/><line x1="88.6" y1="229.1" x2="107.6" y2="230.5" stroke="#182230" stroke-width="10" stroke-linecap="round"/><line x1="88.6" y1="229.1" x2="107.6" y2="230.5" stroke="#b6c2cc" stroke-width="7" stroke-linecap="round"/><polygon points="98.2,221.8 97.1,237.7 143.6,239.0 144.4,227.0" fill="#b6c2cc" stroke="#182230" stroke-width="2" stroke-linejoin="round"/><ellipse cx="144.0" cy="233.0" rx="10" ry="7" fill="#637487" stroke="#182230" stroke-width="2"/><ellipse cx="70.2" cy="227.3" rx="21" ry="24" fill="#d2dbe1" stroke="#182230" stroke-width="2"/><ellipse cx="69.6" cy="212.3" rx="1.7" ry="2" fill="#182230"/><polygon points="70.8,208.3 75.0,202.3 77.3,208.4" fill="#d2dbe1" stroke="#182230" stroke-width="1"/><polygon points="103.1,226.2 108.1,230.7 106.1,236.7 99.1,235.2 98.1,230.7" fill="#246a9e" stroke="#182230" stroke-width="1.2"/><line x1="162.0" y1="236.2" x2="173.0" y2="242.2" stroke="#182230" stroke-width="10" stroke-linecap="round"/><line x1="162.0" y1="236.2" x2="173.0" y2="242.2" stroke="#5ab6f0" stroke-width="7" stroke-linecap="round"/><line x1="103.1" y1="232.2" x2="93.2" y2="243.7" stroke="#182230" stroke-width="10" stroke-linecap="round"/><line x1="103.1" y1="232.2" x2="93.2" y2="243.7" stroke="#5ab6f0" stroke-width="7" stroke-linecap="round"/><line x1="144.0" y1="234.5" x2="145.1" y2="232.4" stroke="#182230" stroke-width="12" stroke-linecap="round"/><line x1="144.0" y1="234.5" x2="145.1" y2="232.4" stroke="#5ab6f0" stroke-width="9" stroke-linecap="round"/><line x1="145.1" y1="232.4" x2="162.0" y2="234.2" stroke="#182230" stroke-width="10" stroke-linecap="round"/><line x1="145.1" y1="232.4" x2="162.0" y2="234.2" stroke="#5ab6f0" stroke-width="7" stroke-linecap="round"/><line x1="93.2" y1="243.7" x2="78.1" y2="240.3" stroke="#182230" stroke-width="9" stroke-linecap="round"/><line x1="93.2" y1="243.7" x2="78.1" y2="240.3" stroke="#5ab6f0" stroke-width="6" stroke-linecap="round"/><ellipse cx="145.1" cy="232.4" rx="4" ry="4" fill="#e1e8ec" stroke="#182230" stroke-width="1.5"/><ellipse cx="78.1" cy="240.3" rx="4" ry="5" fill="#5ab6f0" stroke="#182230" stroke-width="1.5"/><animate attributeName="display" values="none;none;none;inline;none" keyTimes="0.0000;0.1525;0.3051;0.4237;0.7119" calcMode="discrete" dur="590ms" repeatCount="indefinite"/></g><g display="none"><ellipse cx="144.0" cy="242" rx="30" ry="6" fill="#0a0f15"/><ellipse cx="76.8" cy="227.1" rx="4" ry="5" fill="#ee9d5a" stroke="#182230" stroke-width="1.5"/><ellipse cx="145.1" cy="220.3" rx="4" ry="4" fill="#e1e8ec" stroke="#182230" stroke-width="1.5"/><line x1="91.8" y1="233.2" x2="76.8" y2="227.1" stroke="#182230" stroke-width="9" stroke-linecap="round"/><line x1="91.8" y1="233.2" x2="76.8" y2="227.1" stroke="#ee9d5a" stroke-width="6" stroke-linecap="round"/><line x1="145.1" y1="220.3" x2="162.0" y2="229.8" stroke="#182230" stroke-width="10" stroke-linecap="round"/><line x1="145.1" y1="220.3" x2="162.0" y2="229.8" stroke="#ee9d5a" stroke-width="7" stroke-linecap="round"/><line x1="144.0" y1="231.5" x2="145.1" y2="220.3" stroke="#182230" stroke-width="12" stroke-linecap="round"/><line x1="144.0" y1="231.5" x2="145.1" y2="220.3" stroke="#ee9d5a" stroke-width="9" stroke-linecap="round"/><line x1="101.8" y1="228.0" x2="91.8" y2="233.2" stroke="#182230" stroke-width="10" stroke-linecap="round"/><line x1="101.8" y1="228.0" x2="91.8" y2="233.2" stroke="#ee9d5a" stroke-width="7" stroke-linecap="round"/><line x1="162.0" y1="231.8" x2="173.0" y2="237.8" stroke="#182230" stroke-width="10" stroke-linecap="round"/><line x1="162.0" y1="231.8" x2="173.0" y2="237.8" stroke="#ee9d5a" stroke-width="7" stroke-linecap="round"/><line x1="88.6" y1="229.1" x2="107.6" y2="230.5" stroke="#182230" stroke-width="10" stroke-linecap="round"/><line x1="88.6" y1="229.1" x2="107.6" y2="230.5" stroke="#b6c2cc" stroke-width="7" stroke-linecap="round"/><polygon points="98.2,221.8 97.1,237.7 143.6,239.0 144.4,227.0" fill="#b6c2cc" stroke="#182230" stroke-width="2" stroke-linejoin="round"/><ellipse cx="144.0" cy="233.0" rx="10" ry="7" fill="#637487" stroke="#182230" stroke-width="2"/><ellipse cx="70.2" cy="227.3" rx="21" ry="24" fill="#d2dbe1" stroke="#182230" stroke-width="2"/><ellipse cx="69.6" cy="212.3" rx="1.7" ry="2" fill="#182230"/><polygon points="70.8,208.3 75.0,202.3 77.3,208.4" fill="#d2dbe1" stroke="#182230" stroke-width="1"/><polygon points="101.8,226.1 106.8,230.6 104.8,236.6 97.8,235.1 96.8,230.6" fill="#246a9e" stroke="#182230" stroke-width="1.2"/><line x1="162.0" y1="236.2" x2="173.0" y2="242.2" stroke="#182230" stroke-width="10" stroke-linecap="round"/><line x1="162.0" y1="236.2" x2="173.0" y2="242.2" stroke="#5ab6f0" stroke-width="7" stroke-linecap="round"/><line x1="101.8" y1="232.1" x2="92.0" y2="243.6" stroke="#182230" stroke-width="10" stroke-linecap="round"/><line x1="101.8" y1="232.1" x2="92.0" y2="243.6" stroke="#5ab6f0" stroke-width="7" stroke-linecap="round"/><line x1="144.0" y1="234.5" x2="145.1" y2="232.4" stroke="#182230" stroke-width="12" stroke-linecap="round"/><line x1="144.0" y1="234.5" x2="145.1" y2="232.4" stroke="#5ab6f0" stroke-width="9" stroke-linecap="round"/><line x1="145.1" y1="232.4" x2="162.0" y2="234.2" stroke="#182230" stroke-width="10" stroke-linecap="round"/><line x1="145.1" y1="232.4" x2="162.0" y2="234.2" stroke="#5ab6f0" stroke-width="7" stroke-linecap="round"/><line x1="92.0" y1="243.6" x2="76.8" y2="240.2" stroke="#182230" stroke-width="9" stroke-linecap="round"/><line x1="92.0" y1="243.6" x2="76.8" y2="240.2" stroke="#5ab6f0" stroke-width="6" stroke-linecap="round"/><ellipse cx="145.1" cy="232.4" rx="4" ry="4" fill="#e1e8ec" stroke="#182230" stroke-width="1.5"/><ellipse cx="76.8" cy="240.2" rx="4" ry="5" fill="#5ab6f0" stroke="#182230" stroke-width="1.5"/><animate attributeName="display" values="none;none;none;none;inline" keyTimes="0.0000;0.1525;0.3051;0.4237;0.7119" calcMode="discrete" dur="590ms" repeatCount="indefinite"/></g></g></svg>