<svg xmlns="http://www.w3.org/2000/svg" viewBox="0 0 576 298" width="576" height="298" font-family="sans-serif"><rect width="576" height="298" fill="#121821"/><g transform="translate(0,0)"><rect width="288" height="288" fill="#19202a" stroke="#2c3542"/><line x1="24" y1="40" x2="24" y2="288" stroke="#222b37"/><line x1="48" y1="40" x2="48" y2="288" stroke="#222b37"/><line x1="72" y1="40" x2="72" y2="288" stroke="#222b37"/><line x1="96" y1="40" x2="96" y2="288" stroke="#222b37"/><line x1="120" y1="40" x2="120" y2="288" stroke="#222b37"/><line x1="144" y1="40" x2="144" y2="288" stroke="#222b37"/><line x1="168" y1="40" x2="168" y2="288" stroke="#222b37"/><line x1="192" y1="40" x2="192" y2="288" stroke="#222b37"/><line x1="216" y1="40" x2="216" y2="288" stroke="#222b37"/><line x1="240" y1="40" x2="240" y2="288" stroke="#222b37"/><line x1="264" y1="40" x2="264" y2="288" stroke="#222b37"/><line x1="0" y1="48" x2="288" y2="48" stroke="#222b37"/><line x1="0" y1="72" x2="288" y2="72" stroke="#222b37"/><line x1="0" y1="96" x2="288" y2="96" stroke="#222b37"/><line x1="0" y1="120" x2="288" y2="120" stroke="#222b37"/><line x1="0" y1="144" x2="288" y2="144" stroke="#222b37"/><line x1="0" y1="168" x2="288" y2="168" stroke="#222b37"/><line x1="0" y1="192" x2="288" y2="192" stroke="#222b37"/><line x1="0" y1="216" x2="288" y2="216" stroke="#222b37"/><line x1="0" y1="240" x2="288" y2="240" stroke="#222b37"/><line x1="0" y1="264" x2="288" y2="264" stroke="#222b37"/><text x="8" y="18" font-size="13" fill="#c4d2df">右</text><g display="inline"><ellipse cx="144.0" cy="242" rx="30" ry="6" fill="#0a0f15"/><line x1="150.9" y1="161.7" x2="155.4" y2="178.5" stroke="#182230" stroke-width="9" stroke-linecap="round"/><line x1="150.9" y1="161.7" x2="155.4" y2="178.5" stroke="#ee9d5a" stroke-width="6" stroke-linecap="round"/><ellipse cx="155.4" cy="178.5" rx="4" ry="5" fill="#ee9d5a" stroke="#182230" stroke-width="1.5"/><line x1="148.3" y1="144.7" x2="150.9" y2="161.7" stroke="#182230" stroke-width="10" stroke-linecap="round"/><line x1="148.3" y1="144.7" x2="150.9" y2="161.7" stroke="#ee9d5a" stroke-width="7" stroke-linecap="round"/><line x1="140.0" y1="230.7" x2="149.6" y2="238.5" stroke="#182230" stroke-width="10" stroke-linecap="round"/><line x1="140.0" y1="230.7" x2="149.6" y2="238.5" stroke="#ee9d5a" stroke-width="7" stroke-linecap="round"/><line x1="157.8" y1="208.3" x2="140.0" y2="228.7" stroke="#182230" stroke-width="10" stroke-linecap="round"/><line x1="157.8" y1="208.3" x2="140.0" y2="228.7" stroke="#ee9d5a" stroke-width="7" stroke-linecap="round"/><line x1="144.0" y1="186.0" x2="157.8" y2="208.3" stroke="#182230" stroke-width="12" stroke-linecap="round"/><line x1="144.0" y1="186.0" x2="157.8" y2="208.3" stroke="#ee9d5a" stroke-width="9" stroke-linecap="round"/><ellipse cx="157.8" cy="208.3" rx="4" ry="4" fill="#e1e8ec" stroke="#182230" stroke-width="1.5"/><line x1="144.0" y1="189.0" x2="160.8" y2="208.6" stroke="#182230" stroke-width="12" stroke-linecap="round"/><line x1="144.0" y1="189.0" x2="160.8" y2="208.6" stroke="#5ab6f0" stroke-width="9" stroke-linecap="round"/><line x1="160.8" y1="208.6" x2="148.0" y2="233.8" stroke="#182230" stroke-width="10" stroke-linecap="round"/><line x1="160.8" y1="208.6" x2="148.0" y2="233.8" stroke="#5ab6f0" stroke-width="7" stroke-linecap="round"/><line x1="148.0" y1="235.8" x2="159.0" y2="241.7" stroke="#182230" stroke-width="10" stroke-linecap="round"/><line x1="148.0" y1="235.8" x2="159.0" y2="241.7" stroke="#5ab6f0" stroke-width="7" stroke-linecap="round"/><ellipse cx="160.8" cy="208.6" rx="4" ry="4" fill="#e1e8ec" stroke="#182230" stroke-width="1.5"/><line x1="149.8" y1="132.3" x2="147.8" y2="151.2" stroke="#182230" stroke-width="10" stroke-linecap="round"/><line x1="149.8" y1="132.3" x2="147.8" y2="151.2" stroke="#b6c2cc" stroke-width="7" stroke-linecap="round"/><polygon points="156.8,142.1 140.9,140.4 138.0,186.9 150.0,188.1" fill="#b6c2cc" stroke="#182230" stroke-width="2" stroke-linejoin="round"/><ellipse cx="144.0" cy="187.5" rx="10" ry="7" fill="#637487" stroke="#182230" stroke-width="2"/><ellipse cx="152.9" cy="111.8" rx="21" ry="24" fill="#d2dbe1" stroke="#182230" stroke-width="2"/><ellipse cx="168.0" cy="110.6" rx="1.7" ry="2" fill="#182230"/><polygon points="171.9,111.8 177.7,116.1 171.5,118.8" fill="#d2dbe1" stroke="#182230" stroke-width="1"/><polygon points="148.3,142.8 153.3,147.3 151.3,153.3 144.3,151.8 143.3,147.3" fill="#246a9e" stroke="#182230" stroke-width="1.2"/><line x1="148.3" y1="148.8" x2="149.0" y2="170.3" stroke="#182230" stroke-width="10" stroke-linecap="round"/><line x1="148.3" y1="148.8" x2="149.0" y2="170.3" stroke="#5ab6f0" stroke-width="7" stroke-linecap="round"/><ellipse cx="155.4" cy="185.3" rx="4" ry="5" fill="#5ab6f0" stroke="#182230" stroke-width="1.5"/><line x1="149.0" y1="170.3" x2="155.4" y2="185.3" stroke="#182230" stroke-width="9" stroke-linecap="round"/><line x1="149.0" y1="170.3" x2="155.4" y2="185.3" stroke="#5ab6f0" stroke-width="6" stroke-linecap="round"/><animate attributeName="display" values="inline;none;none;none;none" keyTimes="0.0000;0.1900;0.3800;0.5200;0.7600" calcMode="discrete" dur="500ms" repeatCount="indefinite"/></g><g display="none"><ellipse cx="144.0" cy="242" rx="30" ry="6" fill="#0a0f15"/><line x1="145.7" y1="155.8" x2="147.8" y2="173.1" stroke="#182230" stroke-width="9" stroke-linecap="round"/><line x1="145.7" y1="155.8" x2="147.8" y2="173.1" stroke="#ee9d5a" stroke-width="6" stroke-linecap="round"/><ellipse cx="147.8" cy="173.1" rx="4" ry="5" fill="#ee9d5a" stroke="#182230" stroke-width="1.5"/><line x1="144.0" y1="137.9" x2="145.7" y2="155.8" stroke="#182230" stroke-width="10" stroke-linecap="round"/><line x1="144.0" y1="137.9" x2="145.7" y2="155.8" stroke="#ee9d5a" stroke-width="7" stroke-linecap="round"/><line x1="144.0" y1="232.2" x2="154.9" y2="238.5" stroke="#182230" stroke-width="10" stroke-linecap="round"/><line x1="144.0" y1="232.2" x2="154.9" y2="238.5" stroke="#ee9d5a" stroke-width="7" stroke-linecap="round"/><line x1="152.2" y1="204.5" x2="144.0" y2="230.2" stroke="#182230" stroke-width="10" stroke-linecap="round"/><line x1="152.2" y1="204.5" x2="144.0" y2="230.2" stroke="#ee9d5a" stroke-width="7" stroke-linecap="round"/><line x1="144.0" y1="179.5" x2="152.2" y2="204.5" stroke="#182230" stroke-width="12" stroke-linecap="round"/><line x1="144.0" y1="179.5" x2="152.2" y2="204.5" stroke="#ee9d5a" stroke-width="9" stroke-linecap="round"/><ellipse cx="152.2" cy="204.5" rx="4" ry="4" fill="#e1e8ec" stroke="#182230" stroke-width="1.5"/><line x1="144.0" y1="182.5" x2="152.2" y2="206.6" stroke="#182230" stroke-width="12" stroke-linecap="round"/><line x1="144.0" y1="182.5" x2="152.2" y2="206.6" stroke="#5ab6f0" stroke-width="9" stroke-linecap="round"/><line x1="152.2" y1="206.6" x2="144.0" y2="233.8" stroke="#182230" stroke-width="10" stroke-linecap="round"/><line x1="152.2" y1="206.6" x2="144.0" y2="233.8" stroke="#5ab6f0" stroke-width="7" stroke-linecap="round"/><line x1="144.0" y1="235.8" x2="154.9" y2="241.5" stroke="#182230" stroke-width="10" stroke-linecap="round"/><line x1="144.0" y1="235.8" x2="154.9" y2="241.5" stroke="#5ab6f0" stroke-width="7" stroke-linecap="round"/><ellipse cx="152.2" cy="206.6" rx="4" ry="4" fill="#e1e8ec" stroke="#182230" stroke-width="1.5"/><line x1="144.0" y1="125.5" x2="144.0" y2="144.5" stroke="#182230" stroke-width="10" stroke-linecap="round"/><line x1="144.0" y1="125.5" x2="144.0" y2="144.5" stroke="#b6c2cc" stroke-width="7" stroke-linecap="round"/><polygon points="152.0,134.5 136.0,134.5 138.0,181.0 150.0,181.0" fill="#b6c2cc" stroke="#182230" stroke-width="2" stroke-linejoin="round"/><ellipse cx="144.0" cy="181.0" rx="10" ry="7" fill="#637487" stroke="#182230" stroke-width="2"/><ellipse cx="146.0" cy="105.0" rx="21" ry="24" fill="#d2dbe1" stroke="#182230" stroke-width="2"/><ellipse cx="161.0" cy="103.0" rx="1.7" ry="2" fill="#182230"/><polygon points="165.0,104.0 171.0,108.0 165.0,111.0" fill="#d2dbe1" stroke="#182230" stroke-width="1"/><polygon points="144.0,136.1 149.0,140.6 147.0,146.6 140.0,145.1 139.0,140.6" fill="#246a9e" stroke="#182230" stroke-width="1.2"/><line x1="144.0" y1="142.1" x2="143.7" y2="163.9" stroke="#182230" stroke-width="10" stroke-linecap="round"/><line x1="144.0" y1="142.1" x2="143.7" y2="163.9" stroke="#5ab6f0" stroke-width="7" stroke-linecap="round"/><ellipse cx="147.8" cy="180.0" rx="4" ry="5" fill="#5ab6f0" stroke="#182230" stroke-width="1.5"/><line x1="143.7" y1="163.9" x2="147.8" y2="180.0" stroke="#182230" stroke-width="9" stroke-linecap="round"/><line x1="143.7" y1="163.9" x2="147.8" y2="180.0" stroke="#5ab6f0" stroke-width="6" stroke-linecap="round"/><animate attributeName="display" values="none;inline;none;none;none" keyTimes="0.0000;0.1900;0.3800;0.5200;0.7600" calcMode="discrete" dur="500ms" repeatCount="indefinite"/></g><g display="none"><ellipse cx="144.0" cy="242" rx="30" ry="6" fill="#0a0f15"/><line x1="146.9" y1="140.5" x2="149.4" y2="160.5" stroke="#182230" stroke-width="10" stroke-linecap="round"/><line x1="146.9" y1="140.5" x2="149.4" y2="160.5" stroke="#ee9d5a" stroke-width="7" stroke-linecap="round"/><line x1="149.4" y1="160.5" x2="152.1" y2="177.1" stroke="#182230" stroke-width="9" stroke-linecap="round"/><line x1="149.4" y1="160.5" x2="152.1" y2="177.1" stroke="#ee9d5a" stroke-width="6" stroke-linecap="round"/><ellipse cx="152.1" cy="177.1" rx="4" ry="5" fill="#ee9d5a" stroke="#182230" stroke-width="1.5"/><line x1="148.0" y1="232.6" x2="158.9" y2="238.9" stroke="#182230" stroke-width="10" stroke-linecap="round"/><line x1="148.0" y1="232.6" x2="158.9" y2="238.9" stroke="#ee9d5a" stroke-width="7" stroke-linecap="round"/><line x1="144.0" y1="182.0" x2="157.0" y2="204.8" stroke="#182230" stroke-width="12" stroke-linecap="round"/><line x1="144.0" y1="182.0" x2="157.0" y2="204.8" stroke="#ee9d5a" stroke-width="9" stroke-linecap="round"/><line x1="157.0" y1="204.8" x2="148.0" y2="230.6" stroke="#182230" stroke-width="10" stroke-linecap="round"/><line x1="157.0" y1="204.8" x2="148.0" y2="230.6" stroke="#ee9d5a" stroke-width="7" stroke-linecap="round"/><ellipse cx="157.0" cy="204.8" rx="4" ry="4" fill="#e1e8ec" stroke="#182230" stroke-width="1.5"/><line x1="144.0" y1="185.0" x2="153.2" y2="208.4" stroke="#182230" stroke-width="12" stroke-linecap="round"/><line x1="144.0" y1="185.0" x2="153.2" y2="208.4" stroke="#5ab6f0" stroke-width="9" stroke-linecap="round"/><line x1="153.2" y1="208.4" x2="140.0" y2="233.4" stroke="#182230" stroke-width="10" stroke-linecap="round"/><line x1="153.2" y1="208.4" x2="140.0" y2="233.4" stroke="#5ab6f0" stroke-width="7" stroke-linecap="round"/><line x1="140.0" y1="235.4" x2="150.9" y2="241.1" stroke="#182230" stroke-width="10" stroke-linecap="round"/><line x1="140.0" y1="235.4" x2="150.9" y2="241.1" stroke="#5ab6f0" stroke-width="7" stroke-linecap="round"/><ellipse cx="153.2" cy="208.4" rx="4" ry="4" fill="#e1e8ec" stroke="#182230" stroke-width="1.5"/><line x1="147.9" y1="128.1" x2="146.5" y2="147.1" stroke="#182230" stroke-width="10" stroke-linecap="round"/><line x1="147.9" y1="128.1" x2="146.5" y2="147.1" stroke="#b6c2cc" stroke-width="7" stroke-linecap="round"/><polygon points="155.2,137.7 139.3,136.6 138.0,183.1 150.0,183.9" fill="#b6c2cc" stroke="#182230" stroke-width="2" stroke-linejoin="round"/><ellipse cx="144.0" cy="183.5" rx="10" ry="7" fill="#637487" stroke="#182230" stroke-width="2"/><ellipse cx="151.7" cy="107.7" rx="21" ry="24" fill="#d2dbe1" stroke="#182230" stroke-width="2"/><ellipse cx="166.8" cy="107.0" rx="1.7" ry="2" fill="#182230"/><polygon points="170.7,108.4 176.3,112.9 170.1,115.3" fill="#d2dbe1" stroke="#182230" stroke-width="1"/><polygon points="146.9,138.7 151.9,143.2 149.9,149.2 142.9,147.7 141.9,143.2" fill="#246a9e" stroke="#182230" stroke-width="1.2"/><line x1="146.9" y1="144.7" x2="145.4" y2="165.8" stroke="#182230" stroke-width="10" stroke-linecap="round"/><line x1="146.9" y1="144.7" x2="145.4" y2="165.8" stroke="#5ab6f0" stroke-width="7" stroke-linecap="round"/><ellipse cx="148.8" cy="182.5" rx="4" ry="5" fill="#5ab6f0" stroke="#182230" stroke-width="1.5"/><line x1="145.4" y1="165.8" x2="148.8" y2="182.5" stroke="#182230" stroke-width="9" stroke-linecap="round"/><line x1="145.4" y1="165.8" x2="148.8" y2="182.5" stroke="#5ab6f0" stroke-width="6" stroke-linecap="round"/><animate attributeName="display" values="none;none;inline;none;none" keyTimes="0.0000;0.1900;0.3800;0.5200;0.7600" calcMode="discrete" dur="500ms" repeatCount="indefinite"/></g><g display="none"><ellipse cx="144.0" cy="242" rx="30" ry="6" fill="#0a0f15"/><line x1="149.7" y1="143.3" x2="152.5" y2="165.8" stroke="#182230" stroke-width="10" stroke-linecap="round"/><line x1="149.7" y1="143.3" x2="152.5" y2="165.8" stroke="#ee9d5a" stroke-width="7" stroke-linecap="round"/><line x1="144.0" y1="184.5" x2="160.7" y2="204.7" stroke="#182230" stroke-width="12" stroke-linecap="round"/><line x1="144.0" y1="184.5" x2="160.7" y2="204.7" stroke="#ee9d5a" stroke-width="9" stroke-linecap="round"/><line x1="160.7" y1="204.7" x2="152.0" y2="230.9" stroke="#182230" stroke-width="10" stroke-linecap="round"/><line x1="160.7" y1="204.7" x2="152.0" y2="230.9" stroke="#ee9d5a" stroke-width="7" stroke-linecap="round"/><line x1="152.0" y1="232.9" x2="162.8" y2="239.3" stroke="#182230" stroke-width="10" stroke-linecap="round"/><line x1="152.0" y1="232.9" x2="162.8" y2="239.3" stroke="#ee9d5a" stroke-width="7" stroke-linecap="round"/><line x1="152.5" y1="165.8" x2="154.7" y2="181.4" stroke="#182230" stroke-width="9" stroke-linecap="round"/><line x1="152.5" y1="165.8" x2="154.7" y2="181.4" stroke="#ee9d5a" stroke-width="6" stroke-linecap="round"/><ellipse cx="160.7" cy="204.7" rx="4" ry="4" fill="#e1e8ec" stroke="#182230" stroke-width="1.5"/><line x1="144.0" y1="187.5" x2="153.1" y2="210.7" stroke="#182230" stroke-width="12" stroke-linecap="round"/><line x1="144.0" y1="187.5" x2="153.1" y2="210.7" stroke="#5ab6f0" stroke-width="9" stroke-linecap="round"/><line x1="153.1" y1="210.7" x2="136.0" y2="233.1" stroke="#182230" stroke-width="10" stroke-linecap="round"/><line x1="153.1" y1="210.7" x2="136.0" y2="233.1" stroke="#5ab6f0" stroke-width="7" stroke-linecap="round"/><line x1="136.0" y1="235.1" x2="146.8" y2="240.7" stroke="#182230" stroke-width="10" stroke-linecap="round"/><line x1="136.0" y1="235.1" x2="146.8" y2="240.7" stroke="#5ab6f0" stroke-width="7" stroke-linecap="round"/><ellipse cx="154.7" cy="181.4" rx="4" ry="5" fill="#ee9d5a" stroke="#182230" stroke-width="1.5"/><ellipse cx="153.1" cy="210.7" rx="4" ry="4" fill="#e1e8ec" stroke="#182230" stroke-width="1.5"/><line x1="151.7" y1="131.0" x2="149.1" y2="149.9" stroke="#182230" stroke-width="10" stroke-linecap="round"/><line x1="151.7" y1="131.0" x2="149.1" y2="149.9" stroke="#b6c2cc" stroke-width="7" stroke-linecap="round"/><polygon points="158.4,141.1 142.5,138.8 138.1,185.2 149.9,186.8" fill="#b6c2cc" stroke="#182230" stroke-width="2" stroke-linejoin="round"/><ellipse cx="144.0" cy="186.0" rx="10" ry="7" fill="#637487" stroke="#182230" stroke-width="2"/><ellipse cx="157.3" cy="110.9" rx="21" ry="24" fill="#d2dbe1" stroke="#182230" stroke-width="2"/><ellipse cx="172.4" cy="111.5" rx="1.7" ry="2" fill="#182230"/><polygon points="176.2,113.2 181.4,118.1 175.0,120.1" fill="#d2dbe1" stroke="#182230" stroke-width="1"/><polygon points="149.7,141.5 154.7,146.0 152.7,152.0 145.7,150.5 144.7,146.0" fill="#246a9e" stroke="#182230" stroke-width="1.2"/><line x1="149.7" y1="147.5" x2="147.3" y2="167.8" stroke="#182230" stroke-width="10" stroke-linecap="round"/><line x1="149.7" y1="147.5" x2="147.3" y2="167.8" stroke="#5ab6f0" stroke-width="7" stroke-linecap="round"/><line x1="147.3" y1="167.8" x2="149.7" y2="184.9" stroke="#182230" stroke-width="9" stroke-linecap="round"/><line x1="147.3" y1="167.8" x2="149.7" y2="184.9" stroke="#5ab6f0" stroke-width="6" stroke-linecap="round"/><ellipse cx="149.7" cy="184.9" rx="4" ry="5" fill="#5ab6f0" stroke="#182230" stroke-width="1.5"/><animate attributeName="display" values="none;none;none;inline;none" keyTimes="0.0000;0.1900;0.3800;0.5200;0.7600" calcMode="discrete" dur="500ms" repeatCount="indefinite"/></g><g display="none"><ellipse cx="144.0" cy="242" rx="30" ry="6" fill="#0a0f15"/><line x1="150.5" y1="144.5" x2="152.8" y2="166.9" stroke="#182230" stroke-width="10" stroke-linecap="round"/><line x1="150.5" y1="144.5" x2="152.8" y2="166.9" stroke="#ee9d5a" stroke-width="7" stroke-linecap="round"/><line x1="144.6" y1="185.4" x2="163.6" y2="203.3" stroke="#182230" stroke-width="12" stroke-linecap="round"/><line x1="144.6" y1="185.4" x2="163.6" y2="203.3" stroke="#ee9d5a" stroke-width="9" stroke-linecap="round"/><line x1="152.8" y1="166.9" x2="154.7" y2="182.4" stroke="#182230" stroke-width="9" stroke-linecap="round"/><line x1="152.8" y1="166.9" x2="154.7" y2="182.4" stroke="#ee9d5a" stroke-width="6" stroke-linecap="round"/><line x1="163.6" y1="203.3" x2="149.7" y2="227.4" stroke="#182230" stroke-width="10" stroke-linecap="round"/><line x1="163.6" y1="203.3" x2="149.7" y2="227.4" stroke="#ee9d5a" stroke-width="7" stroke-linecap="round"/><line x1="149.7" y1="229.4" x2="160.5" y2="232.7" stroke="#182230" stroke-width="10" stroke-linecap="round"/><line x1="149.7" y1="229.4" x2="160.5" y2="232.7" stroke="#ee9d5a" stroke-width="7" stroke-linecap="round"/><ellipse cx="163.6" cy="203.3" rx="4" ry="4" fill="#e1e8ec" stroke="#182230" stroke-width="1.5"/><line x1="143.4" y1="188.2" x2="155.3" y2="210.4" stroke="#182230" stroke-width="12" stroke-linecap="round"/><line x1="143.4" y1="188.2" x2="155.3" y2="210.4" stroke="#5ab6f0" stroke-width="9" stroke-linecap="round"/><line x1="155.3" y1="210.4" x2="138.3" y2="233.1" stroke="#182230" stroke-width="10" stroke-linecap="round"/><line x1="155.3" y1="210.4" x2="138.3" y2="233.1" stroke="#5ab6f0" stroke-width="7" stroke-linecap="round"/><line x1="138.3" y1="235.1" x2="149.2" y2="240.7" stroke="#182230" stroke-width="10" stroke-linecap="round"/><line x1="138.3" y1="235.1" x2="149.2" y2="240.7" stroke="#5ab6f0" stroke-width="7" stroke-linecap="round"/><ellipse cx="154.7" cy="182.4" rx="4" ry="5" fill="#ee9d5a" stroke="#182230" stroke-width="1.5"/><ellipse cx="155.3" cy="210.4" rx="4" ry="4" fill="#e1e8ec" stroke="#182230" stroke-width="1.5"/><line x1="151.7" y1="132.0" x2="149.0" y2="150.9" stroke="#182230" stroke-width="10" stroke-linecap="round"/><line x1="151.7" y1="132.0" x2="149.0" y2="150.9" stroke="#b6c2cc" stroke-width="7" stroke-linecap="round"/><polygon points="158.3,142.1 142.4,139.9 138.1,186.0 149.9,187.6" fill="#b6c2cc" stroke="#182230" stroke-width="2" stroke-linejoin="round"/><ellipse cx="144.0" cy="186.8" rx="10" ry="7" fill="#637487" stroke="#182230" stroke-width="2"/><ellipse cx="157.2" cy="111.8" rx="21" ry="24" fill="#d2dbe1" stroke="#182230" stroke-width="2"/><ellipse cx="172.3" cy="112.5" rx="1.7" ry="2" fill="#182230"/><polygon points="176.1,114.1 181.3,119.1 174.9,121.0" fill="#d2dbe1" stroke="#182230" stroke-width="1"/><polygon points="148.8,142.4 153.8,146.9 151.8,152.9 144.8,151.4 143.8,146.9" fill="#246a9e" stroke="#182230" stroke-width="1.2"/><line x1="148.8" y1="148.4" x2="147.1" y2="168.8" stroke="#182230" stroke-width="10" stroke-linecap="round"/><line x1="148.8" y1="148.4" x2="147.1" y2="168.8" stroke="#5ab6f0" stroke-width="7" stroke-linecap="round"/><line x1="147.1" y1="168.8" x2="150.5" y2="185.8" stroke="#182230" stroke-width="9" stroke-linecap="round"/><line x1="147.1" y1="168.8" x2="150.5" y2="185.8" stroke="#5ab6f0" stroke-width="6" stroke-linecap="round"/><ellipse cx="150.5" cy="185.8" rx="4" ry="5" fill="#5ab6f0" stroke="#182230" stroke-width="1.5"/><animate attributeName="display" values="none;none;none;none;inline" keyTimes="0.0000;0.1900;0.3800;0.5200;0.7600" calcMode="discrete" dur="500ms" repeatCount="indefinite"/></g></g><g transform="translate(288,0)"><rect width="288" height="288" fill="#19202a" stroke="#2c3542"/><line x1="24" y1="40" x2="24" y2="288" stroke="#222b37"/><line x1="48" y1="40" x2="48" y2="288" stroke="#222b37"/><line x1="72" y1="40" x2="72" y2="288" stroke="#222b37"/><line x1="96" y1="40" x2="96" y2="288" stroke="#222b37"/><line x1="120" y1="40" x2="120" y2="288" stroke="#222b37"/><line x1="144" y1="40" x2="144" y2="288" stroke="#222b37"/><line x1="168" y1="40" x2="168" y2="288" stroke="#222b37"/><line x1="192" y1="40" x2="192" y2="288" stroke="#222b37"/><line x1="216" y1="40" x2="216" y2="288" stroke="#222b37"/><line x1="240" y1="40" x2="240" y2="288" stroke="#222b37"/><line x1="264" y1="40" x2="264" y2="288" stroke="#222b37"/><line x1="0" y1="48" x2="288" y2="48" stroke="#222b37"/><line x1="0" y1="72" x2="288" y2="72" stroke="#222b37"/><line x1="0" y1="96" x2="288" y2="96" stroke="#222b37"/><line x1="0" y1="120" x2="288" y2="120" stroke="#222b37"/><line x1="0" y1="144" x2="288" y2="144" stroke="#222b37"/><line x1="0" y1="168" x2="288" y2="168" stroke="#222b37"/><line x1="0" y1="192" x2="288" y2="192" stroke="#222b37"/><line x1="0" y1="216" x2="288" y2="216" stroke="#222b37"/><line x1="0" y1="240" x2="288" y2="240" stroke="#222b37"/><line x1="0" y1="264" x2="288" y2="264" stroke="#222b37"/><text x="8" y="18" font-size="13" fill="#c4d2df">右斜め前</text><g display="inline"><ellipse cx="144.0" cy="242" rx="30" ry="6" fill="#0a0f15"/><line x1="148.2" y1="230.7" x2="154.5" y2="239.7" stroke="#182230" stroke-width="10" stroke-linecap="round"/><line x1="148.2" y1="230.7" x2="154.5" y2="239.7" stroke="#ee9d5a" stroke-width="7" stroke-linecap="round"/><line x1="150.0" y1="186.4" x2="157.7" y2="210.4" stroke="#182230" stroke-width="12" stroke-linecap="round"/><line x1="150.0" y1="186.4" x2="157.7" y2="210.4" stroke="#ee9d5a" stroke-width="9" stroke-linecap="round"/><line x1="148.1" y1="133.0" x2="146.7" y2="151.7" stroke="#182230" stroke-width="10" stroke-linecap="round"/><line x1="148.1" y1="133.0" x2="146.7" y2="151.7" stroke="#b6c2cc" stroke-width="7" stroke-linecap="round"/><polygon points="157.2,142.4 137.7,141.0 138.0,187.0 150.0,188.0" fill="#b6c2cc" stroke="#182230" stroke-width="2" stroke-linejoin="round"/><ellipse cx="144.0" cy="187.5" rx="10" ry="7" fill="#637487" stroke="#182230" stroke-width="2"/><line x1="155.2" y1="145.8" x2="165.1" y2="163.7" stroke="#182230" stroke-width="10" stroke-linecap="round"/><line x1="155.2" y1="145.8" x2="165.1" y2="163.7" stroke="#ee9d5a" stroke-width="7" stroke-linecap="round"/><line x1="165.1" y1="163.7" x2="165.4" y2="180.9" stroke="#182230" stroke-width="9" stroke-linecap="round"/><line x1="165.1" y1="163.7" x2="165.4" y2="180.9" stroke="#ee9d5a" stroke-width="6" stroke-linecap="round"/><ellipse cx="165.4" cy="180.9" rx="4" ry="5" fill="#ee9d5a" stroke="#182230" stroke-width="1.5"/><line x1="157.7" y1="210.4" x2="148.2" y2="228.7" stroke="#182230" stroke-width="10" stroke-linecap="round"/><line x1="157.7" y1="210.4" x2="148.2" y2="228.7" stroke="#ee9d5a" stroke-width="7" stroke-linecap="round"/><ellipse cx="157.7" cy="210.4" rx="4" ry="4" fill="#e1e8ec" stroke="#182230" stroke-width="1.5"/><ellipse cx="150.3" cy="113.0" rx="21" ry="24" fill="#d2dbe1" stroke="#182230" stroke-width="2"/><ellipse cx="155.2" cy="115.4" rx="1.8" ry="2.2" fill="#182230"/><ellipse cx="165.1" cy="113.6" rx="1.8" ry="2.2" fill="#182230"/><path d="M158.2,122.1 Q160.6,123.6 163.1,121.2" fill="none" stroke="#182230" stroke-width="1.2"/><polygon points="138.9,142.7 143.9,147.2 141.9,153.2 134.9,151.7 133.9,147.2" fill="#246a9e" stroke="#182230" stroke-width="1.2"/><line x1="138.0" y1="188.6" x2="150.9" y2="210.3" stroke="#182230" stroke-width="12" stroke-linecap="round"/><line x1="138.0" y1="188.6" x2="150.9" y2="210.3" stroke="#5ab6f0" stroke-width="9" stroke-linecap="round"/><line x1="150.9" y1="210.3" x2="139.8" y2="233.8" stroke="#182230" stroke-width="10" stroke-linecap="round"/><line x1="150.9" y1="210.3" x2="139.8" y2="233.8" stroke="#5ab6f0" stroke-width="7" stroke-linecap="round"/><line x1="139.8" y1="235.8" x2="148.1" y2="243.1" stroke="#182230" stroke-width="10" stroke-linecap="round"/><line x1="139.8" y1="235.8" x2="148.1" y2="243.1" stroke="#5ab6f0" stroke-width="7" stroke-linecap="round"/><line x1="138.9" y1="148.7" x2="131.7" y2="169.8" stroke="#182230" stroke-width="10" stroke-linecap="round"/><line x1="138.9" y1="148.7" x2="131.7" y2="169.8" stroke="#5ab6f0" stroke-width="7" stroke-linecap="round"/><ellipse cx="150.9" cy="210.3" rx="4" ry="4" fill="#e1e8ec" stroke="#182230" stroke-width="1.5"/><line x1="131.7" y1="169.8" x2="138.8" y2="185.7" stroke="#182230" stroke-width="9" stroke-linecap="round"/><line x1="131.7" y1="169.8" x2="138.8" y2="185.7" stroke="#5ab6f0" stroke-width="6" stroke-linecap="round"/><ellipse cx="138.8" cy="185.7" rx="4" ry="5" fill="#5ab6f0" stroke="#182230" stroke-width="1.5"/><animate attributeName="display" values="inline;none;none;none;none" keyTimes="0.0000;0.1900;0.3800;0.5200;0.7600" calcMode="discrete" dur="500ms" repeatCount="indefinite"/></g><g display="none"><ellipse cx="144.0" cy="242" rx="30" ry="6" fill="#0a0f15"/><line x1="152.1" y1="138.5" x2="160.8" y2="157.1" stroke="#182230" stroke-width="10" stroke-linecap="round"/><line x1="152.1" y1="138.5" x2="160.8" y2="157.1" stroke="#ee9d5a" stroke-width="7" stroke-linecap="round"/><line x1="154.1" y1="205.8" x2="151.1" y2="230.7" stroke="#182230" stroke-width="10" stroke-linecap="round"/><line x1="154.1" y1="205.8" x2="151.1" y2="230.7" stroke="#ee9d5a" stroke-width="7" stroke-linecap="round"/><line x1="151.1" y1="232.7" x2="157.7" y2="240.3" stroke="#182230" stroke-width="10" stroke-linecap="round"/><line x1="151.1" y1="232.7" x2="157.7" y2="240.3" stroke="#ee9d5a" stroke-width="7" stroke-linecap="round"/><line x1="150.0" y1="179.9" x2="154.1" y2="205.8" stroke="#182230" stroke-width="12" stroke-linecap="round"/><line x1="150.0" y1="179.9" x2="154.1" y2="205.8" stroke="#ee9d5a" stroke-width="9" stroke-linecap="round"/><line x1="144.0" y1="125.5" x2="144.0" y2="144.5" stroke="#182230" stroke-width="10" stroke-linecap="round"/><line x1="144.0" y1="125.5" x2="144.0" y2="144.5" stroke="#b6c2cc" stroke-width="7" stroke-linecap="round"/><polygon points="153.8,134.5 134.2,134.5 138.0,181.0 150.0,181.0" fill="#b6c2cc" stroke="#182230" stroke-width="2" stroke-linejoin="round"/><ellipse cx="144.0" cy="181.0" rx="10" ry="7" fill="#637487" stroke="#182230" stroke-width="2"/><line x1="160.8" y1="157.1" x2="160.3" y2="174.6" stroke="#182230" stroke-width="9" stroke-linecap="round"/><line x1="160.8" y1="157.1" x2="160.3" y2="174.6" stroke="#ee9d5a" stroke-width="6" stroke-linecap="round"/><ellipse cx="160.3" cy="174.6" rx="4" ry="5" fill="#ee9d5a" stroke="#182230" stroke-width="1.5"/><ellipse cx="154.1" cy="205.8" rx="4" ry="4" fill="#e1e8ec" stroke="#182230" stroke-width="1.5"/><ellipse cx="145.4" cy="105.3" rx="21" ry="24" fill="#d2dbe1" stroke="#182230" stroke-width="2"/><ellipse cx="150.4" cy="106.9" rx="1.8" ry="2.2" fill="#182230"/><ellipse cx="160.3" cy="105.1" rx="1.8" ry="2.2" fill="#182230"/><path d="M153.5,113.6 Q156.0,115.2 158.5,112.7" fill="none" stroke="#182230" stroke-width="1.2"/><line x1="138.0" y1="182.1" x2="145.6" y2="207.3" stroke="#182230" stroke-width="12" stroke-linecap="round"/><line x1="138.0" y1="182.1" x2="145.6" y2="207.3" stroke="#5ab6f0" stroke-width="9" stroke-linecap="round"/><polygon points="135.9,135.5 140.9,140.0 138.9,146.0 131.9,144.5 130.9,140.0" fill="#246a9e" stroke="#182230" stroke-width="1.2"/><line x1="145.6" y1="207.3" x2="136.9" y2="233.3" stroke="#182230" stroke-width="10" stroke-linecap="round"/><line x1="145.6" y1="207.3" x2="136.9" y2="233.3" stroke="#5ab6f0" stroke-width="7" stroke-linecap="round"/><ellipse cx="145.6" cy="207.3" rx="4" ry="4" fill="#e1e8ec" stroke="#182230" stroke-width="1.5"/><line x1="136.9" y1="235.3" x2="145.7" y2="242.5" stroke="#182230" stroke-width="10" stroke-linecap="round"/><line x1="136.9" y1="235.3" x2="145.7" y2="242.5" stroke="#5ab6f0" stroke-width="7" stroke-linecap="round"/><line x1="135.9" y1="141.5" x2="128.6" y2="162.7" stroke="#182230" stroke-width="10" stroke-linecap="round"/><line x1="135.9" y1="141.5" x2="128.6" y2="162.7" stroke="#5ab6f0" stroke-width="7" stroke-linecap="round"/><line x1="128.6" y1="162.7" x2="133.1" y2="179.5" stroke="#182230" stroke-width="9" stroke-linecap="round"/><line x1="128.6" y1="162.7" x2="133.1" y2="179.5" stroke="#5ab6f0" stroke-width="6" stroke-linecap="round"/><ellipse cx="133.1" cy="179.5" rx="4" ry="5" fill="#5ab6f0" stroke="#182230" stroke-width="1.5"/><animate attributeName="display" values="none;inline;none;none;none" keyTimes="0.0000;0.1900;0.3800;0.5200;0.7600" calcMode="discrete" dur="500ms" repeatCount="indefinite"/></g><g display="none"><ellipse cx="144.0" cy="242" rx="30" ry="6" fill="#0a0f15"/><line x1="154.2" y1="141.5" x2="160.7" y2="162.2" stroke="#182230" stroke-width="10" stroke-linecap="round"/><line x1="154.2" y1="141.5" x2="160.7" y2="162.2" stroke="#ee9d5a" stroke-width="7" stroke-linecap="round"/><line x1="150.0" y1="182.4" x2="156.6" y2="206.7" stroke="#182230" stroke-width="12" stroke-linecap="round"/><line x1="150.0" y1="182.4" x2="156.6" y2="206.7" stroke="#ee9d5a" stroke-width="9" stroke-linecap="round"/><line x1="156.6" y1="206.7" x2="152.5" y2="231.5" stroke="#182230" stroke-width="10" stroke-linecap="round"/><line x1="156.6" y1="206.7" x2="152.5" y2="231.5" stroke="#ee9d5a" stroke-width="7" stroke-linecap="round"/><line x1="146.7" y1="128.6" x2="145.8" y2="147.4" stroke="#182230" stroke-width="10" stroke-linecap="round"/><line x1="146.7" y1="128.6" x2="145.8" y2="147.4" stroke="#b6c2cc" stroke-width="7" stroke-linecap="round"/><polygon points="156.0,137.9 136.5,136.9 138.0,183.2 150.0,183.8" fill="#b6c2cc" stroke="#182230" stroke-width="2" stroke-linejoin="round"/><ellipse cx="144.0" cy="183.5" rx="10" ry="7" fill="#637487" stroke="#182230" stroke-width="2"/><line x1="160.7" y1="162.2" x2="157.3" y2="178.7" stroke="#182230" stroke-width="9" stroke-linecap="round"/><line x1="160.7" y1="162.2" x2="157.3" y2="178.7" stroke="#ee9d5a" stroke-width="6" stroke-linecap="round"/><ellipse cx="157.3" cy="178.7" rx="4" ry="5" fill="#ee9d5a" stroke="#182230" stroke-width="1.5"/><line x1="152.5" y1="233.5" x2="158.9" y2="241.1" stroke="#182230" stroke-width="10" stroke-linecap="round"/><line x1="152.5" y1="233.5" x2="158.9" y2="241.1" stroke="#ee9d5a" stroke-width="7" stroke-linecap="round"/><ellipse cx="156.6" cy="206.7" rx="4" ry="4" fill="#e1e8ec" stroke="#182230" stroke-width="1.5"/><line x1="135.5" y1="234.5" x2="144.4" y2="241.7" stroke="#182230" stroke-width="10" stroke-linecap="round"/><line x1="135.5" y1="234.5" x2="144.4" y2="241.7" stroke="#5ab6f0" stroke-width="7" stroke-linecap="round"/><line x1="147.2" y1="209.3" x2="135.5" y2="232.5" stroke="#182230" stroke-width="10" stroke-linecap="round"/><line x1="147.2" y1="209.3" x2="135.5" y2="232.5" stroke="#5ab6f0" stroke-width="7" stroke-linecap="round"/><ellipse cx="149.4" cy="108.7" rx="21" ry="24" fill="#d2dbe1" stroke="#182230" stroke-width="2"/><ellipse cx="154.4" cy="111.6" rx="1.8" ry="2.2" fill="#182230"/><ellipse cx="164.3" cy="109.8" rx="1.8" ry="2.2" fill="#182230"/><ellipse cx="159.5" cy="118.8" rx="2.6" ry="3.2" fill="#7a3b4a" stroke="#182230" stroke-width="1"/><line x1="138.0" y1="184.6" x2="147.2" y2="209.3" stroke="#182230" stroke-width="12" stroke-linecap="round"/><line x1="138.0" y1="184.6" x2="147.2" y2="209.3" stroke="#5ab6f0" stroke-width="9" stroke-linecap="round"/><ellipse cx="147.2" cy="209.3" rx="4" ry="4" fill="#e1e8ec" stroke="#182230" stroke-width="1.5"/><polygon points="137.9,138.4 142.9,142.9 140.9,148.9 133.9,147.4 132.9,142.9" fill="#246a9e" stroke="#182230" stroke-width="1.2"/><line x1="137.9" y1="144.4" x2="128.6" y2="164.8" stroke="#182230" stroke-width="10" stroke-linecap="round"/><line x1="137.9" y1="144.4" x2="128.6" y2="164.8" stroke="#5ab6f0" stroke-width="7" stroke-linecap="round"/><line x1="128.6" y1="164.8" x2="131.7" y2="181.9" stroke="#182230" stroke-width="9" stroke-linecap="round"/><line x1="128.6" y1="164.8" x2="131.7" y2="181.9" stroke="#5ab6f0" stroke-width="6" stroke-linecap="round"/><ellipse cx="131.7" cy="181.9" rx="4" ry="5" fill="#5ab6f0" stroke="#182230" stroke-width="1.5"/><animate attributeName="display" values="none;none;inline;none;none" keyTimes="0.0000;0.1900;0.3800;0.5200;0.7600" calcMode="discrete" dur="500ms" repeatCount="indefinite"/></g><g display="none"><ellipse cx="144.0" cy="242" rx="30" ry="6" fill="#0a0f15"/><line x1="150.0" y1="184.9" x2="158.9" y2="207.0" stroke="#182230" stroke-width="12" stroke-linecap="round"/><line x1="150.0" y1="184.9" x2="158.9" y2="207.0" stroke="#ee9d5a" stroke-width="9" stroke-linecap="round"/><line x1="149.5" y1="132.0" x2="147.6" y2="150.5" stroke="#182230" stroke-width="10" stroke-linecap="round"/><line x1="149.5" y1="132.0" x2="147.6" y2="150.5" stroke="#b6c2cc" stroke-width="7" stroke-linecap="round"/><polygon points="158.3,141.5 138.9,139.6 138.0,185.4 150.0,186.6" fill="#b6c2cc" stroke="#182230" stroke-width="2" stroke-linejoin="round"/><ellipse cx="144.0" cy="186.0" rx="10" ry="7" fill="#637487" stroke="#182230" stroke-width="2"/><line x1="156.2" y1="144.7" x2="157.0" y2="167.4" stroke="#182230" stroke-width="10" stroke-linecap="round"/><line x1="156.2" y1="144.7" x2="157.0" y2="167.4" stroke="#ee9d5a" stroke-width="7" stroke-linecap="round"/><line x1="157.0" y1="167.4" x2="151.6" y2="182.8" stroke="#182230" stroke-width="9" stroke-linecap="round"/><line x1="157.0" y1="167.4" x2="151.6" y2="182.8" stroke="#ee9d5a" stroke-width="6" stroke-linecap="round"/><line x1="134.1" y1="233.7" x2="143.1" y2="240.9" stroke="#182230" stroke-width="10" stroke-linecap="round"/><line x1="134.1" y1="233.7" x2="143.1" y2="240.9" stroke="#5ab6f0" stroke-width="7" stroke-linecap="round"/><line x1="147.6" y1="211.6" x2="134.1" y2="231.7" stroke="#182230" stroke-width="10" stroke-linecap="round"/><line x1="147.6" y1="211.6" x2="134.1" y2="231.7" stroke="#5ab6f0" stroke-width="7" stroke-linecap="round"/><line x1="158.9" y1="207.0" x2="153.9" y2="232.3" stroke="#182230" stroke-width="10" stroke-linecap="round"/><line x1="158.9" y1="207.0" x2="153.9" y2="232.3" stroke="#ee9d5a" stroke-width="7" stroke-linecap="round"/><line x1="153.9" y1="234.3" x2="160.2" y2="241.9" stroke="#182230" stroke-width="10" stroke-linecap="round"/><line x1="153.9" y1="234.3" x2="160.2" y2="241.9" stroke="#ee9d5a" stroke-width="7" stroke-linecap="round"/><ellipse cx="151.6" cy="182.8" rx="4" ry="5" fill="#ee9d5a" stroke="#182230" stroke-width="1.5"/><line x1="138.0" y1="187.1" x2="147.6" y2="211.6" stroke="#182230" stroke-width="12" stroke-linecap="round"/><line x1="138.0" y1="187.1" x2="147.6" y2="211.6" stroke="#5ab6f0" stroke-width="9" stroke-linecap="round"/><ellipse cx="158.9" cy="207.0" rx="4" ry="4" fill="#e1e8ec" stroke="#182230" stroke-width="1.5"/><ellipse cx="147.6" cy="211.6" rx="4" ry="4" fill="#e1e8ec" stroke="#182230" stroke-width="1.5"/><ellipse cx="153.4" cy="112.5" rx="21" ry="24" fill="#d2dbe1" stroke="#182230" stroke-width="2"/><ellipse cx="158.3" cy="116.7" rx="1.8" ry="2.2" fill="#182230"/><ellipse cx="168.2" cy="114.9" rx="1.8" ry="2.2" fill="#182230"/><ellipse cx="163.0" cy="123.8" rx="2.6" ry="3.2" fill="#7a3b4a" stroke="#182230" stroke-width="1"/><polygon points="139.9,141.6 144.9,146.1 142.9,152.1 135.9,150.6 134.9,146.1" fill="#246a9e" stroke="#182230" stroke-width="1.2"/><line x1="139.9" y1="147.6" x2="128.9" y2="166.9" stroke="#182230" stroke-width="10" stroke-linecap="round"/><line x1="139.9" y1="147.6" x2="128.9" y2="166.9" stroke="#5ab6f0" stroke-width="7" stroke-linecap="round"/><line x1="128.9" y1="166.9" x2="130.3" y2="184.3" stroke="#182230" stroke-width="9" stroke-linecap="round"/><line x1="128.9" y1="166.9" x2="130.3" y2="184.3" stroke="#5ab6f0" stroke-width="6" stroke-linecap="round"/><ellipse cx="130.3" cy="184.3" rx="4" ry="5" fill="#5ab6f0" stroke="#182230" stroke-width="1.5"/><animate attributeName="display" values="none;none;none;inline;none" keyTimes="0.0000;0.1900;0.3800;0.5200;0.7600" calcMode="discrete" dur="500ms" repeatCount="indefinite"/></g><g display="none"><ellipse cx="145.0" cy="242" rx="30" ry="6" fill="#0a0f15"/><line x1="151.4" y1="186.0" x2="161.1" y2="206.1" stroke="#182230" stroke-width="12" stroke-linecap="round"/><line x1="151.4" y1="186.0" x2="161.1" y2="206.1" stroke="#ee9d5a" stroke-width="9" stroke-linecap="round"/><line x1="149.7" y1="133.0" x2="147.6" y2="151.5" stroke="#182230" stroke-width="10" stroke-linecap="round"/><line x1="149.7" y1="133.0" x2="147.6" y2="151.5" stroke="#b6c2cc" stroke-width="7" stroke-linecap="round"/><polygon points="158.6,142.3 138.1,140.8 138.7,186.4 151.3,187.3" fill="#b6c2cc" stroke="#182230" stroke-width="2" stroke-linejoin="round"/><ellipse cx="145.0" cy="186.9" rx="10" ry="7" fill="#637487" stroke="#182230" stroke-width="2"/><line x1="156.8" y1="145.9" x2="158.0" y2="168.6" stroke="#182230" stroke-width="10" stroke-linecap="round"/><line x1="156.8" y1="145.9" x2="158.0" y2="168.6" stroke="#ee9d5a" stroke-width="7" stroke-linecap="round"/><line x1="158.0" y1="168.6" x2="152.1" y2="183.8" stroke="#182230" stroke-width="9" stroke-linecap="round"/><line x1="158.0" y1="168.6" x2="152.1" y2="183.8" stroke="#ee9d5a" stroke-width="6" stroke-linecap="round"/><line x1="135.8" y1="234.0" x2="144.8" y2="241.2" stroke="#182230" stroke-width="10" stroke-linecap="round"/><line x1="135.8" y1="234.0" x2="144.8" y2="241.2" stroke="#5ab6f0" stroke-width="7" stroke-linecap="round"/><line x1="152.2" y1="230.4" x2="158.6" y2="235.0" stroke="#182230" stroke-width="10" stroke-linecap="round"/><line x1="152.2" y1="230.4" x2="158.6" y2="235.0" stroke="#ee9d5a" stroke-width="7" stroke-linecap="round"/><line x1="161.1" y1="206.1" x2="152.2" y2="228.4" stroke="#182230" stroke-width="10" stroke-linecap="round"/><line x1="161.1" y1="206.1" x2="152.2" y2="228.4" stroke="#ee9d5a" stroke-width="7" stroke-linecap="round"/><line x1="149.5" y1="211.7" x2="135.8" y2="232.0" stroke="#182230" stroke-width="10" stroke-linecap="round"/><line x1="149.5" y1="211.7" x2="135.8" y2="232.0" stroke="#5ab6f0" stroke-width="7" stroke-linecap="round"/><ellipse cx="152.1" cy="183.8" rx="4" ry="5" fill="#ee9d5a" stroke="#182230" stroke-width="1.5"/><line x1="138.6" y1="187.8" x2="149.5" y2="211.7" stroke="#182230" stroke-width="12" stroke-linecap="round"/><line x1="138.6" y1="187.8" x2="149.5" y2="211.7" stroke="#5ab6f0" stroke-width="9" stroke-linecap="round"/><ellipse cx="149.5" cy="211.7" rx="4" ry="4" fill="#e1e8ec" stroke="#182230" stroke-width="1.5"/><ellipse cx="161.1" cy="206.1" rx="4" ry="4" fill="#e1e8ec" stroke="#182230" stroke-width="1.5"/><ellipse cx="153.6" cy="113.5" rx="21" ry="24" fill="#d2dbe1" stroke="#182230" stroke-width="2"/><ellipse cx="158.5" cy="117.6" rx="1.8" ry="2.2" fill="#182230"/><ellipse cx="168.4" cy="115.9" rx="1.8" ry="2.2" fill="#182230"/><ellipse cx="163.2" cy="124.8" rx="2.6" ry="3.2" fill="#7a3b4a" stroke="#182230" stroke-width="1"/><polygon points="139.4,142.4 144.4,146.9 142.4,152.9 135.4,151.4 134.4,146.9" fill="#246a9e" stroke="#182230" stroke-width="1.2"/><line x1="139.4" y1="148.4" x2="128.9" y2="167.9" stroke="#182230" stroke-width="10" stroke-linecap="round"/><line x1="139.4" y1="148.4" x2="128.9" y2="167.9" stroke="#5ab6f0" stroke-width="7" stroke-linecap="round"/><line x1="128.9" y1="167.9" x2="131.0" y2="185.3" stroke="#182230" stroke-width="9" stroke-linecap="round"/><line x1="128.9" y1="167.9" x2="131.0" y2="185.3" stroke="#5ab6f0" stroke-width="6" stroke-linecap="round"/><ellipse cx="131.0" cy="185.3" rx="4" ry="5" fill="#5ab6f0" stroke="#182230" stroke-width="1.5"/><animate attributeName="display" values="none;none;none;none;inline" keyTimes="0.0000;0.1900;0.3800;0.5200;0.7600" calcMode="discrete" dur="500ms" repeatCount="indefinite"/></g></g></svg>