<svg xmlns="http://www.w3.org/2000/svg" viewBox="0 0 1440 438" width="1080" height="328.5" font-family="sans-serif"><rect width="1440" height="438" fill="#121821"/><g transform="translate(0,0)"><rect width="288" height="288" fill="#19202a" stroke="#2c3542"/><line x1="24" y1="40" x2="24" y2="288" stroke="#222b37"/><line x1="48" y1="40" x2="48" y2="288" stroke="#222b37"/><line x1="72" y1="40" x2="72" y2="288" stroke="#222b37"/><line x1="96" y1="40" x2="96" y2="288" stroke="#222b37"/><line x1="120" y1="40" x2="120" y2="288" stroke="#222b37"/><line x1="144" y1="40" x2="144" y2="288" stroke="#222b37"/><line x1="168" y1="40" x2="168" y2="288" stroke="#222b37"/><line x1="192" y1="40" x2="192" y2="288" stroke="#222b37"/><line x1="216" y1="40" x2="216" y2="288" stroke="#222b37"/><line x1="240" y1="40" x2="240" y2="288" stroke="#222b37"/><line x1="264" y1="40" x2="264" y2="288" stroke="#222b37"/><line x1="0" y1="48" x2="288" y2="48" stroke="#222b37"/><line x1="0" y1="72" x2="288" y2="72" stroke="#222b37"/><line x1="0" y1="96" x2="288" y2="96" stroke="#222b37"/><line x1="0" y1="120" x2="288" y2="120" stroke="#222b37"/><line x1="0" y1="144" x2="288" y2="144" stroke="#222b37"/><line x1="0" y1="168" x2="288" y2="168" stroke="#222b37"/><line x1="0" y1="192" x2="288" y2="192" stroke="#222b37"/><line x1="0" y1="216" x2="288" y2="216" stroke="#222b37"/><line x1="0" y1="240" x2="288" y2="240" stroke="#222b37"/><line x1="0" y1="264" x2="288" y2="264" stroke="#222b37"/><polyline points="144.0,200.2 144.0,198.2 144.0,195.2 144.0,191.2 144.0,188.2" fill="none" stroke="#ff7a7a" stroke-width="1" stroke-dasharray="3 3" opacity=".6"/><circle cx="144.0" cy="200.2" r="3" fill="#ff7a7a"/><ellipse cx="144.0" cy="242" rx="30" ry="6" fill="#0a0f15"/><line x1="132.5" y1="156.3" x2="128.9" y2="169.4" stroke="#182230" stroke-width="10" stroke-linecap="round"/><line x1="132.5" y1="156.3" x2="128.9" y2="169.4" stroke="#5ab6f0" stroke-width="7" stroke-linecap="round"/><line x1="155.5" y1="156.3" x2="159.1" y2="169.4" stroke="#182230" stroke-width="10" stroke-linecap="round"/><line x1="155.5" y1="156.3" x2="159.1" y2="169.4" stroke="#ee9d5a" stroke-width="7" stroke-linecap="round"/><line x1="128.9" y1="169.4" x2="140.0" y2="181.5" stroke="#182230" stroke-width="9" stroke-linecap="round"/><line x1="128.9" y1="169.4" x2="140.0" y2="181.5" stroke="#5ab6f0" stroke-width="6" stroke-linecap="round"/><line x1="159.1" y1="169.4" x2="148.0" y2="181.5" stroke="#182230" stroke-width="9" stroke-linecap="round"/><line x1="159.1" y1="169.4" x2="148.0" y2="181.5" stroke="#ee9d5a" stroke-width="6" stroke-linecap="round"/><ellipse cx="140.0" cy="181.5" rx="4" ry="5" fill="#5ab6f0" stroke="#182230" stroke-width="1.5"/><ellipse cx="148.0" cy="181.5" rx="4" ry="5" fill="#ee9d5a" stroke="#182230" stroke-width="1.5"/><path d="M140.0,181.5 Q144.0,180.6 148.0,181.5" fill="none" stroke="#3a1650" stroke-width="6.5" stroke-linecap="round"/><path d="M140.0,181.5 Q144.0,180.6 148.0,181.5" fill="none" stroke="#b36be0" stroke-width="4" stroke-linecap="round"/><ellipse cx="140.0" cy="181.5" rx="5.5" ry="3.2" fill="none" stroke="#3a1650" stroke-width="3.5"/><ellipse cx="140.0" cy="181.5" rx="5.5" ry="3.2" fill="none" stroke="#b36be0" stroke-width="2"/><ellipse cx="148.0" cy="181.5" rx="5.5" ry="3.2" fill="none" stroke="#3a1650" stroke-width="3.5"/><ellipse cx="148.0" cy="181.5" rx="5.5" ry="3.2" fill="none" stroke="#b36be0" stroke-width="2"/><path d="M144.0,137.4 Q147.3,159.9 140.0,181.5" fill="none" stroke="#3a1650" stroke-width="6.5" stroke-linecap="round"/><path d="M144.0,137.4 Q147.3,159.9 140.0,181.5" fill="none" stroke="#b36be0" stroke-width="4" stroke-linecap="round"/><ellipse cx="140.0" cy="181.5" rx="5.5" ry="3.2" fill="none" stroke="#3a1650" stroke-width="3.5"/><ellipse cx="140.0" cy="181.5" rx="5.5" ry="3.2" fill="none" stroke="#b36be0" stroke-width="2"/><line x1="144.0" y1="143.3" x2="144.0" y2="160.3" stroke="#182230" stroke-width="10" stroke-linecap="round"/><line x1="144.0" y1="143.3" x2="144.0" y2="160.3" stroke="#b6c2cc" stroke-width="7" stroke-linecap="round"/><polygon points="157.0,150.3 131.0,150.3 135.0,193.0 153.0,193.0" fill="#b6c2cc" stroke="#182230" stroke-width="2" stroke-linejoin="round"/><ellipse cx="144.0" cy="193.0" rx="10" ry="7" fill="#637487" stroke="#182230" stroke-width="2"/><polygon points="132.5,150.3 137.5,154.8 135.5,160.8 128.5,159.3 127.5,154.8" fill="#246a9e" stroke="#182230" stroke-width="1.2"/><line x1="135.5" y1="193.0" x2="140.0" y2="214.4" stroke="#182230" stroke-width="12" stroke-linecap="round"/><line x1="135.5" y1="193.0" x2="140.0" y2="214.4" stroke="#5ab6f0" stroke-width="9" stroke-linecap="round"/><line x1="152.5" y1="193.0" x2="148.0" y2="214.4" stroke="#182230" stroke-width="12" stroke-linecap="round"/><line x1="152.5" y1="193.0" x2="148.0" y2="214.4" stroke="#ee9d5a" stroke-width="9" stroke-linecap="round"/><line x1="140.0" y1="214.4" x2="135.0" y2="232.0" stroke="#182230" stroke-width="10" stroke-linecap="round"/><line x1="140.0" y1="214.4" x2="135.0" y2="232.0" stroke="#5ab6f0" stroke-width="7" stroke-linecap="round"/><line x1="148.0" y1="214.4" x2="153.0" y2="232.0" stroke="#182230" stroke-width="10" stroke-linecap="round"/><line x1="148.0" y1="214.4" x2="153.0" y2="232.0" stroke="#ee9d5a" stroke-width="7" stroke-linecap="round"/><line x1="135.0" y1="234.0" x2="137.3" y2="241.9" stroke="#182230" stroke-width="10" stroke-linecap="round"/><line x1="135.0" y1="234.0" x2="137.3" y2="241.9" stroke="#5ab6f0" stroke-width="7" stroke-linecap="round"/><line x1="153.0" y1="234.0" x2="150.7" y2="241.9" stroke="#182230" stroke-width="10" stroke-linecap="round"/><line x1="153.0" y1="234.0" x2="150.7" y2="241.9" stroke="#ee9d5a" stroke-width="7" stroke-linecap="round"/><ellipse cx="140.0" cy="214.4" rx="4" ry="4" fill="#e1e8ec" stroke="#182230" stroke-width="1.5"/><ellipse cx="148.0" cy="214.4" rx="4" ry="4" fill="#e1e8ec" stroke="#182230" stroke-width="1.5"/><ellipse cx="146.1" cy="127.9" rx="21" ry="24" fill="#d2dbe1" stroke="#182230" stroke-width="2"/><ellipse cx="139.3" cy="135.5" rx="1.8" ry="2.2" fill="#182230"/><ellipse cx="153.2" cy="137.0" rx="1.8" ry="2.2" fill="#182230"/><ellipse cx="145.5" cy="143.1" rx="2.6" ry="3.2" fill="#7a3b4a" stroke="#182230" stroke-width="1"/></g><text x="8" y="310" font-size="16" font-weight="700" fill="#c4d2df">0. 脱力</text><foreignObject x="6" y="318" width="276" height="110"><div xmlns="http://www.w3.org/1999/xhtml" style="font:12px sans-serif;color:#8797a6;line-height:1.35">limp<br/>160ms</div></foreignObject><g transform="translate(288,0)"><rect width="288" height="288" fill="#19202a" stroke="#2c3542"/><line x1="24" y1="40" x2="24" y2="288" stroke="#222b37"/><line x1="48" y1="40" x2="48" y2="288" stroke="#222b37"/><line x1="72" y1="40" x2="72" y2="288" stroke="#222b37"/><line x1="96" y1="40" x2="96" y2="288" stroke="#222b37"/><line x1="120" y1="40" x2="120" y2="288" stroke="#222b37"/><line x1="144" y1="40" x2="144" y2="288" stroke="#222b37"/><line x1="168" y1="40" x2="168" y2="288" stroke="#222b37"/><line x1="192" y1="40" x2="192" y2="288" stroke="#222b37"/><line x1="216" y1="40" x2="216" y2="288" stroke="#222b37"/><line x1="240" y1="40" x2="240" y2="288" stroke="#222b37"/><line x1="264" y1="40" x2="264" y2="288" stroke="#222b37"/><line x1="0" y1="48" x2="288" y2="48" stroke="#222b37"/><line x1="0" y1="72" x2="288" y2="72" stroke="#222b37"/><line x1="0" y1="96" x2="288" y2="96" stroke="#222b37"/><line x1="0" y1="120" x2="288" y2="120" stroke="#222b37"/><line x1="0" y1="144" x2="288" y2="144" stroke="#222b37"/><line x1="0" y1="168" x2="288" y2="168" stroke="#222b37"/><line x1="0" y1="192" x2="288" y2="192" stroke="#222b37"/><line x1="0" y1="216" x2="288" y2="216" stroke="#222b37"/><line x1="0" y1="240" x2="288" y2="240" stroke="#222b37"/><line x1="0" y1="264" x2="288" y2="264" stroke="#222b37"/><polyline points="144.0,200.2 144.0,198.2 144.0,195.2 144.0,191.2 144.0,188.2" fill="none" stroke="#ff7a7a" stroke-width="1" stroke-dasharray="3 3" opacity=".6"/><circle cx="144.0" cy="198.2" r="3" fill="#ff7a7a"/><ellipse cx="144.0" cy="242" rx="30" ry="6" fill="#0a0f15"/><line x1="132.5" y1="153.0" x2="129.0" y2="167.2" stroke="#182230" stroke-width="10" stroke-linecap="round"/><line x1="132.5" y1="153.0" x2="129.0" y2="167.2" stroke="#5ab6f0" stroke-width="7" stroke-linecap="round"/><line x1="155.5" y1="153.0" x2="159.0" y2="167.2" stroke="#182230" stroke-width="10" stroke-linecap="round"/><line x1="155.5" y1="153.0" x2="159.0" y2="167.2" stroke="#ee9d5a" stroke-width="7" stroke-linecap="round"/><line x1="129.0" y1="167.2" x2="140.0" y2="179.8" stroke="#182230" stroke-width="9" stroke-linecap="round"/><line x1="129.0" y1="167.2" x2="140.0" y2="179.8" stroke="#5ab6f0" stroke-width="6" stroke-linecap="round"/><line x1="159.0" y1="167.2" x2="148.0" y2="179.8" stroke="#182230" stroke-width="9" stroke-linecap="round"/><line x1="159.0" y1="167.2" x2="148.0" y2="179.8" stroke="#ee9d5a" stroke-width="6" stroke-linecap="round"/><ellipse cx="140.0" cy="179.8" rx="4" ry="5" fill="#5ab6f0" stroke="#182230" stroke-width="1.5"/><ellipse cx="148.0" cy="179.8" rx="4" ry="5" fill="#ee9d5a" stroke="#182230" stroke-width="1.5"/><path d="M140.0,179.8 Q144.0,178.9 148.0,179.8" fill="none" stroke="#3a1650" stroke-width="6.5" stroke-linecap="round"/><path d="M140.0,179.8 Q144.0,178.9 148.0,179.8" fill="none" stroke="#b36be0" stroke-width="4" stroke-linecap="round"/><ellipse cx="140.0" cy="179.8" rx="5.5" ry="3.2" fill="none" stroke="#3a1650" stroke-width="3.5"/><ellipse cx="140.0" cy="179.8" rx="5.5" ry="3.2" fill="none" stroke="#b36be0" stroke-width="2"/><ellipse cx="148.0" cy="179.8" rx="5.5" ry="3.2" fill="none" stroke="#3a1650" stroke-width="3.5"/><ellipse cx="148.0" cy="179.8" rx="5.5" ry="3.2" fill="none" stroke="#b36be0" stroke-width="2"/><path d="M144.0,137.4 Q147.1,159.1 140.0,179.8" fill="none" stroke="#3a1650" stroke-width="6.5" stroke-linecap="round"/><path d="M144.0,137.4 Q147.1,159.1 140.0,179.8" fill="none" stroke="#b36be0" stroke-width="4" stroke-linecap="round"/><ellipse cx="140.0" cy="179.8" rx="5.5" ry="3.2" fill="none" stroke="#3a1650" stroke-width="3.5"/><ellipse cx="140.0" cy="179.8" rx="5.5" ry="3.2" fill="none" stroke="#b36be0" stroke-width="2"/><line x1="144.0" y1="139.6" x2="144.0" y2="157.2" stroke="#182230" stroke-width="10" stroke-linecap="round"/><line x1="144.0" y1="139.6" x2="144.0" y2="157.2" stroke="#b6c2cc" stroke-width="7" stroke-linecap="round"/><polygon points="157.0,147.2 131.0,147.2 135.0,191.0 153.0,191.0" fill="#b6c2cc" stroke="#182230" stroke-width="2" stroke-linejoin="round"/><ellipse cx="144.0" cy="191.0" rx="10" ry="7" fill="#637487" stroke="#182230" stroke-width="2"/><polygon points="132.5,147.0 137.5,151.5 135.5,157.5 128.5,156.0 127.5,151.5" fill="#246a9e" stroke="#182230" stroke-width="1.2"/><line x1="135.5" y1="191.0" x2="139.7" y2="213.3" stroke="#182230" stroke-width="12" stroke-linecap="round"/><line x1="135.5" y1="191.0" x2="139.7" y2="213.3" stroke="#5ab6f0" stroke-width="9" stroke-linecap="round"/><line x1="152.5" y1="191.0" x2="148.3" y2="213.3" stroke="#182230" stroke-width="12" stroke-linecap="round"/><line x1="152.5" y1="191.0" x2="148.3" y2="213.3" stroke="#ee9d5a" stroke-width="9" stroke-linecap="round"/><line x1="139.7" y1="213.3" x2="135.0" y2="232.0" stroke="#182230" stroke-width="10" stroke-linecap="round"/><line x1="139.7" y1="213.3" x2="135.0" y2="232.0" stroke="#5ab6f0" stroke-width="7" stroke-linecap="round"/><line x1="148.3" y1="213.3" x2="153.0" y2="232.0" stroke="#182230" stroke-width="10" stroke-linecap="round"/><line x1="148.3" y1="213.3" x2="153.0" y2="232.0" stroke="#ee9d5a" stroke-width="7" stroke-linecap="round"/><line x1="135.0" y1="234.0" x2="137.3" y2="241.9" stroke="#182230" stroke-width="10" stroke-linecap="round"/><line x1="135.0" y1="234.0" x2="137.3" y2="241.9" stroke="#5ab6f0" stroke-width="7" stroke-linecap="round"/><line x1="153.0" y1="234.0" x2="150.7" y2="241.9" stroke="#182230" stroke-width="10" stroke-linecap="round"/><line x1="153.0" y1="234.0" x2="150.7" y2="241.9" stroke="#ee9d5a" stroke-width="7" stroke-linecap="round"/><ellipse cx="139.7" cy="213.3" rx="4" ry="4" fill="#e1e8ec" stroke="#182230" stroke-width="1.5"/><ellipse cx="148.3" cy="213.3" rx="4" ry="4" fill="#e1e8ec" stroke="#182230" stroke-width="1.5"/><ellipse cx="145.4" cy="122.3" rx="21" ry="24" fill="#d2dbe1" stroke="#182230" stroke-width="2"/><ellipse cx="138.5" cy="128.6" rx="1.8" ry="2.2" fill="#182230"/><ellipse cx="152.5" cy="129.6" rx="1.8" ry="2.2" fill="#182230"/><ellipse cx="145.0" cy="136.5" rx="2.6" ry="3.2" fill="#7a3b4a" stroke="#182230" stroke-width="1"/></g><text x="296" y="310" font-size="16" font-weight="700" fill="#c4d2df">1. …</text><foreignObject x="294" y="318" width="276" height="110"><div xmlns="http://www.w3.org/1999/xhtml" style="font:12px sans-serif;color:#8797a6;line-height:1.35"><br/>120ms</div></foreignObject><g transform="translate(576,0)"><rect width="288" height="288" fill="#19202a" stroke="#2c3542"/><line x1="24" y1="40" x2="24" y2="288" stroke="#222b37"/><line x1="48" y1="40" x2="48" y2="288" stroke="#222b37"/><line x1="72" y1="40" x2="72" y2="288" stroke="#222b37"/><line x1="96" y1="40" x2="96" y2="288" stroke="#222b37"/><line x1="120" y1="40" x2="120" y2="288" stroke="#222b37"/><line x1="144" y1="40" x2="144" y2="288" stroke="#222b37"/><line x1="168" y1="40" x2="168" y2="288" stroke="#222b37"/><line x1="192" y1="40" x2="192" y2="288" stroke="#222b37"/><line x1="216" y1="40" x2="216" y2="288" stroke="#222b37"/><line x1="240" y1="40" x2="240" y2="288" stroke="#222b37"/><line x1="264" y1="40" x2="264" y2="288" stroke="#222b37"/><line x1="0" y1="48" x2="288" y2="48" stroke="#222b37"/><line x1="0" y1="72" x2="288" y2="72" stroke="#222b37"/><line x1="0" y1="96" x2="288" y2="96" stroke="#222b37"/><line x1="0" y1="120" x2="288" y2="120" stroke="#222b37"/><line x1="0" y1="144" x2="288" y2="144" stroke="#222b37"/><line x1="0" y1="168" x2="288" y2="168" stroke="#222b37"/><line x1="0" y1="192" x2="288" y2="192" stroke="#222b37"/><line x1="0" y1="216" x2="288" y2="216" stroke="#222b37"/><line x1="0" y1="240" x2="288" y2="240" stroke="#222b37"/><line x1="0" y1="264" x2="288" y2="264" stroke="#222b37"/><polyline points="144.0,200.2 144.0,198.2 144.0,195.2 144.0,191.2 144.0,188.2" fill="none" stroke="#ff7a7a" stroke-width="1" stroke-dasharray="3 3" opacity=".6"/><circle cx="144.0" cy="195.2" r="3" fill="#ff7a7a"/><ellipse cx="144.0" cy="242" rx="30" ry="6" fill="#0a0f15"/><line x1="132.5" y1="148.7" x2="129.2" y2="164.1" stroke="#182230" stroke-width="10" stroke-linecap="round"/><line x1="132.5" y1="148.7" x2="129.2" y2="164.1" stroke="#5ab6f0" stroke-width="7" stroke-linecap="round"/><line x1="155.5" y1="148.7" x2="158.8" y2="164.1" stroke="#182230" stroke-width="10" stroke-linecap="round"/><line x1="155.5" y1="148.7" x2="158.8" y2="164.1" stroke="#ee9d5a" stroke-width="7" stroke-linecap="round"/><line x1="129.2" y1="164.1" x2="140.0" y2="177.3" stroke="#182230" stroke-width="9" stroke-linecap="round"/><line x1="129.2" y1="164.1" x2="140.0" y2="177.3" stroke="#5ab6f0" stroke-width="6" stroke-linecap="round"/><line x1="158.8" y1="164.1" x2="148.0" y2="177.3" stroke="#182230" stroke-width="9" stroke-linecap="round"/><line x1="158.8" y1="164.1" x2="148.0" y2="177.3" stroke="#ee9d5a" stroke-width="6" stroke-linecap="round"/><ellipse cx="140.0" cy="177.3" rx="4" ry="5" fill="#5ab6f0" stroke="#182230" stroke-width="1.5"/><ellipse cx="148.0" cy="177.3" rx="4" ry="5" fill="#ee9d5a" stroke="#182230" stroke-width="1.5"/><path d="M140.0,177.3 Q144.0,176.4 148.0,177.3" fill="none" stroke="#3a1650" stroke-width="6.5" stroke-linecap="round"/><path d="M140.0,177.3 Q144.0,176.4 148.0,177.3" fill="none" stroke="#b36be0" stroke-width="4" stroke-linecap="round"/><ellipse cx="140.0" cy="177.3" rx="5.5" ry="3.2" fill="none" stroke="#3a1650" stroke-width="3.5"/><ellipse cx="140.0" cy="177.3" rx="5.5" ry="3.2" fill="none" stroke="#b36be0" stroke-width="2"/><ellipse cx="148.0" cy="177.3" rx="5.5" ry="3.2" fill="none" stroke="#3a1650" stroke-width="3.5"/><ellipse cx="148.0" cy="177.3" rx="5.5" ry="3.2" fill="none" stroke="#b36be0" stroke-width="2"/><path d="M144.0,137.4 Q146.8,157.8 140.0,177.3" fill="none" stroke="#3a1650" stroke-width="6.5" stroke-linecap="round"/><path d="M144.0,137.4 Q146.8,157.8 140.0,177.3" fill="none" stroke="#b36be0" stroke-width="4" stroke-linecap="round"/><ellipse cx="140.0" cy="177.3" rx="5.5" ry="3.2" fill="none" stroke="#3a1650" stroke-width="3.5"/><ellipse cx="140.0" cy="177.3" rx="5.5" ry="3.2" fill="none" stroke="#b36be0" stroke-width="2"/><line x1="144.0" y1="134.7" x2="144.0" y2="153.0" stroke="#182230" stroke-width="10" stroke-linecap="round"/><line x1="144.0" y1="134.7" x2="144.0" y2="153.0" stroke="#b6c2cc" stroke-width="7" stroke-linecap="round"/><polygon points="157.0,143.0 131.0,143.0 135.0,188.0 153.0,188.0" fill="#b6c2cc" stroke="#182230" stroke-width="2" stroke-linejoin="round"/><ellipse cx="144.0" cy="188.0" rx="10" ry="7" fill="#637487" stroke="#182230" stroke-width="2"/><polygon points="132.5,142.7 137.5,147.2 135.5,153.2 128.5,151.7 127.5,147.2" fill="#246a9e" stroke="#182230" stroke-width="1.2"/><line x1="135.5" y1="188.0" x2="139.9" y2="211.5" stroke="#182230" stroke-width="12" stroke-linecap="round"/><line x1="135.5" y1="188.0" x2="139.9" y2="211.5" stroke="#5ab6f0" stroke-width="9" stroke-linecap="round"/><line x1="152.5" y1="188.0" x2="148.1" y2="211.5" stroke="#182230" stroke-width="12" stroke-linecap="round"/><line x1="152.5" y1="188.0" x2="148.1" y2="211.5" stroke="#ee9d5a" stroke-width="9" stroke-linecap="round"/><line x1="139.9" y1="211.5" x2="135.0" y2="232.0" stroke="#182230" stroke-width="10" stroke-linecap="round"/><line x1="139.9" y1="211.5" x2="135.0" y2="232.0" stroke="#5ab6f0" stroke-width="7" stroke-linecap="round"/><line x1="148.1" y1="211.5" x2="153.0" y2="232.0" stroke="#182230" stroke-width="10" stroke-linecap="round"/><line x1="148.1" y1="211.5" x2="153.0" y2="232.0" stroke="#ee9d5a" stroke-width="7" stroke-linecap="round"/><line x1="135.0" y1="234.0" x2="137.3" y2="241.9" stroke="#182230" stroke-width="10" stroke-linecap="round"/><line x1="135.0" y1="234.0" x2="137.3" y2="241.9" stroke="#5ab6f0" stroke-width="7" stroke-linecap="round"/><line x1="153.0" y1="234.0" x2="150.7" y2="241.9" stroke="#182230" stroke-width="10" stroke-linecap="round"/><line x1="153.0" y1="234.0" x2="150.7" y2="241.9" stroke="#ee9d5a" stroke-width="7" stroke-linecap="round"/><ellipse cx="139.9" cy="211.5" rx="4" ry="4" fill="#e1e8ec" stroke="#182230" stroke-width="1.5"/><ellipse cx="148.1" cy="211.5" rx="4" ry="4" fill="#e1e8ec" stroke="#182230" stroke-width="1.5"/><ellipse cx="144.0" cy="115.8" rx="21" ry="24" fill="#d2dbe1" stroke="#182230" stroke-width="2"/><ellipse cx="137.0" cy="120.3" rx="1.8" ry="2.2" fill="#182230"/><ellipse cx="151.0" cy="120.3" rx="1.8" ry="2.2" fill="#182230"/><line x1="140.5" y1="127.7" x2="147.5" y2="127.7" stroke="#182230" stroke-width="1.4"/></g><text x="584" y="310" font-size="16" font-weight="700" fill="#c4d2df">2. 顔を上げる</text><foreignObject x="582" y="318" width="276" height="110"><div xmlns="http://www.w3.org/1999/xhtml" style="font:12px sans-serif;color:#8797a6;line-height:1.35">lifts her head<br/>120ms</div></foreignObject><g transform="translate(864,0)"><rect width="288" height="288" fill="#19202a" stroke="#2c3542"/><line x1="24" y1="40" x2="24" y2="288" stroke="#222b37"/><line x1="48" y1="40" x2="48" y2="288" stroke="#222b37"/><line x1="72" y1="40" x2="72" y2="288" stroke="#222b37"/><line x1="96" y1="40" x2="96" y2="288" stroke="#222b37"/><line x1="120" y1="40" x2="120" y2="288" stroke="#222b37"/><line x1="144" y1="40" x2="144" y2="288" stroke="#222b37"/><line x1="168" y1="40" x2="168" y2="288" stroke="#222b37"/><line x1="192" y1="40" x2="192" y2="288" stroke="#222b37"/><line x1="216" y1="40" x2="216" y2="288" stroke="#222b37"/><line x1="240" y1="40" x2="240" y2="288" stroke="#222b37"/><line x1="264" y1="40" x2="264" y2="288" stroke="#222b37"/><line x1="0" y1="48" x2="288" y2="48" stroke="#222b37"/><line x1="0" y1="72" x2="288" y2="72" stroke="#222b37"/><line x1="0" y1="96" x2="288" y2="96" stroke="#222b37"/><line x1="0" y1="120" x2="288" y2="120" stroke="#222b37"/><line x1="0" y1="144" x2="288" y2="144" stroke="#222b37"/><line x1="0" y1="168" x2="288" y2="168" stroke="#222b37"/><line x1="0" y1="192" x2="288" y2="192" stroke="#222b37"/><line x1="0" y1="216" x2="288" y2="216" stroke="#222b37"/><line x1="0" y1="240" x2="288" y2="240" stroke="#222b37"/><line x1="0" y1="264" x2="288" y2="264" stroke="#222b37"/><polyline points="144.0,200.2 144.0,198.2 144.0,195.2 144.0,191.2 144.0,188.2" fill="none" stroke="#ff7a7a" stroke-width="1" stroke-dasharray="3 3" opacity=".6"/><circle cx="144.0" cy="191.2" r="3" fill="#ff7a7a"/><ellipse cx="144.0" cy="242" rx="30" ry="6" fill="#0a0f15"/><line x1="132.5" y1="143.6" x2="129.4" y2="160.3" stroke="#182230" stroke-width="10" stroke-linecap="round"/><line x1="132.5" y1="143.6" x2="129.4" y2="160.3" stroke="#5ab6f0" stroke-width="7" stroke-linecap="round"/><line x1="155.5" y1="143.6" x2="158.6" y2="160.3" stroke="#182230" stroke-width="10" stroke-linecap="round"/><line x1="155.5" y1="143.6" x2="158.6" y2="160.3" stroke="#ee9d5a" stroke-width="7" stroke-linecap="round"/><line x1="129.4" y1="160.3" x2="140.0" y2="173.9" stroke="#182230" stroke-width="9" stroke-linecap="round"/><line x1="129.4" y1="160.3" x2="140.0" y2="173.9" stroke="#5ab6f0" stroke-width="6" stroke-linecap="round"/><line x1="158.6" y1="160.3" x2="148.0" y2="173.9" stroke="#182230" stroke-width="9" stroke-linecap="round"/><line x1="158.6" y1="160.3" x2="148.0" y2="173.9" stroke="#ee9d5a" stroke-width="6" stroke-linecap="round"/><ellipse cx="140.0" cy="173.9" rx="4" ry="5" fill="#5ab6f0" stroke="#182230" stroke-width="1.5"/><ellipse cx="148.0" cy="173.9" rx="4" ry="5" fill="#ee9d5a" stroke="#182230" stroke-width="1.5"/><path d="M140.0,173.9 Q144.0,172.9 148.0,173.9" fill="none" stroke="#3a1650" stroke-width="6.5" stroke-linecap="round"/><path d="M140.0,173.9 Q144.0,172.9 148.0,173.9" fill="none" stroke="#b36be0" stroke-width="4" stroke-linecap="round"/><ellipse cx="140.0" cy="173.9" rx="5.5" ry="3.2" fill="none" stroke="#3a1650" stroke-width="3.5"/><ellipse cx="140.0" cy="173.9" rx="5.5" ry="3.2" fill="none" stroke="#b36be0" stroke-width="2"/><ellipse cx="148.0" cy="173.9" rx="5.5" ry="3.2" fill="none" stroke="#3a1650" stroke-width="3.5"/><ellipse cx="148.0" cy="173.9" rx="5.5" ry="3.2" fill="none" stroke="#b36be0" stroke-width="2"/><path d="M144.0,137.4 Q146.4,156.1 140.0,173.9" fill="none" stroke="#3a1650" stroke-width="6.5" stroke-linecap="round"/><path d="M144.0,137.4 Q146.4,156.1 140.0,173.9" fill="none" stroke="#b36be0" stroke-width="4" stroke-linecap="round"/><ellipse cx="140.0" cy="173.9" rx="5.5" ry="3.2" fill="none" stroke="#3a1650" stroke-width="3.5"/><ellipse cx="140.0" cy="173.9" rx="5.5" ry="3.2" fill="none" stroke="#b36be0" stroke-width="2"/><line x1="144.0" y1="129.3" x2="144.0" y2="148.0" stroke="#182230" stroke-width="10" stroke-linecap="round"/><line x1="144.0" y1="129.3" x2="144.0" y2="148.0" stroke="#b6c2cc" stroke-width="7" stroke-linecap="round"/><polygon points="157.0,138.0 131.0,138.0 135.0,184.0 153.0,184.0" fill="#b6c2cc" stroke="#182230" stroke-width="2" stroke-linejoin="round"/><ellipse cx="144.0" cy="184.0" rx="10" ry="7" fill="#637487" stroke="#182230" stroke-width="2"/><polygon points="132.5,137.6 137.5,142.1 135.5,148.1 128.5,146.6 127.5,142.1" fill="#246a9e" stroke="#182230" stroke-width="1.2"/><line x1="135.5" y1="184.0" x2="139.9" y2="209.0" stroke="#182230" stroke-width="12" stroke-linecap="round"/><line x1="135.5" y1="184.0" x2="139.9" y2="209.0" stroke="#5ab6f0" stroke-width="9" stroke-linecap="round"/><line x1="152.5" y1="184.0" x2="148.1" y2="209.0" stroke="#182230" stroke-width="12" stroke-linecap="round"/><line x1="152.5" y1="184.0" x2="148.1" y2="209.0" stroke="#ee9d5a" stroke-width="9" stroke-linecap="round"/><line x1="139.9" y1="209.0" x2="135.0" y2="232.0" stroke="#182230" stroke-width="10" stroke-linecap="round"/><line x1="139.9" y1="209.0" x2="135.0" y2="232.0" stroke="#5ab6f0" stroke-width="7" stroke-linecap="round"/><line x1="148.1" y1="209.0" x2="153.0" y2="232.0" stroke="#182230" stroke-width="10" stroke-linecap="round"/><line x1="148.1" y1="209.0" x2="153.0" y2="232.0" stroke="#ee9d5a" stroke-width="7" stroke-linecap="round"/><line x1="135.0" y1="234.0" x2="137.3" y2="241.9" stroke="#182230" stroke-width="10" stroke-linecap="round"/><line x1="135.0" y1="234.0" x2="137.3" y2="241.9" stroke="#5ab6f0" stroke-width="7" stroke-linecap="round"/><line x1="153.0" y1="234.0" x2="150.7" y2="241.9" stroke="#182230" stroke-width="10" stroke-linecap="round"/><line x1="153.0" y1="234.0" x2="150.7" y2="241.9" stroke="#ee9d5a" stroke-width="7" stroke-linecap="round"/><ellipse cx="139.9" cy="209.0" rx="4" ry="4" fill="#e1e8ec" stroke="#182230" stroke-width="1.5"/><ellipse cx="148.1" cy="209.0" rx="4" ry="4" fill="#e1e8ec" stroke="#182230" stroke-width="1.5"/><ellipse cx="144.0" cy="109.9" rx="21" ry="24" fill="#d2dbe1" stroke="#182230" stroke-width="2"/><ellipse cx="137.0" cy="113.4" rx="1.8" ry="2.2" fill="#182230"/><ellipse cx="151.0" cy="113.4" rx="1.8" ry="2.2" fill="#182230"/><line x1="140.5" y1="120.9" x2="147.5" y2="120.9" stroke="#182230" stroke-width="1.4"/></g><text x="872" y="310" font-size="16" font-weight="700" fill="#c4d2df">3. 立ち直る</text><foreignObject x="870" y="318" width="276" height="110"><div xmlns="http://www.w3.org/1999/xhtml" style="font:12px sans-serif;color:#8797a6;line-height:1.35">straightens her knees<br/>110ms</div></foreignObject><g transform="translate(1152,0)"><rect width="288" height="288" fill="#19202a" stroke="#2c3542"/><line x1="24" y1="40" x2="24" y2="288" stroke="#222b37"/><line x1="48" y1="40" x2="48" y2="288" stroke="#222b37"/><line x1="72" y1="40" x2="72" y2="288" stroke="#222b37"/><line x1="96" y1="40" x2="96" y2="288" stroke="#222b37"/><line x1="120" y1="40" x2="120" y2="288" stroke="#222b37"/><line x1="144" y1="40" x2="144" y2="288" stroke="#222b37"/><line x1="168" y1="40" x2="168" y2="288" stroke="#222b37"/><line x1="192" y1="40" x2="192" y2="288" stroke="#222b37"/><line x1="216" y1="40" x2="216" y2="288" stroke="#222b37"/><line x1="240" y1="40" x2="240" y2="288" stroke="#222b37"/><line x1="264" y1="40" x2="264" y2="288" stroke="#222b37"/><line x1="0" y1="48" x2="288" y2="48" stroke="#222b37"/><line x1="0" y1="72" x2="288" y2="72" stroke="#222b37"/><line x1="0" y1="96" x2="288" y2="96" stroke="#222b37"/><line x1="0" y1="120" x2="288" y2="120" stroke="#222b37"/><line x1="0" y1="144" x2="288" y2="144" stroke="#222b37"/><line x1="0" y1="168" x2="288" y2="168" stroke="#222b37"/><line x1="0" y1="192" x2="288" y2="192" stroke="#222b37"/><line x1="0" y1="216" x2="288" y2="216" stroke="#222b37"/><line x1="0" y1="240" x2="288" y2="240" stroke="#222b37"/><line x1="0" y1="264" x2="288" y2="264" stroke="#222b37"/><polyline points="144.0,200.2 144.0,198.2 144.0,195.2 144.0,191.2 144.0,188.2" fill="none" stroke="#ff7a7a" stroke-width="1" stroke-dasharray="3 3" opacity=".6"/><circle cx="144.0" cy="188.2" r="3" fill="#ff7a7a"/><ellipse cx="144.0" cy="242" rx="30" ry="6" fill="#0a0f15"/><line x1="132.5" y1="140.0" x2="129.5" y2="157.6" stroke="#182230" stroke-width="10" stroke-linecap="round"/><line x1="132.5" y1="140.0" x2="129.5" y2="157.6" stroke="#5ab6f0" stroke-width="7" stroke-linecap="round"/><line x1="155.5" y1="140.0" x2="158.5" y2="157.6" stroke="#182230" stroke-width="10" stroke-linecap="round"/><line x1="155.5" y1="140.0" x2="158.5" y2="157.6" stroke="#ee9d5a" stroke-width="7" stroke-linecap="round"/><line x1="129.5" y1="157.6" x2="140.0" y2="171.4" stroke="#182230" stroke-width="9" stroke-linecap="round"/><line x1="129.5" y1="157.6" x2="140.0" y2="171.4" stroke="#5ab6f0" stroke-width="6" stroke-linecap="round"/><line x1="158.5" y1="157.6" x2="148.0" y2="171.4" stroke="#182230" stroke-width="9" stroke-linecap="round"/><line x1="158.5" y1="157.6" x2="148.0" y2="171.4" stroke="#ee9d5a" stroke-width="6" stroke-linecap="round"/><ellipse cx="140.0" cy="171.4" rx="4" ry="5" fill="#5ab6f0" stroke="#182230" stroke-width="1.5"/><ellipse cx="148.0" cy="171.4" rx="4" ry="5" fill="#ee9d5a" stroke="#182230" stroke-width="1.5"/><path d="M140.0,171.4 Q144.0,170.4 148.0,171.4" fill="none" stroke="#3a1650" stroke-width="6.5" stroke-linecap="round"/><path d="M140.0,171.4 Q144.0,170.4 148.0,171.4" fill="none" stroke="#b36be0" stroke-width="4" stroke-linecap="round"/><ellipse cx="140.0" cy="171.4" rx="5.5" ry="3.2" fill="none" stroke="#3a1650" stroke-width="3.5"/><ellipse cx="140.0" cy="171.4" rx="5.5" ry="3.2" fill="none" stroke="#b36be0" stroke-width="2"/><ellipse cx="148.0" cy="171.4" rx="5.5" ry="3.2" fill="none" stroke="#3a1650" stroke-width="3.5"/><ellipse cx="148.0" cy="171.4" rx="5.5" ry="3.2" fill="none" stroke="#b36be0" stroke-width="2"/><path d="M144.0,137.4 Q146.1,154.9 140.0,171.4" fill="none" stroke="#3a1650" stroke-width="6.5" stroke-linecap="round"/><path d="M144.0,137.4 Q146.1,154.9 140.0,171.4" fill="none" stroke="#b36be0" stroke-width="4" stroke-linecap="round"/><ellipse cx="140.0" cy="171.4" rx="5.5" ry="3.2" fill="none" stroke="#3a1650" stroke-width="3.5"/><ellipse cx="140.0" cy="171.4" rx="5.5" ry="3.2" fill="none" stroke="#b36be0" stroke-width="2"/><line x1="144.0" y1="125.5" x2="144.0" y2="144.5" stroke="#182230" stroke-width="10" stroke-linecap="round"/><line x1="144.0" y1="125.5" x2="144.0" y2="144.5" stroke="#b6c2cc" stroke-width="7" stroke-linecap="round"/><polygon points="157.0,134.5 131.0,134.5 135.0,181.0 153.0,181.0" fill="#b6c2cc" stroke="#182230" stroke-width="2" stroke-linejoin="round"/><ellipse cx="144.0" cy="181.0" rx="10" ry="7" fill="#637487" stroke="#182230" stroke-width="2"/><polygon points="132.5,134.0 137.5,138.5 135.5,144.5 128.5,143.0 127.5,138.5" fill="#246a9e" stroke="#182230" stroke-width="1.2"/><line x1="135.5" y1="181.0" x2="139.7" y2="206.9" stroke="#182230" stroke-width="12" stroke-linecap="round"/><line x1="135.5" y1="181.0" x2="139.7" y2="206.9" stroke="#5ab6f0" stroke-width="9" stroke-linecap="round"/><line x1="139.7" y1="206.9" x2="135.0" y2="232.0" stroke="#182230" stroke-width="10" stroke-linecap="round"/><line x1="139.7" y1="206.9" x2="135.0" y2="232.0" stroke="#5ab6f0" stroke-width="7" stroke-linecap="round"/><line x1="152.5" y1="181.0" x2="148.3" y2="206.9" stroke="#182230" stroke-width="12" stroke-linecap="round"/><line x1="152.5" y1="181.0" x2="148.3" y2="206.9" stroke="#ee9d5a" stroke-width="9" stroke-linecap="round"/><line x1="148.3" y1="206.9" x2="153.0" y2="232.0" stroke="#182230" stroke-width="10" stroke-linecap="round"/><line x1="148.3" y1="206.9" x2="153.0" y2="232.0" stroke="#ee9d5a" stroke-width="7" stroke-linecap="round"/><line x1="135.0" y1="234.0" x2="137.3" y2="241.9" stroke="#182230" stroke-width="10" stroke-linecap="round"/><line x1="135.0" y1="234.0" x2="137.3" y2="241.9" stroke="#5ab6f0" stroke-width="7" stroke-linecap="round"/><line x1="153.0" y1="234.0" x2="150.7" y2="241.9" stroke="#182230" stroke-width="10" stroke-linecap="round"/><line x1="153.0" y1="234.0" x2="150.7" y2="241.9" stroke="#ee9d5a" stroke-width="7" stroke-linecap="round"/><ellipse cx="139.7" cy="206.9" rx="4" ry="4" fill="#e1e8ec" stroke="#182230" stroke-width="1.5"/><ellipse cx="148.3" cy="206.9" rx="4" ry="4" fill="#e1e8ec" stroke="#182230" stroke-width="1.5"/><ellipse cx="144.0" cy="105.9" rx="21" ry="24" fill="#d2dbe1" stroke="#182230" stroke-width="2"/><ellipse cx="137.0" cy="108.9" rx="1.8" ry="2.2" fill="#182230"/><ellipse cx="151.0" cy="108.9" rx="1.8" ry="2.2" fill="#182230"/><line x1="140.5" y1="116.5" x2="147.5" y2="116.5" stroke="#182230" stroke-width="1.4"/></g><text x="1160" y="310" font-size="16" font-weight="700" fill="#c4d2df">4. 立つ</text><foreignObject x="1158" y="318" width="276" height="110"><div xmlns="http://www.w3.org/1999/xhtml" style="font:12px sans-serif;color:#8797a6;line-height:1.35">standing, bound<br/>120ms</div></foreignObject></svg>